<svg xmlns="http://www.w3.org/2000/svg" width="166.9" height="83.1" viewBox="0 0 166.9 83.1"><path d="M126.1 42.1V27.81c0-.6-.1-.8-.8-.8h-11.4v-2.8c0-.1.4-.3.6-.3h11c.4 0 .6-.1.6-.6v-6.6c0-.6-.3-.5-.7-.5h-16.1c-.6 0-.8-.2-.8-.7V5.31c0-.7.3-1.1.9-1.4 1.3-.5 2.6-.6 4-.7 1-.1 2.1 0 3.1 0 .4 0 .6.1.6.6 0 1.1 0 1.1 1.2 1.1l7.1-.2c.5 0 .8-.1.7-.7-.1-.6 0-1.2 0-1.7 0-1.2.4-1.7 1.6-1.9 1.2-.2 2.4-.3 3.6-.4 1.1-.1 2.3 0 3.4 0 .4 0 .5.1.5.5v3.1c0 .5.1.7.7.7l8.5-.3 5.2-.1c2.5 0 3.9 2.1 3.5 4.5-.2 1.2-.4 2.4-.5 3.6-.1.9-.4 1.6-1 2.2-.2.2-.6.3-.9.4-.4 0-.5.2-.4.5v.1c0 1 0 1-.9 1h-13.2c-.9 0-.9 0-.9.8v6.1c0 .5.2.7.7.7h11.5c.5 0 .7.1.7.7v1.9c0 .5-.2.6-.6.6h-10.9c-1.4 0-1.4 0-1.4 1.4V41.2c.5 0 1 0 1.5-.1.3 0 .5-.1.8-.2l4.4-.5 4.6-.6 3.8-.5 6.1-1 4.9-.9 4.5-.9c.4-.1.9-.2 1.1.3.1.4.2 1 0 1.3-.3.6-.8 1.2-1.3 1.8l-3.1 2.9-4.6 4.3c-.6.6-1 1.3-1.5 2-.9 1.1-2.1 1.5-3.4 1.7-1.8.2-3.6.3-5.4.4l-7.2.7-6.5.6-2.7.2-9.1.5c-2.2.1-4.4.2-6.7.3-7.4.2-14.8.2-22.2-.1l-7.5-.4c-1.3-.1-2.5-.2-3.8-.4l-6.9-.9c-1.1-.2-2.3-.3-3.4-.4l-4.7-.9c-.7-.1-1.4-.3-2.1-.5l-5.4-1.4-4.9-1.5c-1.2-.4-2.3-.9-3.5-1.4l-3.8-1.5c-1.7-.8-3.5-1.6-5.2-2.5l-1.1-.5c-.5-.4-.9-.2-1.3.2-2.7 2.5-5.6 4.6-8.9 6.3-2.2 1.2-4.4 2.1-6.8 2.7-1.1.3-2.2.5-3.4.6-2 .1-4.1.2-6.1.2-1.1 0-2.2-.2-3.3-.5-1.3-.3-2.5-.7-3.7-1.2-.9-.3-1.7-.8-2.4-1.3-1.6-1-2.8-2.4-3.6-4.1-.5-.4-.8-1-.9-1.7-.2-1-.4-1.9-.5-2.9-.3-2.6.9-4.7 2.3-6.8 1.2-1.8 2.9-3 4.8-3.9 1.6-.8 3.3-1.3 5.1-1.6 3-.5 6-.1 8.9.5 1.9.4 3.7.9 5.5 1.5 2 .7 3.8 1.5 5.8 2.3 1.4.6 2.8 1.1 4.2 1.6.2.1.3.2.6.3 2.9-3.9 5.2-8.2 6.7-13H17.5v-2.9c0-.1.3-.3.5-.3h11.39c.4 0 .6-.1.6-.6v-5.3c0-.6-.2-.8-.8-.8h-16c-.7 0-.7 0-.7-.8V7.8c0-.4.2-.5.6-.5h16.3c.6 0 .7-.2.7-.7V2.8c0-1.5.2-1.9 1.9-2.2 1.4-.2 2.9-.2 4.3-.3.7 0 1.5.1 2.2 0 .5 0 .6.1.6.6v5.6c0 .8 0 .8.8.8h16.5c.6 0 .8.2.8.8v1.8c0 .5-.2.6-.7.6H39.588c-.4 0-.5.1-.5.5v5.6c0 .4.1.5.5.5h13.3c.5 0 .6.2.5.6-.5 2.6-1.2 5.1-2.2 7.5-1.5 3.6-3.4 7-5.8 10.1-.1.2-.2.4-.4.6 6.4 1.9 12.7 4.3 19.3 5.2V15.9c-.4.2-.8.3-1.1.5l-4.5 2c-.4.2-.6.1-.8-.3l-.9-1.5c.9-.7 1.8-1.4 2.6-2.1 3.2-2.6 6.2-5.4 8.3-9 .7-1.2 1.1-2.5 1.2-3.9 0-.7.5-1 1-1.1.9-.2 1.8-.5 2.8-.5h3.7c.4 0 .5.1.5.5-.2 2.2-.8 4.3-1.9 6.2-.5.9-1.1 1.7-1.6 2.5-.2.3-.3.6-.3.9v31.5c0 .5.1.7.7.7 5.6.5 11.2.7 16.8.9.5 0 .7-.1.7-.7v-29h-16.1c-.5 0-.7-.1-.7-.7v-2c0-.5.2-.6.6-.6h15.5c.5 0 .6-.1.6-.6V2.3c0-1.3.2-1.6 1.4-1.9.8-.2 1.6-.4 2.3-.4 1.6-.1 3.1 0 4.7 0 .4 0 .5.1.5.5v9.2c0 .5.2.6.6.6h3.4c.6 0 .7.2.7.7v2c0 .5-.2.6-.6.6h-3.5c-.4 0-.6.2-.6.6v28c0 1.3-.1 1.2 1.2 1.2 5.7-.2 11.4-.4 17.2-.6 2.4-.1 4.8-.4 7.1-.5 0-.2.1-.2.3-.2zm-92.4-4.7c-.8-.4-1.5-.7-2.1-1.1l-4.2-2c-.9-.4-1.9-.8-2.9-1.2-1-.4-2.1-.9-3.1-1.2-1.6-.4-3.2-.6-4.9-.8-2.4-.3-4.6.4-6.6 1.4-3.6 1.8-4.4 4.3-3.9 7.7.4 2.6 2 4.4 4.3 5.6 1.3.6 2.7 1 4.1 1.1 1.2.1 2.4.2 3.6.1 2-.2 3.8-1 5.5-2 2-1.2 3.9-2.6 5.8-4 1.6-1 2.9-2.3 4.4-3.6zM130.9 13h13.4c.1 0 .4-.2.4-.4.2-1.3.4-2.6.5-3.9.1-.9-.5-1.5-1.3-1.5l-2.3.1-15.9.5-8.1.3c-.4 0-.6.2-.6.6v3.4c0 .9 0 .9.9.9h13zM34.4 67.2v-6.7c.1-1.9-.6-2.3-2.3-2.5-.5-.1-.8-.2-.6-.7.1-.2.3-.4.5-.4l4.5-.3c.7 0 .8.1.8.7v16.9c0 1.3.3 1.4 1.7 1.9.2.1.4.3.4.5s-.2.5-.4.6c-.4.1-.8.1-1.2.1H24.1c-.2 0-.5-.2-.5-.4-.1-.3-.1-.7.4-.8.5-.1 1-.2 1.5-.2.6-.1.8-.4.6-.9l-1.5-3.6c-.1-.3-.3-.5-.7-.5h-6c-.5 0-.7.2-.8.6l-1 2.7c-.3 1-.1 1.5 1 1.6.4.1.7.1 1.1.1.5.1.7.2.7.8 0 .5-.3.6-.8.6h-6.7c-.5 0-.8-.4-.6-.8.1-.2.3-.4.5-.4 2-.1 2.7-1.6 3.4-3.2l3.2-7.3 2.7-6.6c.3-.8.6-1 1.4-.8.2 0 .4.2.4.4l1.6 3.6 4.1 9.6c.3.8.6 1.6 1 2.3.5.9 1.1 1.6 2.3 1.8.6.1 1.2.3 1.9 0s.9-.4.9-1.2v-5c.1-.9.1-1.7.2-2.5zM18 69c.3.1.4.1.6.1h4.1c1 0 1-.2.6-1.1-.7-1.5-1.3-3-2-4.4-.1-.3-.3-.7-.5-1.1-1 2.3-1.9 4.4-2.8 6.5zm118.4-4.2c0-.9-.1-1-1-1-1.2.1-2.4.2-3.6.2-.3 0-.6 0-.6.4s0 .7.6.7c.4 0 .8.2 1.2.4.3.2.6.6.6 1v8.2c0 .3-.2.7-.5.9-.3.2-.7.3-1.1.3-.4 0-.6.2-.6.6 0 .4.2.5.6.5h6.1c.2 0 .4-.3.5-.5.1-.1-.1-.5-.2-.5-.3-.2-.7-.3-1.1-.4-.5-.1-.8-.5-.8-1v-6.9c0-.4.3-.8.5-1.1.9-1.1 2.1-1.3 3.4-1.2.7 0 1.5.7 1.6 1.3.1.5.2.9.2 1.4v6.6c0 .2-.1.4-.2.5-.3.5-.8.6-1.3.6-.2 0-.4.3-.4.4-.1.5.2.7.7.7h5.7c.4 0 .6-.1.7-.5 0-.4-.2-.5-.5-.6-1.2-.2-1.5-.6-1.5-1.8v-6.3c0-.4.2-.8.4-1.1.9-1 2.1-1.4 3.5-1.3.7.1 1.7 1 1.8 1.8l.1 2c0 1.7-.1 3.4 0 5.1 0 1.2-.4 1.5-1.5 1.6-.5.1-.6.2-.6.7 0 .5.3.5.7.5h6c.6 0 .5-.4.5-.7.1-.4-.1-.5-.5-.5-1.1 0-1.6-.5-1.6-1.6v-4.8c0-1 0-1.9-.1-2.8-.2-1.2-.8-2.1-1.9-2.7-.9-.5-1.9-.3-2.8-.3-1 0-1.9.3-2.7 1-.3.3-.6.5-.9.7-.3.2-.5.2-.7-.1-.4-.5-.8-1-1.4-1.2-1.7-.8-3.5-.7-5.1.2-.6.3-1.1.7-1.7 1.2-.5-.2-.5-.4-.5-.6zm-60.6-41c1.8 2.5 4 4.6 6.5 6.5.5.4 1.1.4 1.7 0 2.3-1.8 4.4-3.9 6.2-6.2.7-.9.7-1.5-.1-2.3-.5-.6-.9-1.2-1.4-1.7-1.5-1.5-3.1-2.9-4.7-4.4-.7-.6-1.2-.6-1.8-.1-.6.5-1.3.9-1.8 1.4-1.5 1.6-3 3.2-4.5 4.9l-.5 1c.2.4.3.7.4.9zm-26.5 59c-.2-.9-.1-.9.7-1.1 1.1-.3 1.6-.3 1.6-1.8V67c0-1.1-.7-1.7-1.7-1.8-.4 0-.6-.1-.6-.6s.1-.6.6-.6c1.3 0 2.7-.1 4-.2.5 0 .6.2.6.6v.9c.4-.3.6-.4.9-.6 1.7-1.1 3.5-1.3 5.4-.6 2.1.7 3.2 2.3 3.8 4.3.5 1.6.4 3.2-.2 4.7-.8 2.1-2.3 3.5-4.5 4.1-1.5.4-2.9.4-4.4-.1-1-.3-1.1-.3-1 .8v2.2c0 .8.3 1.2.9 1.4.5.1 1 .3 1.5.3s.4.3.4.7c0 .3-.1.5-.4.5h-7.4c-.1-.1-.2-.1-.2-.2zm5.1-12.5c0 1-.1 2.1 0 3.2 0 .3.1.6.3.7.9.5 1.8.8 2.8.9 1.5.1 2.7-.6 3.4-1.8 1-1.5 1.2-3.2.5-5-.6-1.5-2-2.6-3.6-2.5-1 .1-2 .2-3 .7-.3.2-.5.3-.5.7.1 1 .1 2 .1 3.1zm75.6.2c-.2 3.4-1.3 5.9-4.1 7.1-1.7.8-3.5 1.1-5.4.6-1.4-.3-2.7-.9-3.7-1.9-1.6-1.5-2.2-3.4-2.1-5.5 0-1.9.7-3.7 2.1-5 1.1-1 2.4-1.8 4-1.9.4 0 .8-.2 1.3-.2 2.3-.1 4.3.5 5.9 2 .7.6 1.1 1.5 1.5 2.3.2 1 .3 2 .5 2.5zm-12 .9c.1.6.1 1.5.4 2.3.4 1.4 1 2.6 2.4 3.2 2 .8 4.1-.1 4.9-1.9 1-2.3 1-4.6.3-7-.6-1.8-1.9-3-4.1-2.8-1.1.1-1.9.6-2.6 1.5-1.1 1.3-1.2 2.9-1.3 4.7zm-42.9 4.3c-.6.4-1.1.7-1.7 1-1.5.8-3.1.9-4.8.4-1.2-.4-2.2-2.3-1.9-3.7.3-1.5 1.2-2.4 2.6-2.9 1.4-.5 2.9-1 4.3-1.4l1.1-.4.3-.3c.4-1.2-.3-3-1.4-3.4-.9-.3-1.9-.3-2.7.2-.1.1-.2.3-.2.4l.1 1c.1.6 0 1.1-.5 1.5-.7.4-1.5.6-2.2 0-.5-.4-.7-1-.6-1.6.2-1 1-1.5 1.7-1.9 1.2-.8 2.6-.9 4-.9 1.1 0 2.2.1 3.2.7 1.1.7 1.6 1.8 1.7 3 .1 1.9 0 3.8 0 5.7 0 .6 0 1.1.1 1.7.1.6.4.9 1 1 .3 0 .6 0 .8.1.2.1.5.2.6.4.1.3.1.7-.3.8-.6.2-1.3.4-1.9.4-1.6 0-2.6-.6-3.3-1.8zM75 70c-1.3.3-2.4.7-3.4 1.2-.9.5-1.5 1.1-1.7 2.1-.2.7.2 1.6.7 1.9 1.1.6 2.1.6 3.2 0 .9-.5 1.5-1.1 1.3-2.2-.1-.8 0-1.7 0-2.5 0-.1 0-.2-.1-.5zm13.6 2.7L85.5 66c-.2-.4.1-.6.4-.7l.5-.1c.5 0 .4-.4.5-.7 0-.4-.1-.6-.5-.6h-5.5c-.4 0-.6.2-.6.6 0 .4.1.6.5.7.9.1 1.5.7 1.9 1.5l.9 1.9c.9 2 1.9 4 2.8 5.9.6 1.2.7 2.4.1 3.7-.5 1-1.2 1.9-2 2.6-.1.1-.4.1-.5 0l-1.1-1c-.6-.4-1.6-.3-2.1.2s-.6 1.5 0 2c.5.4 1.1.8 1.7 1 1.6.4 2.7-.8 3.6-1.8 1-1.4 1.9-2.9 2.7-4.5l3.1-6.6c.5-1 1-1.9 1.4-2.9.4-1 1-1.6 1.9-2.1.7-.3.7-.4.5-1.2l-1.6-.1h-3.3c-.2 0-.4.3-.5.5-.1.5.2.7.6.8 1.1.2 1.4.6.9 1.7l-1.6 3.7c-.4.8-.8 1.6-1.2 2.5-.3-.2-.4-.2-.4-.3zm61.7-40.5c-1.4-1.4-2.8-2.9-4.3-4.2-.6-.6-1.2-.6-1.8-.1l-1.3 1.1-3.3 3.6c-.4.4-.4.9 0 1.4 1.4 1.9 3 3.5 4.8 4.9.3.2.9.3 1.2.1.7-.4 1.4-1 2-1.6.8-.7 1.5-1.5 2.2-2.4.4-.5.8-1.1 1.1-1.6-.2-.5-.3-.9-.6-1.2zm-46.5 35.9c.5-1.9 2.2-3.3 4.2-2.9 1.3.2 1.3.3 1 1.5 0 .2-.1.4-.1.5-.1.7-.1 1.3.5 1.7.6.4 1.3.6 2 .4.3-.1.8-.3.9-.6.5-.9.2-2.4-.5-3.2-1-1.1-2.3-1.5-3.7-1.6-.8-.1-1.5 0-2.3.2-2.1.3-3.6 1.4-4.8 3.1-1 1.5-1.3 3.2-1.1 5 .1 1.4.6 2.7 1.5 3.8 1.2 1.4 2.6 2.1 4.4 2.3 3 .4 5.3-.6 7.2-2.9.3-.4.4-.7 0-1-.4-.3-.7-.3-1.1.1-.8 1-1.8 1.7-3.1 2.1-1 .3-2 .1-2.8-.3-1.2-.5-2.1-1.6-2.5-2.9l-.5-2.6c.5-1 .6-1.9.8-2.7zM46 69.4v-4.9c0-.7-.1-.8-.7-.8l-4.2.3c-.4 0-.5.2-.5.6 0 .5.3.5.7.6 1.2.3 1.8.4 1.8 1.6v8c0 .3-.3.7-.6.9s-.7.2-1 .3c-.4 0-.5.2-.5.5s.1.5.5.5h6.1c.2 0 .5-.2.5-.4s-.1-.5-.3-.7c-.2-.2-.5-.2-.8-.3-.9-.3-1.1-.5-1.1-1.4.1-1.5.1-3.2.1-4.8zm-.7-9.2c0-.8-.9-1.6-1.8-1.6-1.6 0-2 .8-2.2 1.8-.1.9.9 1.9 1.9 1.9 1.2 0 2.2-.8 2.1-2.1zm49.2 16c0 .6.6 1.3 1.2 1.3.7 0 1.4-.6 1.4-1.3 0-.7-.5-1.2-1.3-1.3-.7 0-1.3.5-1.3 1.3z"/></svg>