<svg xmlns="http://www.w3.org/2000/svg" width="334.4" height="51.1" viewBox="0 0 334.4 51.1"><path d="M31.8 10.3c4.5-5.7 8.3-5.7 12.3 0 .6-.8 1.1-1.6 1.8-2.3 2.2-2 4.7-2.3 7.4-1.2 2.5 1 3.8 3 3.8 5.7.1 6.2 0 12.5 0 18.7 0 .9-.4 1.2-1.2 1.2h-3.7c-1.1 0-1.4-.4-1.4-1.5V16.8c0-.7 0-1.4-.1-2.1-.3-1.6-1-2.4-2.4-2.5-1.5-.1-2.9.7-3.3 2.1-.3 1.1-.4 2.3-.4 3.5v13c0 1.4-.1 1.5-1.5 1.5h-3.5c-1 0-1.4-.4-1.4-1.4V16.6c0-.7-.1-1.4-.2-2.1-.3-1.5-1.1-2.3-2.4-2.3-1.6-.1-2.7.6-3.1 2.1-.3 1-.4 2.1-.4 3.2v13.2c0 1.5-.2 1.6-1.7 1.7h-3.5c-.8 0-1.2-.4-1.2-1.2V8c0-.8.3-1.2 1.1-1.2h3.9c.8 0 1.1.3 1 1.1.1.6.1 1.3.1 2.4zM7.9 16.8C2.6 17.7-.2 21 0 26.1c.1 2.8 1.9 5.4 4.5 6.1 3.3.8 6.5.5 9.2-2 .3-.3.6-.6 1-.9.8.9 1.5 1.7 2.2 2.5.7.8 1.4.8 2.2 0s1.6-1.5 2.5-2.2c.9-.7.9-1.3.2-2.1-1-1.3-1.4-2.7-1.4-4.3 0-3.5 0-7-.2-10.5-.1-2.9-1.7-4.9-4.4-5.8-3.5-1.3-7-1.1-10.4.4-2.3 1-3.7 2.8-4.4 5.2-.3 1.2-.1 1.6 1.2 1.8.9.1 1.8.1 2.7.3 1.2.2 1.8-.1 2.2-1.4.4-1.4 2.1-2.3 3.7-2.2 1.4.1 2.6.8 2.9 2.1.2 1 .2 2.1.3 3.2-2.2 0-4.2.2-6.1.5zm4.2 10c-.9.9-2 1.3-3.3.9-1.2-.4-1.7-1.3-1.9-2.5-.4-2.1.5-4 2.5-4.7 1.3-.5 2.8-.6 4.4-1 0 2.8.3 5.4-1.7 7.3zm57.1-10c-4.8.9-8.3 3.8-7.9 9.6.2 2.9 1.9 5.2 4.7 5.8 3.3.8 6.4.2 9-2.2l.9-.8c.3.5.6.8.9 1.2l1 1.2c1 1 1.3 1 2.3.1l2.5-2.2c.9-.7.9-1.3.2-2.1-1.1-1.3-1.5-2.8-1.5-4.6V13c-.1-3.1-1.6-5.3-4.6-6.3-3.2-1.2-6.5-1.1-9.7.2-2.7 1-4.4 3-5.1 5.8-.2.8 0 1.2.8 1.3l3 .3c1.2.2 2 0 2.4-1.4.4-1.4 2.2-2.3 3.8-2.1 1.6.2 2.6 1.1 2.8 2.6.1.9 0 1.8 0 2.7-1.7.2-3.6.4-5.5.7zm5.2 8.3c-.4 1.6-1.6 2.7-3.4 2.8-1.1.1-2-.3-2.5-1.3-.8-1.6-.7-3.2.3-4.6.4-.6 1.2-1.2 1.9-1.4 1.3-.4 2.7-.6 4.1-.9l.4.3c-.2 1.6-.3 3.4-.8 5.1zm63.4-14.6V8.1c.1-1-.3-1.5-1.3-1.4-1.1.1-2.2.1-3.2 0-1.1-.1-1.5.3-1.5 1.4l.1 22.9c0 .9.4 1.3 1.3 1.2h3.4c1.5 0 1.7-.1 1.7-1.7v-13c0-1.6.2-3.2 1.3-4.5.7-.9 1.6-1.2 2.8-1 1.1.2 1.7.9 2 1.9.2 1 .4 2.1.4 3.2v13.5c0 1.5.1 1.6 1.5 1.6h3.2c1.4 0 1.5-.1 1.5-1.5V19c0-2.3 0-4.6-.2-6.9-.2-3-2.2-5.3-4.8-5.7-3.4-.6-5.8.4-7.3 3.3-.2.3-.4.6-.5.9-.3-.1-.3-.1-.4-.1zM126 27.9c3.2-5.7 3.2-11.6-.1-17.2-3.9-6.6-13.6-6.1-17 .7-2.6 5.2-2.5 10.7 0 15.9 1.7 3.5 4.7 5.3 8.6 5.3 3.6.1 6.7-1.5 8.5-4.7zm-5.1-3.2c-.1.6-.4 1.1-.7 1.6-1.3 2-4 2-5.1-.2-.6-1.1-1-2.5-1-3.7-.1-2.9-.1-5.7.3-8.6.3-2.4 2.3-3.4 4.3-2.8 1.1.4 1.7 1.2 1.9 2.2.4 2 .6 4.1.9 6-.2 2.1-.3 3.8-.6 5.5zM233.1 6.2c-3.2-.1-5.1 1.8-6.6 4.3-.1-.9-.2-1.6-.1-2.4.1-1.4-.8-1.2-1.7-1.3-.9 0-1.7 0-1.7 1.3v22.8c0 1 .3 1.4 1.3 1.3h.8c1.6 0 1.6 0 1.6-1.7V16.6c0-2.4.6-4.5 2.5-6.2 1.9-1.7 4.1-1.5 5.6.5 1 1.4 1.2 3 1.2 4.7v14.3c0 2.2 0 2.2 2.2 2.2 1.1 0 1.4-.3 1.4-1.4-.1-4.4 0-8.8 0-13.2 0-2.9.6-5.6 3.1-7.5 1.6-1.2 3.5-1 4.8.5 1.1 1.3 1.5 2.8 1.5 4.5l.1 15c0 2.2 0 2.2 2.2 2.2 1.4 0 1.5-.1 1.5-1.5V15.6c0-1.4-.2-2.8-.5-4.1-.6-2.7-2.2-4.6-4.9-5.2-2.7-.6-5 .2-6.8 2.4-.6.8-1.1 1.7-1.7 2.6-.9-2.8-2.5-4.9-5.8-5.1zM21.3 35.5l.8 1c3.5 3.1 7.3 5.7 11.5 7.9 8.6 4.5 17.8 6.7 27.5 6.7 2.6 0 5.2-.3 7.8-.6 7.8-1 15.2-3.5 21.9-7.6.9-.5 1.7-1.1 2.5-1.7.3-.2.4-.9.3-1.1-.1-.3-.7-.4-1.1-.5-.3 0-.6.1-.8.3-8.6 3.5-17.5 5.5-26.7 5.9-7.8.4-15.5-.6-23.1-2.5-6.4-1.6-12.5-4-18.3-7.2-.6-.3-1.3-.6-1.9-.8-.2-.1-.3.1-.4.2zM95.8 23c2.3-3.3 4.5-6.6 7-9.9 1.2-1.5 1.8-3.1 1.6-5-.1-1.4-.2-1.6-1.6-1.6h-13c-2.4 0-2.5 0-2.4 2.4 0 3-.4 2.7 2.7 2.7h6.2c-.4.6-.7 1-.9 1.4-2.7 3.9-5.4 7.7-8 11.6-.4.6-.7 1.4-.8 2.1-.1 1.2-.1 2.5 0 3.7 0 1.1.4 1.3 1.4.9 5.2-2.4 10.3-2.4 15.5 0 .9.4 1.4.2 1.4-.9 0-.8-.1-1.6 0-2.5.2-1.4-.5-2.1-1.7-2.7-2.4-1.1-5-1.5-7.8-1.4.1-.3.2-.6.4-.8zm65.6-15.2c0-.3-.2-.8-.3-.9-.8-.1-1.7-.2-2.5 0-.3.1-.5 1-.5 1.5v29.7c0 2.7-.3 2.5 2.6 2.5.9 0 1.2-.4 1.2-1.3V29.1c.4.5.7.8.9 1.1 1.2 1.4 2.6 2.4 4.4 2.5 3.8.2 6.6-1.4 8.3-5 1.5-3.2 1.9-6.6 1.6-10-.3-3.4-1.2-6.5-3.5-9.1-2.5-2.8-7-3.2-9.8-.6-.8.7-1.4 1.5-2.2 2.5-.2-1.1-.1-1.9-.2-2.7zm9.6 19.7c-1.8 2.5-4.7 2.8-6.8.5-.9-1-1.9-2.4-2-3.7-.3-3.1-.3-6.3-.1-9.4.1-1.6 1.1-2.9 2.3-3.9 2.5-2.2 5.4-1.6 7 1.3 1.3 2.4 1.5 5 1.6 7.6 0 2.6-.3 5.3-2 7.6zm24.3 1.8l.1.8c.2 2.6.2 2.6 2.7 2.4.7 0 .9-.3.9-1.1l-.3-14.9c0-1.3-.1-2.5-.2-3.8-.4-3.4-2.5-5.8-5.8-6.2-2.5-.3-5-.3-7.4.6-2.3.9-3.9 2.4-4.6 4.8-.1.4 0 1.2.2 1.2.8.3 1.7.5 2.5.5.4 0 .6-.9 1-1.3.4-.6.8-1.3 1.4-1.7 1.7-1.5 5.2-1.7 7.2-.5.7.4 1.4 1.2 1.6 1.9.4 1.4.6 3 .9 4.7h-3c-1.9.1-3.9.1-5.8.5-5.5 1.1-7.4 5.6-6.5 10.1.5 2.7 2.2 4.6 4.9 5.3 3 .8 5.9.6 8.4-1.6.6-.6 1.1-1.3 1.8-2.1-.1.2 0 .3 0 .4zm-3.3-.7c-1.3 1.1-2.8 1.6-4.5 1.3-1.8-.3-3.1-1.3-3.5-3.1-.5-2.1-.1-3.9 1.6-5.4 1.4-1.2 3.1-1.5 4.9-1.7 1.5-.1 3 0 4.7 0 .2 3.5-.5 6.6-3.2 8.9zm69.8-8.9h13.3c.9 0 1.4-.3 1.3-1.3-.3-1.8-.4-3.7-1-5.5-1.2-3.9-3.8-6.5-8.1-6.9-3.8-.4-7.4 1.7-9.2 5.5-2.6 5.5-2.6 11 .2 16.4 1.7 3.3 4.7 4.8 8.5 4.8 3.7-.1 6.5-1.7 8.3-5 1.3-2.5 1-2.5-1.4-2.9-.8-.1-1.2 0-1.5.7-.2.5-.5 1.1-.9 1.5-2.1 2.9-5.9 3.2-8.4.7-2.2-2.2-2.4-5-2.3-8h1.2zm-1.1-2.9c.2-2.9 1-5.4 3.5-7 2.2-1.4 4.9-.8 6.6 1.4 1 1.3 1.6 3.7 1.5 5.6h-11.6zm62-10.5c-5 .9-7.1 4.8-5.9 9.5.8 3.1 3.4 4.2 6.1 4.8 1.7.4 3.4.7 5.1 1.2 1.9.6 2.6 1.7 2.6 3.4 0 1.9-.9 3.1-2.7 3.8-3.3 1.3-7.8-.4-8.7-3.5-.1-.3-.8-.7-1.2-.6-.9.2-1.9 0-2.4 1-.1.1.1.4.1.5.4 1.5 1.2 2.8 2.4 3.8 3.1 2.5 6.7 2.9 10.4 2 5.1-1.2 6.8-5.4 5.5-9.9-.8-3-3.1-4.3-6-4.9-2-.4-3.9-.8-5.9-1.4-1.2-.3-1.9-1.2-2.1-2.5-.1-1.5.1-2.7 1.5-3.6 2.4-1.6 6-.8 7.6 1.6 1 1.6 1 1.6 2.8 1.1 1.3-.3 1.4-.6.9-1.8-1.3-3.2-4.1-4.9-8.3-5-.4.3-1.1.3-1.8.5zm-39.1 4V7.6c0-.3-.2-.8-.3-.9-.9-.1-1.8-.2-2.6-.1-.2 0-.5.9-.5 1.4v21.8c0 2.2 0 2.2 2.1 2.2 1.6 0 1.6 0 1.6-1.5 0-4.2-.1-8.4 0-12.6.1-2.9.7-5.5 3.2-7.4 2.7-2 5.7-1 6.6 2.3.3 1.2.4 2.4.4 3.6.1 4.4 0 8.9 0 13.3 0 2.4-.4 2.3 2.4 2.3 1 0 1.3-.3 1.3-1.3V18.1c0-1.9 0-3.7-.3-5.6-.4-3.4-2.6-5.9-5.6-6.4-3.2-.6-5.9.7-7.7 3.7-.1.2-.2.4-.3.5h-.3zM211 24.7c-.1-.3-.2-.7-.4-1-1.6-5.2-3.2-10.5-4.8-15.8-.3-1-.8-1.4-1.7-1.3h-.8c-1.6 0-1.7.1-1.2 1.6l6.7 22.2c.1.5.4 1.1.3 1.5-.4 1.4-.9 2.8-1.5 4.2-.8 1.6-2.3 2.1-4.1 1.8-.6-.1-1.2-.4-1.5.5-.3 1 0 2.2.6 2.5 1.5.7 4.8.2 6-.9 1.4-1.3 2.1-2.9 2.7-4.7 1.6-5.1 3.2-10.2 4.7-15.3 1.2-4 2.5-7.9 3.6-11.9.1-.4 0-1.1-.2-1.2-1-.7-2.6 0-3 1.1l-2.3 7.3c-1 3.1-2 6.3-3.1 9.4zm93.4-7.3c0 3.3 0 6.6.2 9.8.2 3.2 2 5 5.1 5.4 1.1.1 2.1-.1 3.2-.1 1.2-.1 1.4-.5 1.3-2.1-.1-1.1-.8-1-1.6-.9-3.1.5-4.4-.7-4.4-3.8V10.8c0-.4 0-.7.1-1.1h3.5c1.3.1 1.2-.8 1.2-1.6 0-.9-.1-1.6-1.3-1.5-1.2.1-2.4 0-3.6 0V2.4c0-2.6 0-2.6-2.6-2.3-.8.1-1.2.4-1.2 1.4.1 1.7 0 3.3 0 5.1h-2.7c-1.1-.1-1.2.6-1.2 1.4 0 .8-.1 1.7 1.1 1.7h2.7c.2 2.6.2 5.1.2 7.7zM86.5 36.7c.7-.1 1.4-.2 2.1-.2 2.2-.1 4.4-.3 6.6-.1 2 .1 2.7 1 2.2 3-.6 2.4-1.5 4.8-2.2 7.3-.1.3-.2.7-.3 1.3l.9-.5c3.3-3.1 4.7-7.1 5.1-11.5.1-1-.4-1.8-1.5-2-4-.9-7.9-.6-11.6 1.3-.5.3-1 .7-1.4 1.1-.1 0 0 .2.1.3z"/></svg>