<svg xmlns="http://www.w3.org/2000/svg" width="205.7" height="70.4" viewBox="0 0 205.7 70.4"><path d="M175.1 0v3.5L173 0h-15.2v3.5L155.7 0H135c-4.2 0-7.2.6-8.9 1.8V0h-14.5v1.8C110.3.6 108.2 0 105.4 0H53.1l-3.4 8-3.9-8H29.5v3.5l-2-3.5H13.6L7 14.9 0 31.6h16.3l2.1-5.3H23l2 5.3h18.1v-4.1l1.7 4.1h9.4l1.7-4.2v4.2H101v-8.4h.8c.5 0 .7.4.7 1.1v7.3H126v-2.1c2.2 1.4 5 2.1 8.6 2.1h9.8l2-5.3h4.6l2.2 5.3h19.1v-5.1l2.8 5.1h15.2V0h-15.2zM65.3 27h-5.5V9.1L51.9 27h-4.6L39.4 9.1V27h-11l-2-5.1H15L13 27H7.3l9.6-22.6h8L34 25.6V4.3h8.7l7 15.5 6.6-15.5h8.9l.1 22.7zM87.5 9.1H74.7v4.1h12.5v4.6H74.7v4.4h12.8V27H69.2V4.3h18.3v4.8zm24.2 9.3c.6.8.8 2.2.8 3.9V27H107v-5.2c0-.3 0-.6-.1-1s-.3-.7-.6-1c-.6-.6-2-1-4.1-1h-5.6V27h-5.5V4.3h12.4c3.3 0 5.4.4 6.5 1.1 2 1.1 3 2.8 3 5.1 0 2.7-1.3 4.7-3.9 5.9.6.3 1.5 1 2.6 2zm9.8 8.6H116V4.3h5.5V27zm64 0h-7.7l-10.4-17v17h-10.7l-2.1-5.1h-11.3l-2.2 5.1h-6.2c-3.6 0-6.3-.8-8.1-2.5-1.7-2.4-2.5-5.4-2.5-8.7 0-3.8.9-6.7 2.8-8.7 1.7-1.8 4.5-2.7 8.3-2.7h5.2v4.8h-5.3c-1.5 0-2.9.5-4.2 1.4-.9 1-1.4 2.7-1.4 5.1 0 2.6.5 4.4 1.4 5.3.7.7 2 1.1 3.8 1.1h2.4L145 4.4h7.9l9 21.2V4.3h8.4l9.6 15.8V4.3h5.6V27zM20.8 8.4l3.7 8.9h-7.6l3.9-8.9zm131.8 8.9h-7.5l3.7-8.9 3.8 8.9zm-49.5-8.2c1.4 0 2.3.1 2.7.4.6.2 1 .9 1 2.1 0 1.1-.3 1.8-1 2-.5.4-1.4.6-2.7.6h-6.5V9.1h6.5zM203.2 54l-.6-15.5h-13.4c-2.8 0-5.1.7-6.7 2.1v-2.1h-14.6c-2.8 0-5 .7-6.6 2.1v-2.1H135v2.1c-1.7-1.4-4.2-2.1-7.4-2.1h-17.4v2.1c-1.1-1.4-3.6-2.1-7.4-2.1H83.4l-4.8 5.1-4.1-5.1h-29v31.8h28.4l4.6-4.6 4.2 4.6h17.9v-7.4h1.7c3.3 0 5.8-.4 7.4-1.1v8.6h14.6V62h.7c.4 0 .6 0 .7.1l.3.3c.1.1.1.3.1.7v7.3h44c3.3 0 5.6-.7 7-2.1v2.1h14.1c.4.1.8 0 1.3-.1.5.1 1 .1 1.4.1 6.5 0 11.8-4.5 11.8-10 0-2.5-.9-4.7-2.5-6.4zm-101 4.2h-6.7v7.7H85.1l-6.8-7.6-6.7 7.6H50.1V43.1h21.8l6.5 7.4 7-7.4h17.3c2.4 0 4.6.6 6.3 1.7 1.8 1.1 2.7 3 2.7 5.8 0 5.1-3.2 7.6-9.5 7.6zm32.7-1c.7 1.3 1 2.7 1 4.1v4.6h-5.5v-3c0-2.2-.3-3.8-.8-4.5-.8-.8-2.1-1.1-3.9-1.1h-5.8v8.6h-5.6V43.1h12.1c2.9 0 5.2.4 6.8 1.1 1.9 1 2.8 2.7 2.8 5.1 0 1-.2 2-.7 3-.5.9-1 1.6-1.5 2.1-.6.5-1.1.8-1.5 1 .2 0 1.1.6 2.6 1.8zm22.2-9.1h-12.8V52h12.5v4.7h-12.5v4.5h12.8V66h-18V43.2h18v4.9zm20 16c-1.5 1.2-3.6 1.8-6.3 1.8h-10.5v-5.1h10.4c1 0 1.7-.1 2.1-.4.4-.3.6-.7.6-1.3 0-1-.2-1.6-.6-1.8-.3-.3-.9-.4-1.8-.4h-1.7c-.8 0-1.4 0-1.8-.1-.4-.1-.9-.2-1.7-.3-.8-.1-1.3-.2-1.7-.3-.4-.1-.8-.3-1.4-.6-.6-.3-1-.6-1.3-.8s-.6-.7-1-1.1c-.4-.5-.6-1-.7-1.7-.1-.7-.1-1.4-.1-2.2-.1-1.8.5-3.3 1.8-4.6 1.3-1.3 3.3-2 5.9-2h10.8v4.9h-10c-1 0-1.7.1-2.1.3-.6.5-.8 1-.8 1.7 0 .8.3 1.4 1 1.5.8.3 1.5.4 2.1.4h3.1c2.3 0 4.5.6 6.3 1.8.9 1.2 1.4 2.8 1.4 4.8.2 2.5-.5 4.3-2 5.5zm14.7 1.8h-10.4v-5.1h10.4c1 0 1.7-.1 2-.4.6-.4.8-.8.8-1.3 0-1-.3-1.6-.8-1.8-.3-.3-.8-.4-1.7-.4h-1.7c-.9 0-1.5 0-1.8-.1s-.8-.2-1.7-.3c-.8-.1-1.4-.2-1.7-.3-.3-.1-.8-.3-1.4-.6-.7-.3-1.1-.6-1.4-.8-.3-.3-.6-.7-.8-1.1-.3-.5-.5-1-.7-1.7s-.3-1.4-.3-2.2c-.1-1.8.6-3.3 2-4.6 1.4-1.3 3.4-2 6-2h10.6v4.9h-9.9c-1.1 0-1.8.1-2.1.3-.6.7-.8 1.3-.8 1.7 0 .8.4 1.4 1.1 1.5.6.3 1.3.4 2.2.4h2.8c2.4 0 4.5.6 6.3 1.8.9 1.1 1.4 2.7 1.4 4.8.1 4.9-2.8 7.3-8.4 7.3zM82 54.7l8.3-9v18l-8.3-9zm-13-6.6l5.8 6.6-6 6.5H55.4v-4.5h12V52h-12v-3.9H69zm33.7 0c2.1 0 3.1.8 3.1 2.5 0 2.1-1 3.1-3.1 3.1h-7.2v-5.6h7.2zm23.6 0c1.3 0 2.2.1 2.5.3.7.5 1.1 1.1 1.1 1.8 0 1-.4 1.8-1.1 2.4-.3.1-1.1.2-2.5.4h-6.5v-4.9h6.5z"/></svg>