<svg xmlns="http://www.w3.org/2000/svg" width="181.4" height="46.8" viewBox="0 0 181.4 46.8"><path d="M25.5 25.7h10.9l-5.5-13.5-5.4 13.5zm86.6-12.1v6.1h17.6v6.9h-17.6v6.7h19.6l9.3-9.9-8.9-9.7h-20v-.1zM152.9 0l-6.6 7.1-6.2-7.1h-61l-5.2 12.1L68.5 0H44.1v5.5L41.4 0H20.5L0 46.7h24.5l3-7.5h7l3 7.5h27V41l2.4 5.7h14l2.4-5.8v5.8h56.1l6.8-7.3 6.4 7.3 28.8.1-20.5-23.3L181.4 0h-28.5zm-56 40.2H89l-.1-26.3-11.6 26.3h-7.1L58.6 13.9v26.3H42.3l-3.1-7.5H22.5l-3.1 7.5h-8.7L25 6.7h11.9l13.6 31.7V6.7h13.1l10.5 22.7 9.7-22.7h13l.1 33.5zm69.3 0h-10.3l-9.8-11.1-10.2 11.1h-31.7V6.7h32.2l9.8 11 10.2-11h9.9l-15 16.9 14.9 16.6z"/></svg>