<svg xmlns="http://www.w3.org/2000/svg" width="266.1" height="35" viewBox="0 0 266.1 35"><path d="M208.4 11.2c-.1.6-.1.8-.1 1.1 0 4.8 0 9.6.1 14.4 0 1.2.2 2.3.3 3.5.2 1.4 1.1 2.2 2.6 2.5.5.1.9 0 1.3.2.3.1.6.5.6.8 0 .2-.4.6-.7.6h-10.4c-.2 0-.7-.4-.7-.5.1-.3.3-.7.6-.9.2-.2.5-.1.8-.2 1.4-.3 2.2-1.1 2.3-2.5.2-4.3.4-8.6.5-12.9.1-2.9 0-5.8-.1-8.7-.1-2.3-1.3-3.6-3.6-3.9-.2 0-.5 0-.6-.1-.3-.3-.6-.6-.6-.9 0-.2.5-.6.7-.6h7.2c.3 0 .7.2.9.4 5.2 6 10.4 12 15.5 18.1l2.6 3 .3-.1.1-1.2-.3-14.1c0-.2 0-.5-.1-.7-.3-2.9-.8-3.4-3.6-3.8-.2 0-.6 0-.7-.2-.2-.2-.5-.6-.5-.9 0-.2.4-.6.6-.6h10.7c.2 0 .7.4.7.5-.1.3-.3.8-.5.9-3.2 1.1-3.4 1.3-3.4 4.7-.1 8.1-.3 16.2-.3 24.3 0 1-.3 1.3-1.3 1.3-1.2 0-1.9-.3-2.7-1.2l-17.2-21.2c-.3-.3-.6-.6-1-1.1zM76.9.4c-2.1.4-4.2.7-6.3 1.2-.3.1-.7.5-.7.8 0 .2.4.7.7.7 2.2.3 2.4.6 2.4 2.7v23.3c0 2.9 0 2.9-2.8 3.6h-.1c-.2.3-.5.6-.6.9 0 .2.5.6.7.6h10.1c.3 0 .8-.4.8-.5-.1-.4-.3-.9-.6-1-1.2-.3-1.6-1-1.6-2.1V18.5c0-.4.1-.8.3-1.1.9-1.1 3.2-1.7 4.6-1.2 1.7.6 2.5 1.8 2.6 3.5.1 3.7 0 7.5 0 11.2 0 1-.5 1.7-1.5 1.8-.6.1-1 .3-1 1 0 .8.6.6 1.1.6h9.2c.5 0 1 .2 1.1-.6 0-.7-.4-.9-1-1-1.5-.3-1.9-.8-1.9-2.4v-9.8c0-.9-.1-1.8-.2-2.7-.4-2.8-2.4-4.8-5-5.2-2.7-.4-5.1.3-7.2 2-.3.2-.5.4-1 .8V0c-.8.2-1.5.3-2.1.4zM.4 34.3h9.7c.2 0 .6-.3.6-.5 0-.3-.2-.7-.4-1-.2-.2-.5-.1-.8-.2-1.7-.2-2.2-.8-1.7-2.5.5-1.8 1.1-3.6 1.7-5.4.2-.7.6-.9 1.3-.9h6.8c.7 0 1 .2 1.3.9l1.9 4.9c.9 2.3.7 2.5-1.7 3.1-.3.1-.6.6-.7.9-.1.6.3.6.8.6h11.6c.3 0 .6-.3.8-.5-.2-.3-.4-.9-.7-1-2.1-.2-3.1-1.7-3.7-3.4-1.2-2.9-2.3-5.9-3.3-8.9-2.1-5.7-4.1-11.4-6.1-17.2-.1-.3-.4-.7-.7-.8-.8-.2-2.1.6-2.4 1.4L9 18.2C7.5 22 6 25.8 4.4 29.7c-.7 1.6-1.7 2.8-3.6 2.9-1 .1-.8.8-.7 1.4.1.2.2.3.3.3zM16 16.8c.4 1.2.8 2.5 1.3 3.7.3.7.2 1.1-.7 1.1h-5.2c-.5 0-.9-.1-.7-.7l.2-.7 2.9-8.3h.3c.7 1.5 1.4 3.2 1.9 4.9zm29.5 17.3c0 .6.2.9.9.7.7-.2 1.4-.4 2.2-.5 1.8-.4 3.5-.7 5.3-1 .6-.1.9-.3.7-.9-.1-.3-.5-.5-.8-.6-.2-.1-.5-.1-.7-.1-1.4-.2-1.6-.4-1.6-1.8v-16c0-1-.3-1.2-1.3-1.1-2.2.3-4.4.5-6.6.7-.4 0-1 .3-1.1.7-.3.7.4.8.9.9 1.8.4 2.1.7 2.1 2.7 0 3.2-.1 6.5.1 9.7.1 1.7-.7 2.6-2.1 3.2l-.9.4c-2.2.7-4.1-.4-4.4-2.7-.1-.9-.2-1.9-.2-2.8V13.8c0-.5.2-1.1-.7-1l-7.3.8c-.2 0-.6.4-.6.6 0 .3.2.6.5.8.2.1.5.2.7.2 1.1.1 1.6.8 1.6 1.9v3.8c0 3-.1 5.9.1 8.9.2 2.7 2.1 4.6 4.7 5 2.3.4 4.3-.3 6.2-1.6.7-.5 1.4-.9 2.4-1.6-.1 1-.1 1.8-.1 2.5zm73-10.7c0-6.3-4.5-10.8-10.8-10.8-6.6 0-11.5 5-11.5 11.7 0 6.3 4.6 10.7 11.1 10.7 6.7-.1 11.2-4.7 11.2-11.6zm-7.5 7c-.3 1.3-1.3 2.3-2.7 2.5-1.3.2-2.3-.5-3.1-1.6-1.2-1.5-1.7-3.2-1.9-5.1-.4-2.7-.6-5.4.2-8 .3-1 .8-2 1.5-2.7 1.2-1.4 2.9-1.4 4.3-.1 1.8 1.6 2.2 3.8 2.5 6 .2 1.1.1 2.2.2 3.3.1 0 .2 0 .2.1-.5 1.8-.8 3.8-1.2 5.6zm78.8-.1c.2-.2 0-.7 0-1.1-.3 0-.7 0-1 .1l-1.4.7c-4.5 2-9.2-.5-9.9-5.3-.3-2.1-.3-2.1 1.8-2.2l9.6-.6c1.3-.1 1.5-.4 1.4-1.7-.1-1-.2-2.1-.5-3-1.7-4.1-6.1-5.8-10.5-4.2-5 1.9-8.3 7.3-7.5 13.2.7 5.1 4.6 8.5 9.8 8.5 3.5.1 6.2-1.6 8.2-4.4zm-11.5-9.8c-.6 0-.9-.2-.7-.8.4-1.6.9-3.1 2.2-4.2 1.1-1 2.2-1 3.3-.1 1.1.9 1.6 2.2 1.8 3.6.1.9-.3 1.4-1.2 1.4h-2.6v.1h-2.8zM241 34.8c4.1.5 7-1.4 9.4-4.5.2-.2 0-.7 0-1.1-.3 0-.7 0-1 .1-.5.2-1 .5-1.5.8-4.3 1.9-8.8-.3-9.7-4.9-.4-2.2-.8-2.4 1.9-2.6 3.2-.2 6.4-.4 9.7-.6.9-.1 1.2-.6 1.2-1.4.2-5.3-4.7-9.1-9.9-7.7-5.4 1.4-8.8 6-8.8 11.8-.1 5.5 3.3 9.5 8.7 10.1zm-2.2-14.3c-.5 0-.8-.2-.7-.8.4-1.6.9-3.1 2.1-4.3 1.1-1 2.2-1 3.3 0 1 1 1.6 2.2 1.8 3.6.1.9-.3 1.4-1.3 1.4h-2.5v.1h-2.7zm-78.7 10.6c3.3-5.4 6.5-10.8 9.7-16.3.2-.4.3-.9.4-1.4-.5-.1-1-.4-1.5-.4H157c-.6 0-1.2-.2-1.7-.5-1-.6-1.4-.5-1.7.6l-1.2 4.9c-.2.6-.4 1.1.5 1.4.8.3 1.2.1 1.4-.6.2-.5.4-.9.6-1.3.6-1.2 1.6-2.1 3-2.2l4.3-.2c.2 0 .4.1.6.3-.3.6-.6 1-.9 1.5-3.3 5.3-6.6 10.6-9.9 16-.7 1.1-.5 1.5.7 1.5h15.9c.6 0 1-.2 1.2-.8.5-1.4 1-2.8 1.5-4.1.4-.8 0-1.1-.7-1.4s-.9.2-1.2.6c-.8 1.3-1.6 2.6-3.1 3.2-2.2.8-4.6.4-7.2.5.6-.7.8-1 1-1.3zm104.3.3c-1.7.6-3.2-.1-3.7-1.8-.2-.6-.3-1.2-.3-1.9V16.5c0-.7.3-1 1-1h3c.8 0 1.3-.6 1.3-1.5-.1-.7-.4-1.1-1.2-1.1h-3c-.8 0-1-.3-1-1.1V7.4c0-.3-.2-.9-.4-1-.3-.1-.8.1-1.1.3l-2.4 1.7c-1.3.8-2.4 1.7-2 3.5.1.7-.3.9-.9.9-.5 0-1.1.2-1.4.6-.4.4-.6 1.1-1 1.6.6.1 1.2.3 1.8.3 1.5.1 1.5 0 1.5 1.6v12.6c0 3.4 1.9 5.2 5.3 5.2.9 0 1.8-.3 2.6-.6l2.7-1.3c1.2-.6 1.2-.7.3-1.9-.4.2-.8.4-1.1.5zM57.3 29.1c.1 4 1.9 5.9 5.8 5.8 2.2-.1 3.8-1.5 5.7-2.4.1-.1.2-.4.2-.6-.2-.8-.6-.9-1.4-.6-1.9.8-3.4.1-4-1.8-.2-.6-.3-1.2-.3-1.9V16.4c0-.7.3-1 .9-.9h3.2c1 0 1.1-.7 1.1-1.5 0-.7-.4-1.1-1.1-1.1h-2.6c-1.4 0-1.4 0-1.4-1.4v-4c0-.4-.2-1-.4-1.1-.4-.1-.9.1-1.2.3-1.1.8-2.1 1.7-3.2 2.4-.9.6-1.3 1.3-1.1 2.3.1 1-.1 1.4-1.3 1.6-.7.1-1.7 1.2-1.8 1.9-.1.8 1 .4 1.6.5h.3c.9-.1 1.2.3 1.2 1.2v6.2c-.2 2.2-.2 4.3-.2 6.3zm71.6-12.4V14c0-1.5 0-1.5-1.5-1.2-2.2.5-4.3.8-6.5 1.2-.5.1-1.1.1-1.1.9s.6.7 1.1.8c.8.1 1.7.3 1.9 1.3.1.6.2 1.3.2 1.9 0 3.4.1 6.9 0 10.3-.1 2.6-.1 3.4-2.7 3.6h-.1c-.2.3-.5.6-.5 1 0 .1.4.5.7.5H132c.3 0 .5-.4.8-.6-.2-.3-.4-.7-.7-.9-.2-.1-.5-.1-.7-.1-1.9-.2-2.5-.8-2.5-2.7v-8.8c0-1.4.4-2.6 1.6-3.3s2.2-.1 3.2.6c.9.7 1.8.5 2.6-.2 1.5-1.2 1.8-3.2.8-4.6-1-1.4-3.2-1.7-4.7-.5-.9.7-1.6 1.7-2.4 2.6-.3.3-.5.6-.8 1-.1-.1-.2-.1-.3-.1zm18.5-3.2c0-.7-.1-1-.9-.8-2.5.5-5 .9-7.4 1.5-.3.1-.5.5-.8.8.3.3.5.6.8.7.3.1.6.1.9.1.9.2 1.5.7 1.5 1.8v13.2c0 1.2-.5 1.8-1.7 2-.3 0-.6 0-.8.1-.3.2-.5.6-.6 1 0 .1.5.5.8.5h10.7c.3 0 .8-.3.9-.6.2-.6-.2-.9-.8-1-2.2-.5-2.5-.8-2.5-3V22c-.1-2.9-.1-5.7-.1-8.5zm48.1 21.4c2.2 0 3.8-1.5 3.8-3.8 0-2.1-1.7-3.8-3.7-3.8-2.1 0-3.6 1.6-3.6 3.8 0 2.4 1.3 3.8 3.5 3.8zm-47.9-30c0-2-1.5-3.6-3.5-3.6-1.9 0-3.5 1.6-3.5 3.5s1.5 3.5 3.5 3.5c1.9 0 3.5-1.4 3.5-3.4z"/></svg>