<svg xmlns="http://www.w3.org/2000/svg" width="180.1" height="98.1" viewBox="0 0 180.1 98.1"><path d="M27.3 0l1.5 1.1-.4.7c-1.2 2.4-.6 5.3 1.6 6.9 5.3 3.8 10.5 7.6 15.8 11.5 1.4 1 2.9 2.1 4.2 3.2 3.1 2.8 5 6.3 5.6 10.4.7 4.9-.5 9.2-3.4 13.2L40.5 63.1c0 .1-.1.1-.2.2l-1.5-1.1c.9-1.2 1.5-2.5 1.7-3.9.5-3.8-.7-6.9-3.9-9.2L21 37.8c-3.6-2.7-5.8-6.3-6.6-10.7-1-5.2.3-9.9 3.4-14.1 3.1-4.1 6-8.3 9-12.4.2-.3.3-.4.5-.6zM16.2 40.7c-2 2.8-4 5.6-6.1 8.4-1.9 2.6-2.7 5.6-2.3 8.8.5 3.4 2.1 6.2 4.9 8.2l12.1 8.8c.6.4 1.1 1 1.2 1.8.2.9 0 1.7-.5 2.5.6.5 1.2.9 1.8 1.3.1-.1.1-.2.2-.2 2.1-2.9 4.2-5.7 6.2-8.6 1.8-2.5 2.6-5.2 2.3-8.2-.3-3.3-1.7-6-4.2-8.1-2-1.6-4.1-3-6.2-4.6-2.2-1.6-4.5-3.2-6.7-4.9-1.1-.8-1.6-2-1.2-3.3l.4-1c-.6-.4-1.2-.8-1.8-1.3.1.1 0 .3-.1.4zm91.4 17.5c.8-.7 1.7-1.3 2.4-2.1 2.6-3 2.8-9.9-2.9-12.9-2.3-1.2-4.7-1.5-7.2-1.5h-16v35.1h17.7c2.1 0 4.3-.4 6.3-1.2 2.3-.9 4.2-2.4 5.2-4.7.7-1.8.8-3.6.6-5.5-.3-2.1-1.3-3.9-3-5.2l-3.1-2zm-16.2 4.6v-.3l.2-.1h9.6c1.1 0 2.2.2 3.2.8 1.3.8 1.7 2.1 1.6 3.5-.1 1.3-.8 2.3-2.1 2.7-.9.3-1.8.6-2.7.6-3.1.1-6.3 0-9.4 0h-.4v-7.2zm7.9-14.2c1 0 2 .2 3 .7 1.3.7 1.9 1.9 1.7 3.4-.2 1.6-1.2 2.6-2.9 3-.9.2-1.8.3-2.7.3h-6.5c-.3 0-.5-.1-.5-.4v-6.5c0-.3.1-.5.5-.5h7.4zm51 28.3h17.2c1.7 0 3.4-.2 5.1-.7 2.1-.6 4.1-1.5 5.6-3.2 1.6-1.9 2.1-4.2 1.9-6.6-.1-1.6-.5-3.1-1.4-4.4-1-1.5-2.5-2.4-4.1-3.1l-.9-.4c.1-.1.2-.2.3-.2 2.9-1.7 4.3-4.2 4.2-7.6-.1-3.4-1.7-5.9-4.6-7.5-2.2-1.2-4.7-1.5-7.2-1.5h-16.1v35.2zm7.6-14.5h9c1.3 0 2.5.1 3.6.7 1.4.7 2 1.9 1.9 3.4-.1 1.4-.7 2.5-2 3-.9.3-1.9.6-2.8.6-3.1.1-6.3 0-9.5 0h-.3c.1-2.6.1-5.1.1-7.7zm0-13.8h8c1.1 0 2.2.2 3.2.8 2 1.3 1.9 4.5-.2 5.7-1.1.6-2.3.8-3.5.8h-7.5v-7.3zm-17.1 9.7c3.3-2 4.6-5 4.1-8.8-.4-3.2-2.3-5.3-5.2-6.6-2.2-1-4.5-1.2-6.9-1.2h-15.6v35.2h17.297c1.8 0 3.6-.2 5.3-.7 2.2-.7 4.3-1.7 5.7-3.7 1.5-2.2 1.8-4.6 1.4-7.2-.3-2-1.2-3.7-2.8-4.8-1.1-.8-2.3-1.4-3.4-2.1l.1-.1zm-15.6 4.1h8.6c1.2 0 2.4.1 3.5.7 1.4.7 2 1.8 1.9 3.4-.1 1.4-.7 2.5-2.1 3-.9.3-2 .6-2.9.6-3 .1-6.1 0-9.1 0-.4 0-.5-.1-.5-.5v-7.19h.6zm-.6-13.8h7.9c1.2 0 2.3.3 3.3.9 1.8 1.2 1.9 4.6-.4 5.7-1.1.5-2.3.7-3.5.8h-7.4c.1-2.5.1-4.9.1-7.4zm-70 40.6L53 84c-.1-.4-.3-.5-.7-.5h-50c-.4 0-.6.1-.7.5-.5 1.6-1 3.2-1.4 4.8-.1.3-.2.5-.2.9h13.1c.4 0 .5.1.6.5l2.3 7.5c.1.3.2.4.5.4h21.6c.3 0 .4-.1.5-.4.8-2.5 1.6-5.1 2.3-7.6.1-.3.2-.4.6-.4h13.2c-.1-.3-.1-.4-.1-.5z"/></svg>