<svg xmlns="http://www.w3.org/2000/svg" width="179.3" height="76.5" viewBox="0 0 179.3 76.5"><path d="M0 0c1.8.4 3.6.8 5.5 1.2 6.6 1.5 13.2 3 19.7 4.5l22.7 5.2c.3.1.7.2 1 .2.3.1.4.2.4.6v14.6h-4.5v-10c0-.3-.1-.4-.3-.4-5.5-.9-11-1.8-16.4-2.7-6.1-1-12.2-2-18.2-3.1l-1.8-.3V67l1.6-.3 15.5-2.6 15.3-2.6 4-.7c.3 0 .3-.2.3-.5V47h4.5v18.3L.1 76.5C0 51.1 0 25.6 0 0zm37.1 21.6h-14v14h14v8.8h15.3V29.2H37.2c-.1-2.6-.1-5.1-.1-7.6zm24.5 15.1H74V24.5H61.6v-9h-9.1v9.1h9.1v12.1zM97 56.9c3.5 0 7 .1 10.6.1 2 0 4-.2 6-.8 7.3-2.1 7.9-10.8 4.3-14.7-.5-.5-1-1-1.6-1.5 1.9-2 2.5-4.4 2.3-7.1-.2-2.5-1.1-4.6-3.2-6.1s-4.4-2-6.9-2.1c-3.1-.1-6.2-.1-9.3-.1-.9 0-1.8.2-2.6.3v31.9c.2.1.3.1.4.1zm5.2-13.6h.4c2.2 0 4.3 0 6.5.1 1.1.1 2.2.4 3.2.8 2.2 1 2.8 4 1.3 5.8-.7.8-1.8 1.3-2.8 1.3-2.8.2-5.7.3-8.6.4v-8.4zm4.5-13c1.4 0 2.8.1 4.1.5 1.3.4 2.1 1.2 2.2 2.6.1 1.7-.4 3-1.7 3.6-.9.4-2 .7-2.9.7-2.1.1-4.1 0-6.2 0v-7.4h4.5zm50 20.7c1.4 3.1 3.7 5.2 7.1 6.1 3 .8 6 .8 8.9-.2 4-1.3 6.3-4 6.6-8.3.2-3.9-1.2-7.1-5-8.9-1.6-.8-3.3-1.3-5-2-1.6-.6-3.2-1.2-4.8-2-1.2-.5-1.7-1.6-1.6-2.9.1-1.4.9-2.2 2.1-2.7 1.3-.5 2.7-.6 4.1-.3 1.9.4 3 1.7 3.8 3.3l1.3 2.9 5.1-1.8c-.6-1.4-1.1-2.8-1.7-4.1-.9-1.9-2.4-3.4-4.2-4.5-3.5-2.1-7.2-2-10.8-.6-3.6 1.4-5.3 4.2-5.4 8-.1 3.3 1.4 5.9 4.3 7.4 1.5.8 3.2 1.3 4.7 2 1.9.8 3.8 1.5 5.7 2.4 1.3.6 1.7 1.8 1.6 3.2 0 1.4-.6 2.5-1.8 3.1-1.9 1-4 1-6.1.6-1.7-.3-3-1.3-3.8-2.9-.3-.5-.5-1.1-.7-1.6-.3-.9-.6-1.8-.9-2.8l-5.4 1.9c.8 1.7 1.3 3.2 1.9 4.7zm-24.1 5.9h5.6V43.5h5.1c2.3 0 4.6-.4 6.7-1.5 5.5-2.8 6.4-10.6 1.8-14.6-2.1-1.8-4.6-2.6-7.4-2.7-3-.1-6-.1-9-.1l-2.7.2c-.1 10.9-.1 21.5-.1 32.1zm5.6-26.6c.1 0 .1-.1.1-.1 2.4.1 4.8 0 7.2.2 1.8.1 3.2 1.4 3.5 3 .3 1.6-.3 3.1-1.8 3.7-1 .4-2.1.7-3.2.8-1.9.1-3.9 0-5.9 0 .1-2.5.1-5 .1-7.6zM36.8 45.7h-9.3V55h9.3v-9.3zM61.5 55v-9.1h-9.1V55h9.1zm66.8 1.9V24.7h-5.5v32.2h5.5zM81.2 8.2h-6.8V15h6.8V8.2z"/></svg>