<svg xmlns="http://www.w3.org/2000/svg" width="42.1" height="58.1" viewBox="0 0 42.1 58.1"><path d="M38.9 17.9c.4 4.2-1.1 7.2-4.6 9 2.7.7 4.8 1.9 6.1 3.6 1.4 1.7 1.9 4.2 1.6 7.5-.2 1.7-.5 3.1-1.1 4.4-.6 1.3-1.3 2.3-2.3 3.1-.9.8-2 1.5-3.4 2-1.3.5-2.8.9-4.2 1.2-1.5.3-3.2.4-5.1.5v8.9h-5.4v-8.8h-4.3v8.8h-5.4v-8.9H0l1.1-6.4H5c1.2 0 1.8-.6 2-1.8V27h.6H7V17c-.3-1.6-1.3-2.4-3.1-2.4H0V8.9h10.8V.1h5.4v8.6c1.9 0 3.3-.1 4.3-.1V0h5.4v8.8c1.8.2 3.5.4 4.9.8 1.4.4 2.7.9 3.9 1.6 1.2.7 2.2 1.6 2.9 2.7.7 1.1 1.1 2.4 1.3 4zm-7.5 19c0-.8-.2-1.6-.5-2.2-.4-.7-.8-1.2-1.3-1.6s-1.2-.8-2-1.1c-.8-.3-1.6-.5-2.3-.6-.7-.1-1.6-.2-2.6-.3s-1.8-.1-2.4-.1h-4v11.8h3c.4 0 1.1 0 1.8-.1.8 0 1.5-.1 2-.1.6-.1 1.2-.2 2-.3.8-.1 1.4-.3 1.9-.5s1.1-.4 1.7-.7c.6-.3 1-.7 1.4-1 .3-.4.6-.9.9-1.4.2-.5.4-1.1.4-1.8zm-2.5-16.6c0-.8-.1-1.5-.4-2-.3-.6-.6-1.1-1.1-1.5-.4-.4-1-.7-1.7-1-.7-.3-1.3-.5-1.9-.6-.6-.1-1.3-.2-2.1-.3-.8-.1-1.5-.1-2-.1h-3.3v10.7h2.8c.4 0 1 0 1.7-.1.8 0 1.4-.1 1.9-.2s1.1-.2 1.8-.4 1.3-.4 1.7-.6l1.3-.9c.4-.4.7-.8.9-1.3.3-.5.4-1.1.4-1.7z"/></svg>