<svg xmlns="http://www.w3.org/2000/svg" width="226" height="52" viewBox="0 0 226 52"><path d="M78.7 15.8c1.8 0 3.3.3 4.7.9 1.3.6 2.4 1.5 3.3 2.6.9 1.1 1.5 2.4 1.9 3.8.4 1.5.6 3 .6 4.7 0 2.6-.5 5-1.4 7.3-1 2.3-2.2 4.3-3.9 6-1.6 1.7-3.6 3-5.8 4s-4.7 1.5-7.3 1.5H69c-.8 0-1.8-.1-2.9-.2-1.1-.1-2.2-.4-3.5-.7-1.2-.3-2.4-.7-3.5-1.2l9.7-40.7 8.7-1.3L74 17c.7-.3 1.5-.6 2.2-.8.7-.2 1.6-.4 2.5-.4zm-7.3 24c1.3 0 2.5-.3 3.7-1 1.2-.6 2.2-1.5 3-2.5.8-1.1 1.5-2.3 2-3.6.5-1.3.7-2.7.7-4.2 0-1.8-.3-3.2-.9-4.2s-1.7-1.5-3.3-1.5c-.5 0-1.2.1-2 .3-.8.2-1.6.6-2.3 1.2l-3.7 15.4.6.1s.3.1.5.1h.7c.3-.1.6-.1 1-.1zm26.7 6.1h-8.3l7-29.5h8.3l-7 29.5zm4.1-33.1c-1.2 0-2.2-.3-3.1-1-.9-.7-1.4-1.7-1.4-3.2 0-.8.2-1.5.5-2.2s.7-1.3 1.3-1.8c.5-.5 1.1-.9 1.8-1.2.7-.3 1.4-.5 2.2-.5 1.2 0 2.2.3 3.1 1 .9.7 1.4 1.7 1.4 3.2 0 .8-.2 1.5-.5 2.2-.3.7-.7 1.3-1.3 1.8-.5.5-1.1.9-1.8 1.2-.7.4-1.4.5-2.2.5zm10.3-3.7l8.7-1.3-2.1 8.7h9.3l-1.7 6.8h-9.3l-2.5 10.3c-.2.9-.4 1.7-.4 2.4 0 .8.1 1.4.3 1.9.2.5.6 1 1.2 1.3.6.3 1.4.5 2.5.5.9 0 1.8-.1 2.6-.3s1.7-.4 2.5-.7l.6 6.4c-1.1.4-2.3.8-3.6 1.1-1.3.3-2.9.5-4.7.5-2.6 0-4.6-.4-6-1.1-1.4-.8-2.4-1.8-3-3.1-.6-1.3-.9-2.8-.8-4.6.1-1.7.3-3.5.8-5.4l5.6-23.4zM128 34.2c0-2.5.4-4.9 1.2-7.2.8-2.2 2-4.2 3.5-5.9 1.5-1.7 3.4-3 5.6-4 2.2-1 4.6-1.5 7.3-1.5 1.7 0 3.2.2 4.5.5 1.3.3 2.5.7 3.6 1.3l-2.9 6.5c-.8-.3-1.5-.6-2.3-.8-.8-.2-1.8-.4-2.9-.4-2.8 0-5 .9-6.6 2.9-1.6 1.9-2.4 4.5-2.4 7.7 0 1.9.4 3.5 1.2 4.6.8 1.2 2.3 1.8 4.5 1.8 1.1 0 2.1-.1 3.1-.3s1.9-.5 2.7-.8l.6 6.7c-1.1.4-2.2.8-3.5 1.1s-2.8.5-4.5.5c-2.3 0-4.3-.3-5.9-1-1.6-.7-2.9-1.6-4-2.7s-1.8-2.5-2.3-4c-.3-1.8-.5-3.4-.5-5zm36.8 12.5c-2 0-3.7-.3-5.2-.9s-2.7-1.4-3.6-2.5c-1-1.1-1.7-2.4-2.2-3.8-.5-1.5-.7-3.1-.7-4.9 0-2.2.4-4.5 1.1-6.7.7-2.2 1.8-4.3 3.2-6 1.4-1.8 3.2-3.3 5.2-4.4s4.4-1.7 7.1-1.7c1.9 0 3.7.3 5.1.9 1.5.6 2.7 1.4 3.6 2.5.9 1.1 1.7 2.4 2.2 3.8.5 1.5.7 3.1.7 4.9 0 2.2-.4 4.5-1.1 6.7-.7 2.2-1.8 4.3-3.1 6.1-1.4 1.8-3.1 3.3-5.2 4.4-2 1-4.4 1.6-7.1 1.6zm4.2-24c-1.2 0-2.3.4-3.3 1.1-.9.7-1.7 1.6-2.4 2.7-.6 1.1-1.1 2.3-1.4 3.6-.3 1.3-.5 2.5-.5 3.7 0 1.9.3 3.3.9 4.4.6 1 1.7 1.6 3.3 1.6 1.2 0 2.3-.3 3.3-1.1.9-.7 1.7-1.6 2.4-2.7.6-1.1 1.1-2.3 1.4-3.6s.5-2.5.5-3.7c0-1.9-.3-3.3-.9-4.4-.7-1.1-1.8-1.6-3.3-1.6zm21.4 23.2h-8.3l7-29.5h8.3l-7 29.5zm4.1-33.1c-1.2 0-2.2-.3-3.1-1-.9-.7-1.4-1.7-1.4-3.2 0-.8.2-1.5.5-2.2s.7-1.3 1.3-1.8c.5-.5 1.1-.9 1.8-1.2.7-.3 1.4-.5 2.2-.5 1.2 0 2.2.3 3.1 1 .9.7 1.4 1.7 1.4 3.2 0 .8-.2 1.5-.5 2.2-.3.7-.7 1.3-1.3 1.8-.5.5-1.1.9-1.8 1.2-.7.4-1.4.5-2.2.5zm9 5c.6-.2 1.3-.4 2.1-.6.8-.2 1.6-.5 2.6-.7.9-.2 2-.4 3.2-.5s2.5-.2 4-.2c4.4 0 7.4 1.3 9.1 3.8s2 6 .9 10.4l-3.8 15.9h-8.3l3.7-15.6c.2-1 .4-1.9.5-2.8.1-.9.1-1.7 0-2.4-.2-.7-.5-1.3-1-1.7s-1.4-.6-2.5-.6-2.2.1-3.3.3l-5.4 22.8H197l6.5-28.1zM23.7 26.3l-1.6 6.3c1.9.5 7.9 2.4 8.8-1.1.9-3.8-5.3-4.7-7.2-5.2zm2.2-8.6l-1.4 5.7c1.6.4 6.6 2 7.4-1.2.7-3.3-4.4-4.1-6-4.5zM32.3.8C18.4-2.7 4.3 5.8.8 19.7c-3.5 13.9 5 28 18.9 31.5 13.9 3.5 28-5 31.5-18.9 3.4-14-5-28-18.9-31.5zm5.1 21.5c-.4 2.5-1.8 3.8-3.6 4.2 2.6 1.3 3.9 3.4 2.6 6.9-1.5 4.4-5.2 4.8-10.1 3.8l-1.2 4.7-2.8-.7 1.2-4.7c-.7-.2-1.5-.4-2.3-.6L20 40.6l-2.8-.7 1.2-4.7-2-.5-3.7-.9 1.4-3.3s2.1.6 2.1.5c.8.2 1.2-.3 1.3-.7l1.9-7.5.3.1-.3-.1 1.3-5.3c0-.6-.2-1.4-1.3-1.7l-2.1-.5.8-3 3.9 1c.6.2 1.2.3 1.8.4L25 9l2.8.7-1.1 4.6 2.3.5 1.1-4.6 2.8.7-1.2 4.7c3.6 1.4 6.3 3.2 5.7 6.7z"/></svg>