<svg xmlns="http://www.w3.org/2000/svg" width="73.8" height="73.8" viewBox="0 0 73.8 73.8"><path d="M33.7 37.3l-2.2 8.9c2.7.7 11.2 3.4 12.5-1.6 1.2-5.2-7.6-6.6-10.3-7.3zm3-12.1l-2 8.1c2.3.6 9.3 2.9 10.5-1.7 1.2-4.8-6.2-5.9-8.5-6.4zm9.1-24.1C26-3.8 6 8.2 1.1 28-3.8 47.8 8.2 67.8 28 72.7s39.8-7.1 44.7-26.9C77.6 26 65.6 6 45.8 1.1zm7.4 30.5c-.5 3.6-2.5 5.3-5.2 6 3.6 1.9 5.5 4.8 3.7 9.8-2.2 6.3-7.4 6.8-14.3 5.5l-1.7 6.7-4-1 1.6-6.6c-1-.3-2.1-.5-3.2-.8l-1.7 6.7-4-1 1.7-6.7c-.9-.2-1.9-.5-2.9-.7l-5.3-1.3 2-4.6s3 .8 2.9.7c1.1.3 1.7-.4 1.9-1l2.7-10.6.4.1c-.1-.1-.3-.1-.4-.1l1.9-7.6c0-.9-.3-1.9-1.9-2.4.1 0-2.9-.7-2.9-.7l1.1-4.3 5.6 1.4c.8.2 1.7.4 2.6.6l1.7-6.7 4 1-1.6 6.5 3.3.8 1.6-6.5 4 1-1.6 6.7c5 1.6 8.7 4.2 8 9.1z"/></svg>