<svg xmlns="http://www.w3.org/2000/svg" width="161.3" height="56.7" viewBox="0 0 161.3 56.7"><path d="M161.3 13.6h-8.4L148 34.1l-.7 2.8c-.5.1-.9.3-1.4.3-.9.2-1.7.3-2.7.3-1.1 0-1.9-.2-2.6-.5-.6-.3-1.1-.7-1.3-1.3-.3-.6-.3-1.2-.3-2s.2-1.6.4-2.5l2.6-10.6 1.7-7.1h-8.6l-3.9 16.4c-.5 2-.7 3.8-.8 5.6-.1 1.8.2 3.3.8 4.7.6 1.4 1.7 2.4 3.1 3.2 1.4.8 3.5 1.2 6.2 1.2 1.8 0 3.5-.2 4.8-.5h.2c-.4 1.7-1.2 3.1-2.3 4.1-1.2 1.1-3 1.6-5.4 1.6-1 0-2 0-2.8-.2l-1.7 6.9c1.1.1 2.3.2 3.7.2 2.6 0 4.8-.3 6.7-.9 1.9-.6 3.5-1.4 4.9-2.6 1.4-1.2 2.5-2.7 3.5-4.4.9-1.8 1.7-3.9 2.2-6.3l5.8-24.4 1.2-4.5zm-35.1 17.5c-.5 2.1-.7 4.3-.5 6.4.2 2.2 1.1 5.5 1.9 7.1h-8.1c-1-1.7-.9-2.5-1.1-3-1.1.9-2.2 1.6-3.5 2.1-1.3.6-2.7.9-4.3.9-1.9 0-3.5-.3-4.8-1-1.3-.6-2.4-1.5-3.3-2.6-.9-1.1-1.4-2.4-1.8-3.9-.4-1.5-.6-3.1-.6-4.8 0-2.6.5-5 1.4-7.3.9-2.3 2.2-4.3 3.8-6s5.6-5.5 12.1-5.5h13l-4.2 17.6zm-5.9-10.4c-3.9 0-4.6 0-6.3.8-1.2.6-2.1 1.5-2.9 2.5s-1.5 2.2-2 3.6-.7 2.8-.7 4.2c0 1.8.3 3.2.9 4.3s1.7 1.6 3.3 1.6c.9 0 1.7-.2 2.3-.5.7-.3 1.4-.9 2.2-1.7.1-.9.2-1.9.4-2.9s.4-2 .6-2.9l2.2-9m-22.5 5.2c0 2.8-.5 5.3-1.4 7.6-.9 2.3-2.2 4.3-3.8 5.9-1.6 1.7-3.5 2.9-5.8 3.9-2.3.9-4.7 1.4-7.3 1.4-1.3 0-2.6-.1-3.9-.3L73 54.7h-8.3l9.8-41h11.2c2.1 0 4 .3 5.5 1 1.5.6 2.8 1.5 3.8 2.6s1.7 2.4 2.2 3.9c.4 1.4.6 3 .6 4.7zM77.2 37.5c.6.2 1.4.2 2.4.2 1.5 0 2.8-.3 4-.8 1.2-.6 2.3-1.3 3.1-2.3.9-1 1.5-2.2 2-3.5.5-1.4.7-2.9.7-4.6 0-1.6-.3-3-1.1-4.1-.7-1.2-2-1.7-3.7-1.7h-3.3l-4.1 16.8zm-17.6 0c-1.1 0-1.9-.2-2.6-.5-.6-.3-1.1-.7-1.3-1.3-.3-.6-.3-1.2-.3-2s.2-1.6.4-2.5l2.6-10.7h9.5l1.7-7.1H60l2.2-8.9-8.9 1.4-5.7 23.9c-.5 2-.7 3.8-.8 5.6-.1 1.8.2 3.3.8 4.7.6 1.4 1.7 2.4 3.1 3.2 1.4.8 3.5 1.2 6.2 1.2 1.8 0 3.4-.2 4.8-.5.1 0 .3-.1.5-.1l1.7-7.3c-.6.2-1.2.3-1.7.4-.8.4-1.7.5-2.6.5zM38.2 13.6l-7.4 31.1h8.4l7.4-31.1h-8.4zm9.3-3.6l1.3-5.4h-8.4L39.1 10h8.4zm-27.8 3.6c1.8 0 3.4.3 4.7 1 1.3.7 2.4 1.5 3.3 2.6.9 1.1 1.5 2.4 1.9 3.8.4 1.4.6 3 .6 4.7 0 2.6-.5 5-1.4 7.4-1 2.3-2.3 4.3-3.9 6-1.7 1.7-3.6 3.1-5.9 4s-4.7 1.5-7.3 1.5H9.9c-.9 0-1.8-.1-2.9-.3-1.1-.2-2.3-.4-3.5-.7-1.2-.3-2.4-.7-3.5-1.2l9.8-41L18.5 0 15 14.5c.8-.3 1.4-.6 2.2-.8.8 0 1.6-.1 2.5-.1zm-7.4 24.1c1.3 0 2.6-.3 3.7-1 1.1-.6 2.2-1.5 3-2.6.9-1.1 1.5-2.3 2-3.6.5-1.4.7-2.8.7-4.2 0-1.8-.3-3.2-.9-4.2s-1.8-1.5-3.4-1.5c-.5 0-1.1 0-1.9.3-.9.2-1.6.6-2.3 1.2L9.5 37.6c1.1.2 1.4.2 1.7.2.4-.1.7-.1 1.1-.1z"/></svg>