<svg xmlns="http://www.w3.org/2000/svg" width="224.9" height="57.1" viewBox="0 0 224.9 57.1"><path d="M.1 55c.2-.6.8-.4 1.2-.5.3-.1.7-.1 1-.1.9-.2 1.5-.6 1.6-1.6s.3-2 .3-2.9v-21c0-.7 0-1.3-.2-2-.2-1.3-.6-1.6-1.9-1.8-.4-.1-.8-.1-1.3-.1s-.6-.3-.6-.7c0-.4.1-.7.6-.8 4-.1 8-.4 11.9-.4 2.5 0 5 .2 7.3 1 2.7 1 4.4 2.7 4.8 5.6.5 3-.6 5.2-3.3 6.8-.6.4-1.3.6-2 .9l-.5.3v.2c.3.1.6.2 1 .3 2.1.4 3.9 1.3 5.3 2.8 1.1 1.2 1.8 2.7 2 4.4.2 1.9 0 3.8-.9 5.5-1.3 2.3-3.3 3.6-5.7 4.3-2.1.6-4.3.8-6.5.8l-6.6-.1S3.2 56 1 56c-.4 0-.8.1-1-.4.1-.2.1-.4.1-.6zm9.8-10.2c0 2.1.1 4.2.2 6.2.1 1.6 1 2.5 2.5 2.8 1.1.3 2.2.3 3.3.1 2.2-.4 3.7-1.5 4.6-3.6.6-1.4.6-2.9.4-4.4-.3-2.2-1.3-3.9-3.2-5.2-2.1-1.4-4.5-1.6-7-1.4-.8.1-1 .4-1 1.2.2 1.4.2 2.9.2 4.3zm0-13.4v4.9c0 .8.2 1.1 1 1.1 1.5.1 3 0 4.5-.4 1.7-.6 2.8-1.8 3.2-3.6.2-.9.2-1.8.2-2.8-.1-2.3-1.3-4.1-3.4-5.1-1.3-.5-2.6-.6-4-.5-1.1 0-1.5.4-1.5 1.5v4.9zm48.8 25.7c-.6-.1-1.2-.2-1.8-.4-2.3-.8-3.6-2.5-4-4.8-.2-1.4-.1-2.7.7-3.8.6-.9 1.5-1.5 2.5-1.9 2.1-.9 4.2-1.6 6.4-2.4l3.9-1.4c.8-.3 1.1-.8 1.2-1.7l.1-4.1c0-1.3-.3-2.5-1.1-3.5-1-1.3-2.4-1.7-4-1.7-1.1 0-2.2.3-3.1 1-.7.5-1 1.2-1.1 2 0 .4 0 .7-.1 1.1-.1.6-.4 1.1-.9 1.4-1 .6-2.1.9-3.3 1-.8.1-1.2-.5-1.1-1.3.3-1.6 1.3-2.7 2.4-3.6 2.4-2.1 5.1-3.5 8.2-4.1 2.3-.4 4.5-.3 6.5 1.1 1.3 1 2 2.3 2.3 3.9.4 2 .1 4 .1 6l-.1 3.7c-.1 2.1-.1 4.2-.1 6.4 0 .8.2 1.6.5 2.4.8 2 2.7 2.2 4.3 1.4.1-.1.2-.2.3-.2.2-.1.6-.2.7-.1.3.3.4.7.1 1-.9 1.1-2 1.8-3.2 2.2-.5.2-1 .3-1.5.4h-1.4L72 57c-1.7-.2-2.9-1-3.9-2.4-.6-.8-.8-.8-1.7-.3-1.9 1.1-3.7 2.3-5.9 2.7-.8.1-1.3.1-1.8.1zm8.6-10.6v-1.2c0-.9-.2-1.1-1-.9-2.3.5-4.5 1.2-6.5 2.4-1.5.9-2 2.3-1.7 4 .4 1.8 1.9 3.1 3.8 3.2 1.5.1 2.8-.5 4-1.3.7-.4 1.2-1.1 1.2-1.9l.2-4.3zm57.3-2.4v-6c0-1.1 0-2.1-.2-3.2-.5-2.9-2-5-4.9-5.9-1.8-.5-3.5-.5-5.3-.1-2.3.5-4.4 1.6-6.5 2.9-.7.4-1.2.2-1.2-.7l.1-2.7c0-.2-.1-.5-.3-.6-.2-.1-.5-.1-.7 0l-6.1 3c-.3.1-.6.2-.6.6s.1.7.4.9l.9.6c.9.6 1.3 1.4 1.3 2.5v16.1c0 .4-.1.8-.1 1.1-.2.9-.7 1.5-1.7 1.6-.6.1-1.2.2-1.9.3-.5.1-.6.5-.5.9.1.4.1.9.7.8l2.5-.1 9.3.1c.5 0 .7-.1.9-.7.1-.5-.1-.9-.6-1l-1-.2c-1.8-.3-2.3-.8-2.3-2.7-.1-3.1-.1-6.2-.1-9.3 0-1.9 0-3.8.1-5.7 0-1.6.8-2.7 2.1-3.6 1.9-1.2 4-1.6 6.2-1.2 2 .3 3.5 1.4 4.2 3.3.3.9.5 1.9.6 2.9 0 4.6 0 9.2-.1 13.8 0 1.3-.4 2.1-1.9 2.4l-1.5.3c-.4 0-.5.3-.6.6-.1.9.2 1.2 1.1 1h9.2l2.4.1c.4 0 .7-.3.7-.8 0-.4 0-.8-.5-.9l-1.5-.2c-1.3-.1-1.9-.7-2.2-1.9-.1-.5-.1-.9-.1-1.4-.3-2.2-.3-4.6-.3-6.9zm63.5-5.6h-7l-.7.1c-.5 0-.6.4-.6.8-.1 1.8 0 3.5.5 5.2.8 2.7 2.2 5 4.7 6.6 1.3.8 2.8 1.3 4.4 1.5 1.9.2 3.7.1 5.4-1 .8-.5 1.4-1.2 2.1-1.9.4-.4.7-.5 1.1-.2.4.3.5.6.3 1.1-1.3 2.4-3.3 4-5.8 5.1-2.3.9-4.7 1.1-7.1.7-2.2-.4-4.2-1.2-5.9-2.7-1.5-1.4-2.6-3.1-3.4-5-.8-2.2-1-4.4-.8-6.7.2-2.4.8-4.6 1.9-6.7 1.3-2.4 3.1-4.4 5.6-5.7 2.1-1.1 4.3-1.5 6.7-1.4 2.2.1 4.2.8 5.9 2.2 1.5 1.2 2.6 2.8 2.9 4.7.1.7.1 1.5 0 2.3-.1.8-.4 1-1.3 1h-8.7c-.2-.1-.2-.1-.2 0zm-7.7-2.2l1.5.1c1.7 0 3.4 0 5.1-.1 1.5 0 3-.1 4.6-.2.7 0 1.2-.4 1.3-.9.2-1.5-.2-2.9-1.4-3.8-1.8-1.3-3.8-1.3-5.9-.7-1.6.5-3 1.5-4.1 2.9-.6.7-1.1 1.5-1.1 2.7zm34.8 2.1h-7.8c-.7 0-.9.2-1 .9-.2 1.5 0 2.9.3 4.3.4 2.2 1.4 4.2 2.9 5.8 1.6 1.8 3.7 2.9 6.1 3.1 1 .1 2.1.2 3.1.1 2-.2 3.5-1.4 4.7-2.9.4-.5 1.1-.4 1.3.2.1.2 0 .5-.1.7-1.4 2.5-3.4 4.2-6.1 5.1-4.1 1.4-8.1.9-11.7-1.5-1.8-1.2-3-2.9-3.9-4.9-1.1-2.5-1.4-5.1-1.2-7.8.3-3.1 1.3-6 3.2-8.5 1.9-2.4 4.3-4.1 7.3-4.8 3.3-.7 6.5-.4 9.3 1.7 1.9 1.4 3.1 3.3 3.3 5.7 0 .5 0 1.1-.1 1.6s-.4.8-.9.8l-2.9.1c-2 .3-3.9.3-5.8.3zm-3.6-2.1h1.6c1.7-.1 3.4-.2 5.2-.3.5 0 1.1-.2 1.2-.9.1-1 0-2-.6-2.9-1-1.4-2.4-1.9-4-2-2.5-.1-4.5.9-6.3 2.6-.8.8-1.4 1.7-1.7 2.9-.1.5 0 .6.5.6h4.1zm-75.5 5.4v1.5c.1 2.7 0 5.5.2 8.2.1 1.9 1 3.5 2.8 4.3 2.8 1.2 5.6 1.2 8.4-.2 1-.5 2-.9 2.5-1.9.1-.2.2-.6.1-.9-.1-.2-.4-.4-.6-.4-.3 0-.5.2-.8.3-.5.2-1 .6-1.5.7-.7.1-1.4.2-2.1.1-1.7-.2-2.8-1.3-3.3-2.7-.5-1.3-.6-2.7-.6-4.1V32.9c0-.8.2-1 1-1h7.4c.4 0 .6-.1.7-.5.1-.5.2-.9.2-1.4 0-.8-.4-1.1-1.2-1.1h-7.1c-.6 0-.8-.2-.8-.8V25c0-.4-.2-.6-.5-.7-.5-.2-1 0-1.3.5l-.3.5c-.8 1.2-1.5 2.4-2.6 3.3-1.1.8-2.4 1.4-3.7 1.8-.5.2-.6.5-.5.9.1.4.2.7.7.7h1.9c.8 0 1 .2 1 1v8.7zm17.3 12.7c0 .4-.1.8 0 1.2 0 .2.5.3.7.3.6 0 1.2-.2 1.9-.2h8c1 0 2.1.1 3.1.2.5 0 .8-.3.9-.9.1-.6-.2-.9-.7-1l-2.9-.2c-.6-.1-1.2-.3-1.4-1-.2-.7-.4-1.3-.4-2V37.7c0-1.1.2-2.1.4-3.1.4-1.4 1.7-2.3 3-2.1.8.1 1.7.5 2.4.9 1.2.7 2.4.9 3.6 0 1.2-.8 1.6-3.1.5-4.3-1-1-2.3-1.1-3.6-.8-1.8.4-3.2 1.5-4.7 2.6-.5.4-1.1.8-1.7 1.4v-4.2c0-.7-.3-.9-1-.6-2 1-4.1 2-6.2 3-.2.1-.5.4-.5.6 0 .3.2.6.3.8.2.2.4.3.6.4 1 .6 1.6 1.4 1.6 2.7-.1 5.7.3 11.4-.2 17.1-.1.6-.5 1.4-1.2 1.5-.8.2-1.7.4-2.6.5.3.1.1.2.1.3zM39.6 32v-3.5c0-.8-.3-.9-.9-.5-2 1-4.1 2-6.2 3-.4.2-.7.5-.4 1 .2.3.5.6.9.8 1.2.7 1.7 1.8 1.7 3.2v14.3c0 .7 0 1.4-.1 2.1-.1 1.2-.6 1.8-1.8 2l-1.6.3c-.4.1-.6.4-.6.9.1.6.3.8.8.8 1.4-.1 2.9-.2 4.3-.2 2.8 0 5.6.1 8.5.2.3 0 .7-.1.8-.3.1-.4.1-.8 0-1.2 0-.1-.2-.2-.3-.2l-2.5-.2c-1.3-.1-2-.5-2.2-1.9-.1-.7-.2-1.5-.2-2.3V38.9c0-.7 0-1.4.1-2.1.1-.7.2-1.4.5-2.1.5-1.2 1.4-1.8 2.8-1.8 1.1 0 2 .5 2.9 1.1 1.1.7 2.4.5 3.4-.3.9-.7 1.2-2.2.9-3.2-.5-1.5-2-2.1-3.8-1.7-1.8.3-3.2 1.3-4.6 2.4-.7.5-1.3 1-2.1 1.6-.2-.4-.3-.6-.3-.8zm42.8-3.5c-.5 0-.6.2-.7.6-.2.9 0 1.2.9 1.5.2.1.4.2.7.2.5 0 .7.4.8.8.1.8.2 1.6.2 2.5v9.8l-.1 8.4c0 1.4-.5 2-1.9 2.3-.5.1-1.1.2-1.7.3-.5.1-.7.3-.6 1 .1.5.3.7.8.7l.6-.1h9.1l2.2.1c.5 0 .6-.4.7-.7 0-.4.1-.9-.5-1l-1.5-.2c-1.3-.2-1.8-.7-2.1-1.9-.1-.6-.2-1.2-.2-1.8V33.6c0-.6.1-1.2.1-1.7 0-.4.2-.7.6-.8l1-.3c.4-.2.6-.7.6-1.2-.1-.5-.3-.7-.9-.7h-4.1c-1.2-.4-2.6-.4-4-.4zm15.7-16.9c0-2.5-2-4.1-4.1-4.2-2.3 0-4.3 1.7-4.3 4.2s2.1 4.3 4.2 4.2c1.9.1 4.2-1.6 4.2-4.2zm-15.8 7.6c0 2.4 2.1 4.3 4.2 4.2 2.3 0 4.2-1.9 4.2-4.2 0-2.5-2.2-4.3-4.2-4.2-2.3 0-4.2 1.9-4.2 4.2zM79 7.6c-2.1 0-4.2 1.8-4.2 4.2 0 2.3 2 4.2 4.3 4.2 2.2-.1 4.2-1.9 4.1-4.2.1-2.6-2.3-4.2-4.2-4.2zm3.3-3.4c0 2.3 1.9 4.2 4.1 4.2 2.3 0 4.2-2.1 4.2-4.2 0-2.3-1.9-4.3-4.2-4.2-1.9 0-4 1.7-4.1 4.2z"/></svg>