<svg xmlns="http://www.w3.org/2000/svg" width="230.5" height="37.4" viewBox="0 0 230.5 37.4"><path d="M29.3 1.6l-.6 6.1c-1.6-.5-3.1-1-4.6-1.4-6.4-2-13.8.8-15.8 7.9-1.6 5.4-.5 11.6 4.4 14.9 1.7 1.2 3.7 1.8 5.8 2.1 3.1.5 5.9-.6 8.7-1.4 1.4-.4 1.7-.3 1.9 1.2.2 1.2.3 2.5.3 3.7 0 .3-.4.8-.7.9-3.7 1-7.5 2.1-11.4 1.7-7-.8-12.8-3.5-15.8-10.4C-.1 23.2-.3 19.3.3 15.2c.8-5.6 3.6-9.8 8.4-12.7C11.3.9 14.3 0 17.4 0c2 0 4 .1 5.9.3 1.9.3 3.8.8 6 1.3zm44.2 35.2c1.2 0 2.4-.1 3.4 0 1.3.1 1.9-.3 2.3-1.5 1-3.3 2.2-6.5 3.4-9.7 3.9.9 7.6 1.8 11.7 2.7-.9-2.4-1.7-4.5-2.4-6.6-.4-1.2-.9-1.5-2.1-1.5-1.7.1-3.5 0-5.4 0 1.6-4.7 3.2-9.2 4.8-13.8 3.7 10.2 7.3 20.3 10.8 30.3h4.8c-.1-.6-.2-1-.3-1.4l-4.8-13c-2.3-6.2-4.6-12.4-6.8-18.5C91.6.2 91.5.1 87.6.4c-.4 0-1 .5-1.1.8-2.2 5.9-4.4 11.7-6.5 17.6-.3 1-.7 1.4-1.8 1.4-5.1-.1-10.2 0-15.2 0-.4 0-.8.1-1.1.1 0 .1 0 .3-.1.4 5.3 1.2 10.6 2.5 16.2 3.8-1.6 4.1-3 8.1-4.5 12.3zm61.3-5.2c-1.9-1.1-3.6-5.2-2.9-7.3h16.5c.5 0 1.3-.4 1.3-.7.1-3.6-.1-7.2-2.5-10.2-4.1-5.3-13.4-4.7-17.5 1.1-2.7 3.9-3 8.2-2.3 12.6.3 1.9 1.1 3.8 2.1 5.4 3.3 4.9 13.3 6 17.8 2.2.2-.2.4-.5.4-.8.1-1.1 0-2.1 0-3.4-4.2 2.6-8.4 3.8-12.9 1.1zm5.2-18.2c3.4.6 5.6 3.7 5.1 7.2h-13.4c.8-5.2 4.6-7.9 8.3-7.2zm90.2 5.6c-.5-3.6-2.1-6.7-5.6-8.3-4.7-2.2-10.6-.7-13.7 3.4-2.9 3.7-3.2 8-2.7 12.5.3 2.6 1.3 4.9 3.1 6.9 4.1 4.7 13.4 3.6 16.9 1.1.2-.2.5-.5.5-.8.1-1.1 0-2.2 0-3.4-1.2.7-2.1 1.3-3.1 1.7s-2.1.7-3.2.9c-5.3.9-9.5-2.2-9.9-7.4-.1-1 .2-1.4 1.2-1.4h16.8c-.1-1.8 0-3.6-.3-5.2zm-17.7 1.6c.2-2.6 1.4-4.6 3.4-6.1 2.1-1.5 4.5-1.7 6.9-.5 2.6 1.3 3.2 3.8 3.3 6.6h-13.6zm-58 15.5c1 0 1.9-.1 2.7 0 1.1.1 1.4-.4 1.4-1.4-.1-4.5 0-9 0-13.4 0-2.2.6-4.1 2.1-5.8 1.7-1.9 3.9-2.6 6.3-2.1s3.6 2.2 4.1 4.4c.2.9.3 1.9.3 2.9v12.5c0 3 0 2.9 3 2.9 1 0 1.4-.3 1.4-1.4-.1-4.4 0-8.9 0-13.3 0-1.5-.1-3.1-.3-4.6-.6-3.2-2.1-5.9-5.5-6.8-4-1.1-7.6-.3-10.4 3-.2.3-.3.7-.4 1l-.6-.4c0-.8.1-1.6 0-2.3-.1-.4-.5-.9-.8-.9-1.1-.1-2.1 0-3.3 0v25.7zm44.2-2.5c.1 2.7-.5 2.4 2.6 2.5 1.3 0 1.6-.4 1.6-1.7-.1-7.1 0-14.3 0-21.4 0-3.1.5-2.6-2.8-2.7-1.1 0-1.4.3-1.4 1.4.1 4.1 0 8.1 0 12.2 0 2.5-.2 4.9-1.9 6.8-1.8 2-4 2.7-6.6 2.1-2.6-.5-3.8-2.4-4.3-4.8-.2-1.1-.3-2.3-.3-3.5V11.8c0-.5 0-1-.1-1.6-1 0-1.8.1-2.7 0-1.1-.1-1.5.3-1.4 1.4.1 4.8 0 9.7 0 14.5 0 1.4.2 2.8.5 4.1.8 3.4 3.1 5.5 6.5 6 4 .6 7.4-.3 10.1-3.8.2.6.2.9.2 1.2zm-84.9-3.5l-6.6-19c-.1-.4-.5-.9-.7-.9-1.4-.1-2.9 0-4.4 0 .1.4.1.5.1.7l8.6 22.5c1.2 3.2 1.3 3.1 4.1 3.1 1 0 1.4-.4 1.7-1.2 2.9-7.5 5.9-15.1 8.9-22.6.3-.7.5-1.4.9-2.4-1.4 0-2.5-.1-3.6 0-.5.1-1.2.5-1.3 1-1.1 2.7-2.1 5.5-3.1 8.3-1.3 3.7-2.7 7.4-4 11.2-.3-.3-.5-.5-.6-.7zM56.3.3c-2-.3-4-.4-5.9-.3-3.1.1-6 .9-8.7 2.5-4.8 2.9-7.5 7.1-8.4 12.7-.6 4-.4 7.9 1.2 11.7 3 6.9 8.8 9.6 15.8 10.4 3.9.4 7.7-.6 11.4-1.7.3-.1.7-.6.7-.9 0-1.2-.2-2.5-.3-3.7-.2-1.4-.6-1.6-1.9-1.2-2.8.8-5.6 2-8.7 1.4-2.1-.4-4-.9-5.8-2.1-4.9-3.4-6-9.5-4.4-14.9 2.1-7.1 9.5-9.9 15.8-7.9 1.5.5 3 .9 4.6 1.4l.6-6.1c-2.1-.5-4-1-6-1.3z"/></svg>