<svg xmlns="http://www.w3.org/2000/svg" width="115.3" height="70.4" viewBox="0 0 115.3 70.4"><path d="M20.9 35.3c.2 1.4 1 2.5 2.4 3.2 2 .7 4.4.4 7-.8-.1.4-.2.9-.3 1.4-.1.5-.2 1.1-.3 1.5-.1.5-.2.8-.4 1.1-3.1.9-6 1-8.6.1-1.3-.5-2.4-1.3-3.4-2.4-1-1.2-1.5-2.4-1.6-3.7-.2-1.4-.1-2.8.2-4.2.3-1.3 1-2.6 1.9-3.9.9-1.2 2.1-2.1 3.3-2.7 3.3-1.6 7.2-1.7 11.7-.4-.1.9-.4 2.2-.7 3.8-3.2-1.5-6-1.5-8.3 0-2.1 1.7-3.1 4-2.9 7zm67.5-3c0 .3.1.6.4.8.3.2.9.5 2 .8 2.4.9 3.6 2.3 3.6 4.2 0 3.3-2.6 5-7.8 5-.4 0-1.3-.1-2.8-.2-.7 0-1.1 0-1.3-.1l-.9-.1h-.3l.8-3.5c1.6.4 3.1.6 4.6.6 1.8 0 2.7-.4 2.7-1.3 0-.4-.1-.7-.4-.9-.3-.2-.9-.5-1.8-.8-2.6-.9-3.9-2.3-3.9-4.2 0-.7.1-1.4.3-2s.6-1.1 1.3-1.5 1.5-.7 2.4-1c1-.3 2.1-.4 3.6-.4 2.1 0 3.6.1 4.6.3l-.8 3.4c-.9-.1-2.1-.1-3.6-.1-1.8-.1-2.7.3-2.7 1zm-53.3-4.4h5.1l-3 14.6h-5l2.9-14.6zm46.7.1l-2.4 10.8-.5 3.8h-4.7l.4-2.3C72.9 42.1 71 43 68.9 43c-1.5 0-2.6-.5-3.5-1.4-.8-1-1.2-2.2-1.2-3.7 0-.1.1-1.1.4-3l1.4-6.8h4.9l-1.3 6.8-.2.9c-.1.5-.2.9-.2 1.3s.2.8.6 1.2c.4.4.9.5 1.5.4 2.1 0 3.4-1.3 3.8-4l1.4-6.7h5.3zm-28.3-.4l-1.8 4.3-.6-.2h-.6c-1.3 0-2.3.7-2.8 2.1s-1.3 4.3-2.1 8.9h-5.1l3-15.2h4.6l-.5 2.3c1.4-1.6 2.9-2.4 4.4-2.4h.8c.1 0 .4.1.7.2zm11.2 0l-1.8 4.3-.6-.2h-.6c-1.3 0-2.3.7-2.8 2.1s-1.3 4.3-2.1 8.9h-5.1l3-15.2h4.6l-.5 2.3c1.4-1.6 2.9-2.4 4.4-2.4h.8c.2 0 .4.1.7.2zM80.1 0c-8.5 0-16.4 3-22.4 8.1C51.6 3 43.7 0 35.2 0 15.8 0 0 15.8 0 35.2s15.8 35.2 35.2 35.2c8.6 0 16.4-3 22.5-8.1 6.1 5 13.9 8.1 22.4 8.1 19.4 0 35.2-15.8 35.2-35.2C115.3 15.7 99.5 0 80.1 0zm0 67.8c-7.8 0-14.9-2.7-20.5-7.3 4.3-4.1 7.6-9.3 9.3-15.2h-2.7c-1.7 5.2-4.7 9.8-8.6 13.5-3.8-3.7-6.8-8.3-8.5-13.5h-2.7c1.7 5.8 5 11 9.2 15.1-5.6 4.5-12.7 7.3-20.5 7.3-18 0-32.6-14.6-32.6-32.6S17.1 2.5 35.1 2.5c7.8 0 14.9 2.8 20.5 7.3-4.2 4.1-7.5 9.3-9.2 15.1h2.7c1.7-5.2 4.7-9.8 8.5-13.5 3.9 3.7 6.9 8.3 8.6 13.5h2.7c-1.8-5.9-5-11-9.3-15.2 5.6-4.6 12.7-7.3 20.5-7.3 18 0 32.6 14.6 32.6 32.6 0 18.2-14.6 32.8-32.6 32.8z"/></svg>