<svg xmlns="http://www.w3.org/2000/svg" width="117.9" height="70" viewBox="0 0 117.9 70"><path d="M70.8 45.8c-1.9 6.3-5.2 11.7-9.9 16.4 6.4 5.2 13.8 7.8 22 7.8 6.3 0 12.2-1.6 17.6-4.7 5.4-3.1 9.7-7.4 12.7-12.8s4.6-11.2 4.7-17.5c0-4.7-.9-9.2-2.7-13.5-1.8-4.3-4.3-8.1-7.4-11.2-3.1-3.1-6.8-5.6-11.2-7.4C92.3 1.1 87.7.1 83 0c-8.3 0-15.6 2.6-22 7.8 4.7 4.6 8.1 10.1 9.9 16.4h-2.7c-1.8-5.5-4.8-10.3-9.2-14.5-4.3 4.1-7.4 9-9.1 14.5h-2.8c1.8-6.2 5-11.6 9.8-16.4C50.3 2.6 43 0 35 0c-6.3 0-12.2 1.6-17.6 4.7C12 7.8 7.7 12.1 4.7 17.5S.1 28.7 0 35c-.1 6.2 1.5 12.1 4.7 17.5s7.4 9.7 12.7 12.8C22.7 68.4 28.5 70 35 70c8.1 0 15.4-2.6 21.9-7.8-4.8-4.7-8.1-10.2-9.8-16.4h2.8c1.8 5.5 4.8 10.3 9.1 14.5 4.4-4.3 7.5-9.1 9.2-14.5h2.6zM24.4 35.3c.2 1.4 1 2.5 2.4 3.2 2 .7 4.4.4 7-.8-.1.4-.2.9-.3 1.4-.1.5-.2 1.1-.3 1.5-.1.5-.2.8-.4 1.1-3.1.9-6 1-8.6.1-1.3-.5-2.4-1.3-3.4-2.4-1-1.2-1.5-2.4-1.6-3.7-.2-1.4-.1-2.8.2-4.2.3-1.3 1-2.6 1.9-3.9.9-1.2 2.1-2.1 3.3-2.7 3.3-1.6 7.2-1.7 11.7-.4-.1.9-.4 2.2-.7 3.8-3.2-1.5-6-1.5-8.3 0-2.1 1.7-3.1 4-2.9 7zm67.5-3c0 .3.1.6.4.8.3.2.9.5 2 .8 2.4.9 3.6 2.3 3.6 4.2 0 3.3-2.6 5-7.8 5-.4 0-1.3-.1-2.8-.2-.7 0-1.1 0-1.3-.1l-.9-.1h-.3l.8-3.5c1.6.4 3.1.6 4.6.6 1.8 0 2.7-.4 2.7-1.3 0-.4-.1-.7-.4-.9-.3-.2-.9-.5-1.8-.8-2.6-.9-3.9-2.3-3.9-4.2 0-.7.1-1.4.3-2s.6-1.1 1.3-1.5 1.5-.7 2.4-1c1-.3 2.1-.4 3.6-.4 2.1 0 3.6.1 4.6.3l-.8 3.4c-.9-.1-2.1-.1-3.6-.1-1.8-.1-2.7.3-2.7 1zm-53.3-4.4h5.1l-3 14.6h-5l2.9-14.6zm46.7.1l-2.4 10.8-.5 3.8h-4.7l.4-2.3c-1.7 1.8-3.6 2.7-5.7 2.7-1.5 0-2.6-.5-3.5-1.4-.8-1-1.2-2.2-1.2-3.7 0-.1.1-1.1.4-3l1.4-6.8h4.9l-1.3 6.8-.2.9c-.1.5-.2.9-.2 1.3s.2.8.6 1.2c.4.4.9.5 1.5.4 2.1 0 3.4-1.3 3.8-4L80 28h5.3zM57 27.6l-1.8 4.3-.6-.2H54c-1.3 0-2.3.7-2.8 2.1s-1.3 4.3-2.1 8.9H44l3-15.2h4.6l-.5 2.3c1.4-1.6 2.9-2.4 4.4-2.4h.8c.1 0 .4.1.7.2zm11.2 0l-1.8 4.3-.6-.2h-.6c-1.3 0-2.3.7-2.8 2.1s-1.3 4.3-2.1 8.9h-5.1l3-15.2h4.6l-.5 2.3c1.4-1.6 2.9-2.4 4.4-2.4h.8c.2 0 .4.1.7.2z"/></svg>