<svg xmlns="http://www.w3.org/2000/svg" width="246.2" height="46.8" viewBox="0 0 246.2 46.8"><path d="M17.7 6.2c4.3 0 8.5.6 12.2 2.8 2.4 1.4 3.9 3.5 3.6 6.4-.1.9-.1 1.8 0 2.8.1 1.8-.4 3.2-1.7 4.3-.3.2-.5.7-.5 1 0 2 .1 3.9.2 5.9 0 .6.3 1.2.7 1.6 1.1 1.3 1.7 2.7 1.6 4.4 0 1.1-.1 2.3 0 3.4.1 2.4-1.2 3.9-3.1 5.1-3 1.8-6.3 2.6-9.7 2.8-4.7.3-9.3 0-13.6-2-1.1-.5-2.1-1.2-3-1.9C3 41.6 2.2 40 2.3 38.1v-1.8c.1-1.7-.1-3.1-1.3-4.5C.4 31.2.2 30 .1 29c-.1-1.3.1-2.7-.1-4.1-.2-1.7.5-3 1.7-4 .5-.5.5-.9.5-1.6-.1-2.2-.3-4.5 0-6.7.2-1.1 1.2-2.3 2.2-3.1C7.8 6.9 12 6.3 16.1 6c.7.2 1.2.2 1.6.2zm-.1 1.4c-1.9.2-3.7.2-5.6.6-2.2.5-4.3 1-5.9 2.7-1 1-1 2.2-.1 3.3.5.5 1 1 1.6 1.3 6.5 2.8 13 2.7 19.6.2 1.4-.5 2.8-1.4 2.7-3.2-.1-1.8-1.5-2.5-2.9-3.1-2.9-1.3-6.1-1.7-9.4-1.8zM4 21.9c-.9 1.4-.9 2.5.3 3.5.7.6 1.5 1.1 2.3 1.4 3.7 1.5 7.6 1.8 11.6 1.5 2.8-.2 5.6-.7 8-2.3.7-.4 1.2-1.1 1.8-1.7-.1-.1-.2-.2-.2-.4-3.9 1.5-7.9 1.9-12.1 1.6-4.2-.2-8.1-1.1-11.7-3.6zm4.8 13.7l-.2.5 1.5.7c4.9 1.5 9.8 1.5 14.7.3 1.9-.5 3.7-1.1 5-2.7.5-.7.9-1.5.1-2.3-3 2.5-6.5 3.5-10.1 4-3.8.5-7.4.2-11-.5zM143.7 0h5.6c.1 1.1.4 2.2.4 3.3.1 3.2 0 6.5 0 9.9.7-.2 1.3-.3 1.9-.4 7.4-1.5 13 2.1 14.8 9.5.9 3.7.7 7.4-.4 11-1.4 4.8-4.7 7.6-9.6 8.4-3.8.6-7.5.1-11.1-1.1-1.1-.4-1.7-1.1-1.7-2.3V1c.1-.4.1-.7.1-1zm6.1 27.1v7.7c0 .4.4 1.1.7 1.2 3.4 1 7.4.4 9.2-3.6 1.3-2.7 1.4-5.5 1-8.5-.8-5.2-4.8-7.6-9.8-6-.8.3-1.2.7-1.2 1.6.1 2.6.1 5.1.1 7.6zm93.9 7.6c.6 1.5 1.2 2.8 1.6 4.1.1.4-.2 1.2-.5 1.3-5 1.8-10.1 2.5-15.1.3-4.5-1.9-6.7-5.8-7.4-10.4-.7-4.5-.4-9 2.3-13 2.6-3.9 7.6-5.8 12.5-4.8 4.7 1 8 4.3 8.8 9.1.3 1.5.2 3 .3 4.6.1 1-.3 1.4-1.3 1.5-5 .7-10 1.4-15.1 2.1-1.9.3-2 .4-1.4 2.2 1.1 2.9 3.4 4.3 6.3 4.5 2.8.3 5.5-.2 8.1-1.3.3.1.5 0 .9-.2zM227.8 25c.2 0 .4.1.5.1 3.8-.5 7.6-1 11.4-1.6.2 0 .6-.4.6-.6.3-2.2-1.4-4.8-3.7-5.4-4.6-1.4-9 2.3-8.8 7.5zm-40.3-2.4c.4-3.6-1-5.4-4.5-5.3-2.4 0-4.8.6-7.2 1.2-1.1.3-1.6 0-1.9-.9l-.3-.9c-1-2.7-1-2.8 1.8-3.5 3.6-1 7.2-1.4 10.9-.6 4.4.9 7 3.9 7.1 8.5.1 5.9.1 11.9 0 17.8 0 .5-.5 1.3-1 1.4-4.9 1.7-9.8 2.2-14.8.7-7.2-2.1-7.8-10.4-4.6-13.9 2-2.2 4.6-3 7.4-3.5 2.2-.5 4.6-.7 7.1-1zm.1 4.8c-1.6.2-3 .2-4.3.5-1.6.4-3.2.8-4.6 1.6-1.5.8-2 2.4-1.7 4.1.2 1.6 1.3 2.6 2.7 2.8 1.9.3 4 .4 5.9.3 2-.2 2-.3 2-2.4v-6.9zm-115.5-.5c0-4.1.7-7.6 3.1-10.6 4.8-6 14.6-5.6 18.7.9 3.7 5.9 3.9 12.2 1 18.4-2 4.3-5.7 6.2-10.4 6.2-5.1 0-8.6-2.5-10.8-7-1.2-2.6-1.7-5.4-1.6-7.9zm18.8.2c-.3-1.9-.4-3.4-.7-4.8-.7-3.1-2.6-4.7-5.3-4.8-2.7-.1-4.9 1.4-5.9 4.3-1.2 3.5-1.2 7.1 0 10.7.9 2.4 2.7 3.7 5 3.8 2.6 0 4.5-1.2 5.4-3.6.8-1.9 1.1-4 1.5-5.6zm23.9 11.8c0 1.6.3 2.5 2.4 2.3.7-.1 1.4 0 2.1 0 1.6 0 1.7 0 1.7-1.7V19.7c0-1 .3-1.6 1.3-1.7 1.5-.2 3-.4 4.4-.4 3.2.2 4.5 1.7 4.5 4.9v16.8c0 1.4.4 1.9 1.8 1.9h3c1 .1 1.3-.3 1.3-1.3V21.5c0-4.7-2.9-8.1-7.5-9-4.7-.9-9.3-.4-13.8 1-.9.3-1.2.7-1.2 1.7v11.9c0 4 .1 7.9 0 11.8zm83.8-1.1c-.6 1.2-.4 2 .9 2.5 4.5 1.7 9 2.2 13.6.4 3.1-1.2 4.7-3.6 4.8-6.9.1-4-1.9-6.8-6.1-8.6-1.6-.7-3.2-1.3-4.7-2-1.2-.5-2.1-1.4-1.9-2.8.2-1.5 1.1-2.3 2.4-2.8 1.7-.6 3.5-.3 5.2.2 2.8.9 2.7.9 3.9-1.9.5-1.1.2-1.9-1-2.4-3.1-1.4-6.3-1.7-9.6-1.2-3.8.6-6.5 3-7 6.1-.7 3.8 1 7.1 4.6 9 1.1.6 2.3 1 3.5 1.5 1 .4 2 .8 2.9 1.3 2 1.2 2.2 3.7.3 5.1-.9.6-2.1 1-3 .9-2.4-.2-4.7-.8-7.2-1.2-.7.8-1.2 1.8-1.6 2.8zM66.1 35.4c-3.9 1.8-7.9.4-9.3-3.5-1.2-3.4-1.1-6.8.3-10.1 1.5-3.4 4.8-4.8 8.4-3.7.5.1.9.4 1.3.5.3 0 .9-.1 1-.3.5-.9 1-1.8 1.2-2.7.1-.6-.3-1.5-.7-1.8-1.1-.6-2.4-1.1-3.7-1.3-5.9-1.3-11.3 1.4-13.5 6.9-2.1 5.2-2.1 10.6.4 15.7 3.5 7.2 10.8 8.1 16.4 5.8 1.4-.6 1.5-.9.9-2.3-.5-1.2-1.1-2.3-1.7-3.6-.4.1-.7.3-1 .4zm36.1 3.8c0 1.7.4 2 2.1 2 .8 0 1.6-.1 2.4 0 1.3.2 1.7-.4 1.7-1.7-.1-7.7 0-15.5 0-23.2v-1.8c-.1-1.5-.4-1.8-1.9-1.8H104c-1.7 0-1.7 0-1.7 1.8v12.2c-.1 4.2-.1 8.3-.1 12.5zm2.9-37.8c-1.9 0-3.4 1.4-3.4 3.2 0 2 1.8 4 3.8 4 1.9 0 3.4-1.5 3.4-3.3-.1-2.1-1.7-3.9-3.8-3.9z"/></svg>