<svg xmlns="http://www.w3.org/2000/svg" width="228" height="35.5" viewBox="0 0 228 35.5"><path d="M117.7 21.5V.7h7.4v34.1c-2 0-4 .1-6-.1-.5 0-1-.7-1.4-1.2l-14.1-18.4c-.4-.5-.8-.9-1.5-1.8v21.3h-7.4V.4c2.1 0 4.2-.1 6.2.1.6 0 1.3.7 1.7 1.2 4.6 5.9 9.1 11.9 13.6 17.8.4.7.8 1.1 1.5 2zm-82.5-3.7c0 10 7.8 17.7 18.1 17.7s18.4-7.8 18.4-17.8C71.7 7.6 63.9 0 53.5 0 43.1 0 35.2 7.7 35.2 17.8zM53.5 7.1c5.8 0 10.2 4.8 10.2 10.8 0 6.1-4.5 10.6-10.3 10.6-5.8-.1-10.2-4.7-10.2-10.8 0-6.1 4.4-10.7 10.3-10.6zm167.1 15.2c5.2-2.8 7.2-6.9 6.2-12.8-.7-4.6-4.1-8.1-9.6-8.5-6.2-.5-12.5-.1-18.8-.1v33.9h7.6V24c1.4 0 2.5.1 3.6 0 1.6-.2 2.5.5 3.4 1.8 1.7 2.7 3.6 5.4 5.4 8 .3.4.8 1 1.2 1 2.7.1 5.4 0 8.4 0-2.9-4.2-5.6-8.1-8.3-12.1.5-.1.7-.3.9-.4zM215 7.7c2.8.3 4.2 2.1 4.2 4.7s-1.4 4.4-4.2 4.7c-2.9.3-5.8.1-8.9.1V7.8c3-.2 6-.4 8.9-.1zm-51.8 27.2c1.1 0 1.6-.4 1.9-1.4l2-5.1c.3-.9.8-1.3 1.8-1.2 3.9.1 7.9.1 11.8 0 1.1 0 1.6.4 1.9 1.4.6 1.8 1.4 3.5 2.2 5.3.2.5.8 1 1.3 1 2.3.1 4.5 0 7 0-.3-.8-.5-1.4-.8-1.9L180.6 5.4c-2.1-5.1-2.1-5-7.7-5-1.1 0-1.7.4-2.1 1.4-2.5 5.9-5 11.8-7.5 17.6-2.2 5-4.3 10.1-6.6 15.5 2.4 0 4.4-.1 6.5 0zm16-14.6h-8.8c1.4-3.5 2.8-6.9 4.4-10.7 1.6 3.8 3 7.2 4.4 10.7zm-168.4 5c-3.6-4-3.7-10.7-.2-14.9 3.8-4.5 8.8-4.4 16.1.4l4.7-5.4c-6.8-7.3-20-7.2-26.7.1-7 7.6-6.1 20 1.8 26.2 7.5 5.9 20.3 4.6 25-2.5-1.5-1.5-3.1-3-4.7-4.6-6.8 4.8-12.1 5-16 .7zm130.1 10.1c6.3.2 10.8-3 12-8.6.3-1.5.4-3 .4-4.5V.597H143c-.3 0-.8.1-1 .4-1.1 2.1-2.1 4.2-3.4 6.6h6.8c0 5.5.1 10.8 0 16.1-.1 3.5-2.8 5.4-6.2 4.2-1.7-.6-3.1-1.8-4.8-2.8-1.4 1.5-2.9 3.2-4.5 4.9 2.4 3.4 6.3 5.3 11 5.4zM86.1.8h-7.4v34.1h7.4V.8z"/></svg>