<svg xmlns="http://www.w3.org/2000/svg" width="232" height="29.1" viewBox="0 0 232 29.1"><path d="M139.3.1l1.5.1c2.2.2 4.3.6 6.4 1.5 1.7.8 3.3 1.8 4.3 3.5.9 1.4 1.3 3 1.3 4.6 0 1.5-.2 3.1-.4 4.6-.2 1.3-.3 2.6-.6 3.9-1 4.7-3.9 7.7-8.3 9.3-2.4.9-5 1.2-7.6 1.3-.1 0-.2 0-.3.1h-3.3l-1.5-.1c-2.2-.2-4.4-.6-6.5-1.6-1.5-.7-2.9-1.6-4-3-1-1.3-1.5-2.9-1.6-4.5-.1-1.5.1-3.1.3-4.6.2-1.4.4-2.8.6-4.1 1-4.9 3.9-8.1 8.5-9.7 2.4-.8 4.9-1.2 7.4-1.3.1 0 .2 0 .3-.1 1.3.1 2.4.1 3.5.1zm-2 5l-2.5.2c-1.4.2-2.7.6-3.8 1.5-1.4 1.1-2.2 2.6-2.5 4.3-.3 1.4-.5 2.8-.7 4.2-.2 1.3-.3 2.6-.4 3.9 0 1.3.3 2.6 1.4 3.5.7.6 1.5.9 2.4 1.1 1.9.4 3.8.4 5.7.1 1.6-.2 3.1-.9 4.2-2.1 1-1.1 1.6-2.5 1.9-3.9.3-1.6.5-3.2.7-4.8.2-1.2.3-2.3.2-3.5-.2-2-1.4-3.5-3.3-4-1.1-.4-2.2-.4-3.3-.5zm-90.6 24l-1.5-.1c-2.2-.2-4.3-.6-6.3-1.5-1.5-.7-2.9-1.6-4-2.9-1.3-1.5-1.7-3.3-1.8-5.2 0-1.5.3-3.1.5-4.6l.6-4c.5-2.4 1.6-4.6 3.4-6.3 1.7-1.6 3.7-2.6 5.8-3.2 2.1-.6 4.3-.9 6.6-1 .1 0 .2 0 .3-.1h3.3l1.5.1c2 .2 4 .5 5.9 1.3 1.3.5 2.5 1.3 3.6 2.2 1.7 1.6 2.4 3.6 2.5 5.9.1 1.6-.2 3.1-.4 4.7-.2 1.3-.3 2.6-.6 3.9-1 4.6-3.8 7.7-8.2 9.3-2.5.9-5.1 1.3-7.7 1.4-.1 0-.2 0-.3.1h-3.2zm5.3-24c-1.1.1-2 .1-2.8.2-1.8.2-3.3.9-4.5 2.3-1 1.2-1.6 2.6-1.9 4.1-.3 1.5-.5 3-.6 4.5-.1 1.1-.3 2.2-.3 3.3 0 1.2.3 2.3 1.3 3.1.7.6 1.4.9 2.3 1.1 2 .5 4.1.4 6.1.2 1.6-.2 3-.9 4.1-2.1 1-1.1 1.6-2.3 1.8-3.7.3-1.5.5-3.1.7-4.6.2-1.3.4-2.5.3-3.8-.2-2.2-1.4-3.7-3.6-4.2-1.1-.3-2.1-.3-2.9-.4zm159.7 24l-1.5-.1c-2.2-.2-4.4-.6-6.5-1.6-1.6-.7-3.1-1.7-4.1-3.2-1-1.4-1.4-3-1.5-4.7-.1-1.3.1-2.7.3-4 .2-1.6.4-3.2.7-4.7.5-2.5 1.6-4.6 3.4-6.4 1.6-1.5 3.5-2.5 5.6-3.2 2.2-.7 4.5-1 6.8-1.1.1 0 .2 0 .3-.1h3.3c.1 0 .1 0 .2.1 1.3.1 2.5.2 3.8.4 2 .3 3.9 1 5.6 2.1 2.3 1.5 3.6 3.5 3.8 6.2.1 1.3 0 2.6-.1 3.8L231 18c-.7 3.8-2.7 6.7-6.2 8.5-2.6 1.4-5.5 2-8.4 2.2l-1.6.1c-.9.3-2 .3-3.1.3zm2.1-5l2.4-.2c1.9-.3 3.5-1 4.6-2.5.8-1.1 1.3-2.3 1.5-3.6.3-1.6.5-3.2.7-4.8.2-1.1.3-2.2.2-3.4-.1-.9-.4-1.8-.9-2.6-.8-1.1-2-1.6-3.4-1.8-1.5-.2-3-.2-4.5-.1-1.6.1-3.1.6-4.3 1.7-1.3 1.1-2 2.6-2.4 4.2-.3 1.5-.5 3-.7 4.5-.2 1.2-.4 2.5-.3 3.7.1 2.1 1.1 3.4 3.1 4.1 1.4.7 2.7.8 4 .8zM84 12.4l.9 1.5 5 8.7c.5.8 1.2 1.5 2.2 1.4.9 0 1.5-.6 2.1-1.2 2.6-3 5.2-6 7.9-9.1.4-.5.8-.9 1.3-1.5-.7 5.4-1.5 10.8-2.2 16.1h4.895c2.1-.1 3.9-1.8 4.3-3.8.2-1 .3-2 .4-2.9l1.2-8.4 1.1-8 .6-4.5h-4c-.6 0-1.3 0-1.9.1-1.2.2-2.2.6-3 1.5l-3.4 3.5-6.5 6.7-1.8 1.7s-.1-.1-.1-.2l-7.9-11.5c-.3-.4-.7-.8-1.1-1-.9-.5-1.9-.7-2.9-.7h-4.5c-1.2 9.2-2.5 18.4-3.7 27.7H78c2.1-.1 4-1.8 4.3-3.9l.2-1.6c.4-2.8.8-5.6 1.1-8.4.1-.7.2-1.5.4-2.2zm78.2-9.2c.3 1.3 1.1 2.1 2.5 2.4.5.1 1 .2 1.5.2h9.3c1.5 0 3 .3 4.5.9 1.8.8 2.8 2 2.6 4l-.3 3.2-.6 4.2c-.4 2.2-1.6 3.5-3.6 4.3-1.5.6-3.1.9-4.7 1h-5.5V23l1.4-10.3c.3-2.1-1.1-3.9-3.2-4l-5-.1h-.1l-.1.9-1 7.6-1.2 8.1c-.2 1.1.3 2.1 1.4 2.5.3.2.6.3 1 .3 1 .1 1.9.3 2.9.3h10.9c1.9 0 3.8-.1 5.7-.5 2-.4 3.8-1.1 5.5-2.2 2.8-1.8 4.1-4.6 4.6-7.8.2-1.5.4-3 .6-4.6.2-1.3.4-2.6.2-3.9-.2-1.9-.8-3.6-2.2-5-1.3-1.3-2.8-2-4.5-2.6-2.8-.9-5.7-1.2-8.6-1.2h-14.1c-.2 1.1-.2 1.9.1 2.7zM27.5 23.4H16.2c-.8 0-1.6 0-2.4-.1-1.1-.1-2.2-.2-3.2-.7-1.1-.5-1.8-1.4-2-2.6-.1-.9-.1-1.8 0-2.6.2-1.6.4-3.3.7-4.9.2-1.2.5-2.3 1.1-3.4 1.1-1.8 2.8-2.6 4.7-3 1.1-.2 2.2-.3 3.3-.3l7.3-.1c1.4 0 2.6-.4 3.5-1.5.6-.7 1.1-1.5 1.4-2.4.1-.4.2-.8.4-1.2H16.3c-2.4.1-4.8.4-7.1 1.2C4.6 3.4 1.8 6.5.9 11.3c-.3 1.6-.5 3.3-.7 4.9C0 17.5-.1 18.8.1 20c.2 1.6.8 3.1 1.9 4.3 1 1.1 2.3 1.9 3.7 2.5 2.3 1 4.8 1.4 7.3 1.4h8.1l2.6-.1c.8 0 1.5-.3 2.2-.9 1.2-1.1 1.7-2.5 2.1-4.1-.2.3-.4.3-.5.3z"/></svg>