<svg xmlns="http://www.w3.org/2000/svg" width="126.8" height="64.3" viewBox="0 0 126.8 64.3"><path d="M23.1 36.7c.8-.1 2.2-.1 4.2 0s3.6 0 4.9-.1c1.2-.2 2.4-.6 3.5-1.4 1.6-1.4 2.4-2.8 2.3-4.3-.3-1.1-.8-1.9-1.5-2.6-.7-.6-1.7-1-2.9-1.3-1.2-.2-2.3-.3-3.1-.3h-3.6c-1.5 0-2.5 0-2.9.1l-.9 9.9zm101.7 21.4c-1.5 2.3-3.4 4-5.8 4.9-1.5.9-3.5 1.3-5.8 1.3H11.9c-2.3-.1-4.5-.9-6.5-2.4S1.9 58.5 1 56.3C.4 54.7.1 53 .1 51.2H41c7.2-1.1 12.4-4.2 15.7-9.4.9-1.2 1.9-3.4 3.3-6.5-.6 9.3-1 14.6-1.2 15.9 5.1-.1 13.1-.1 23.8 0 .2-7.1.6-13.6 1-19.8l13.6 19.4.6.1h29c.1 2.5-.6 4.9-2 7.2zM12.1 0c-1.6.1-3.6.8-5.8 2.2-2 1.2-3.6 2.9-4.7 4.9C.5 9.1 0 11.3 0 13.7c.1 0 .1-.1.1-.2h41.7c2.7.2 5.3.7 7.7 1.4 2.6.8 5 2.4 7 4.8s3.3 5 4 7.8c.1-1.4.2-2.9.2-4.4.1-1.5.1-3.3.1-5.1 0-1.9.1-3.3.2-4.4h24.2c-.2 1.5-.4 3.2-.5 5.1-.1 1.9-.2 3.9-.5 5.8-.2 1.9-.4 3.6-.5 5.1 2.8-3.2 6.9-8.2 12.3-14.9.2-.1.4-.3.7-.7s.5-.6.7-.7h29.2c.1-2.4-.5-4.7-1.7-6.7-1.2-2.1-2.9-3.7-5-4.9-1.2-.8-2.6-1.3-4.4-1.5-1.8-.2-3.5-.3-5.1-.1-1.6.2-3.3.2-5.1 0H12.1V0zm114.6 13.2v37.7l-16.2-20.5"/></svg>