<svg xmlns="http://www.w3.org/2000/svg" width="185.6" height="61.9" viewBox="0 0 185.6 61.9"><path d="M38 61.9c-3.2-.1-6.4 0-9.6-.2-4.8-.3-9.3-1.8-13.4-4.3-4.8-3-8.7-6.9-11.4-11.9C1.8 42 .6 38.4.2 34.4-.4 28.3.5 22.5 3.3 17 6.9 9.9 12.4 5 19.8 2.3 22.9 1.1 26.2.4 29.5.4 33.9.3 38.3.3 42.7.3c1.6 0 3.2 0 4.8.1 4.3.2 8.4 1.2 12.3 3.1 3.5 1.7 6.7 3.8 9.4 6.6 4.3 4.4 7 9.7 8.1 15.7.5 3.1.6 6.1.2 9.2-.5 3.8-1.7 7.3-3.6 10.5-5 8.4-12.4 13.6-21.9 15.7-2.1.5-4.2.6-6.3.6-2.6 0-5.2 0-7.7.1zM31.1 2.7c-15.6.1-28 12.6-28.2 27.7-.3 16.1 12.7 28.7 28.2 28.7 15.6 0 28.2-12.6 28.3-28.1 0-15.4-12.5-28.2-28.3-28.3zm63.5 21.5v-1.6c0-.1.2-.2.3-.2l1.5-.2c.8-.1 1-.4 1.2-1.2l.1-.9V4.6c0-.5-.1-1-.2-1.5s-.5-.8-1-.8h-1.8V.4h.3c3.2 0 6.5 0 9.7-.1 2.4 0 4.7.4 6.9 1.5 2.4 1.2 4.3 2.9 5.5 5.3 1 2 1.2 4 1 6.2-.2 1.9-.7 3.7-1.8 5.3-1.5 2.3-3.6 3.7-6.1 4.6-1.8.6-3.6.9-5.5.9H95c-.1.1-.2.1-.4.1zm7.8-12.8v9c.1 1 .7 1.6 1.7 1.7s2.1.1 3.1-.1c2.6-.4 4.6-1.8 5.8-4.2 1.3-2.8 1.6-5.7.7-8.7-.6-2.2-1.8-4-3.7-5.2-2.3-1.4-4.8-1.6-7.3-1.4-.1 0-.2.2-.2.3v1.5c-.1 2.4-.1 4.7-.1 7.1zm46.2 35.7l1.4-.9c2.4-1.4 5-1.2 7.1.6 1.3 1.1 2.1 2.6 2.4 4.2.6 3.7-.5 6.9-3.5 9.2-2.6 2-5.5 2-8.5.7-.4-.2-.7-.3-1.1.1-.3.3-.8.3-1.2 0-.4-.2-.6-.6-.5-1.1.1-.7.2-1.5.2-2.2.1-1.7.1-3.3.1-5V39.8c-.1-.8-.2-1-1.1-1.3-.4-.1-.6-.4-.7-.8 0-.4.1-.7.5-.9l3.3-1.5.2-.1c.8-.4 1.3-.1 1.3.8v10.4c.1.4.1.5.1.7zm-.2 6.2v3.5c0 1.8 1.6 3.2 3.4 2.9 1.5-.2 2.4-1.1 3.1-2.3.5-1 .7-2 .8-3.1.1-2.5-.8-4.4-2.9-5.8-.5-.3-1-.6-1.6-.6-1.1 0-1.9.5-2.6 1.2-.1.1-.1.3-.1.4-.1 1.3-.1 2.6-.1 3.8zm-34.2 1.4c-.5 2-1.7 3.6-3.7 4.4-2.1.9-4.1.5-6.1-.5-2.3-1.2-3.8-3.2-4.8-5.6-.9-2.2-.9-4.5-.5-6.8.3-1.5.7-2.9 1.7-4 2.4-2.8 5.4-3.8 9-3 2.2.5 3.5 1.8 4.1 4 .1.4.2.7.3 1h1.7v-.1c-.1-1.6-.2-3.2-.3-4.7 0-.4-.3-.7-.7-.9-1-.3-1.9-.7-2.9-.9-3.1-.9-6.1-1-9.1.1-3.8 1.4-6.4 3.9-7.8 7.6-.8 2.1-.7 4.3-.3 6.4.5 2.6 1.5 4.9 3.5 6.7 2.5 2.2 5.4 3.2 8.7 3.3 2.6.1 5.1-.6 7.6-1.6.4-.2.7-.5.7-1l.3-2.1.4-2.7-1.6-.4c0 .3-.1.6-.2.8zm21.2-46.6c-1.6.6-3.2 1.1-4.9 1.7-.4.1-.5.5-.5.9.1.5.4.8.9 1 .7.2 1 .6 1 1.3v8.6c0 .6-.1.7-.7.7h-1.5v1.8h7.9v-1.8H136s-.6-.1-.6-.6v-9.1l.1-.3c.8-.4 1.6-.9 2.5-1.2 1.9-.6 3.2.5 3.2 2.4v7.8c0 .9 0 .9-.9.9h-1.2V24h7.9v-1.8h-1.6c-.3 0-.5-.2-.5-.5v-8.4c0-.6-.1-1.2-.2-1.8-.3-1.5-1.1-2.7-2.7-3.1-.9-.2-1.7-.2-2.6-.1-1.3.2-2.5.9-3.6 1.6l-.3.2V8c0 .1 0 .1-.1.1zm-8.6 39.6c1 .2 1.2.4 1.2 1.4v8.4c0 1.6.6 3 2.1 3.8 1 .5 2.1.5 3.3.3 1.4-.3 2.5-1 3.6-1.8.1-.1.2-.2.4-.3v1.3c0 .6.4.9 1 .8.2 0 .4-.1.6-.2l4-.9c.1 0 .3-.1.3-.2v-1.4h-1.7c-.4 0-.4 0-.4-.4V46.4c-.1-.5-.4-.8-.9-.7l-1 .1c-1.4.1-2.7.2-4.1.4-.1 0-.3.1-.3.2-.3.8 0 1.2.8 1.5l1.6.6c.2.1.3.2.3.4v8c0 .1 0 .2-.1.3-.9.7-1.8 1.4-3 1.6-1.3.2-2.2-.4-2.5-1.7-.1-.5-.2-1.1-.2-1.6v-8.7c0-.9-.3-1.2-1.2-1.1-1.4.1-2.8.2-4.1.2h-.3v1.5c.1.2.3.2.6.3zm24.3-32.5c0 1.8.2 3.5 1.4 5 1.3 1.6 3.3 2 5.1 1 .7-.4 1.2-.9 1.8-1.3.2-.1.3-.2.4-.4.3.4.7.7 1 1-1.4 2.1-3.1 3.8-5.8 4.2-2.6.3-5.4-.7-6.6-3.7-1-2.4-1.3-4.8-.4-7.3.7-1.9 1.7-3.5 3.5-4.5 2.5-1.5 5.8-1 7.7 1 1.1 1.2 1.5 2.6 1.4 4.2 0 .5-.4.8-.9.8h-8.6zm.8-2c1.8 0 3.5.1 5.1.1.2 0 .3-.1.3-.4 0-1.8-1.4-2.8-3.1-2.4-1.3.4-2 1.4-2.3 2.7zm-28 46.1c-.3 0-.5-.2-.5-.5V36.003c0-.7-.5-1-1.1-.7-1.2.5-2.5 1.1-3.7 1.7-.4.2-.5.5-.5.9s.3.6.6.7c.9.3 1 .4 1.1 1.4v18.5c0 .7 0 .8-.8.8h-1.3v1.8h7.9v-1.8h-1.7zM175.1 23c0 .3.3.5.6.6l1.4.6c2.2.7 4.4.7 6.4-.6 1.5-1 2.2-2.4 2.1-4.2-.1-1.5-.9-2.7-2.2-3.4-.9-.5-1.8-.9-2.7-1.3-.8-.4-1.6-.8-2.3-1.4-.7-.7-.6-2 .3-2.5 1.2-.7 3.1-.5 3.9 1.2.2.3.3.7.4 1.1.2.4.4.6.8.6l.9-.1v-.1l-.3-3.4c0-.3-.2-.6-.5-.7L183 9c-1.8-.6-3.6-.8-5.4 0-2.2.9-3.3 3-2.8 5.2.3 1.5 1.2 2.5 2.5 3.2l2.7 1.4c.5.3 1 .6 1.4 1 .9 1 .4 2.6-.9 2.9-1.3.3-2.4 0-3.3-1.1-.5-.6-.8-1.3-1-2.1l-.3-.9-1.4.4c.3 1.4.5 2.7.6 4zm-4.3-.6h-2.4c-.3 0-.4-.1-.4-.4v-8c0-.9.6-1.4 1.3-1.8.6-.3 1.1-.1 1.6.3l.2.1c.4.2.8.3 1.3.2 1-.2 1.6-1 1.7-2 .1-1-.5-1.9-1.5-2.2-1.3-.4-2.4-.1-3.3.8-.4.3-.7.8-1 1.1l-.3.3V9.2c0-.7-.5-1-1.1-.7-1.2.6-2.5 1.1-3.7 1.8-.6.3-.6 1.2 0 1.5.2.1.4.2.5.3.5.2.7.5.7 1v8.5c0 .9 0 .9-.9.9H162v1.8h9.4v-1.8c-.3-.1-.5-.1-.6-.1zm-42.4.2c0-.1-.2-.2-.3-.2h-1.2c-.7 0-.7-.1-.7-.8V9c-.1-.5-.5-.8-1-.7-1.3.4-2.5.9-3.7 1.3-.4.1-.5.5-.5.8 0 .3.2.6.4.7l.6.3c.5.3.7.7.7 1.2v8.6c0 1-.1 1-1.1 1h-1V24h7.9c-.1-.4-.1-.9-.1-1.4zm-1.9-20.5c0-1.1-.9-2.1-2.1-2.1-1.1 0-2.1.9-2.1 2.1s.9 2.1 2.1 2.1c1.2.1 2.1-.9 2.1-2.1zM48.9 30.6c-.2-8.6-6.2-14.4-11.3-16.2v33.1c5.3-1.8 11.5-7.9 11.3-16.9zM24.6 14.5c-4.9 1.6-11.4 7.5-11.3 16.7 0 4.1 1.4 7.8 3.9 11 2 2.4 4.4 4.3 7.4 5.4V14.5z"/></svg>