<svg xmlns="http://www.w3.org/2000/svg" width="210.7" height="35.3" viewBox="0 0 210.7 35.3"><path d="M111.4.2c10 0 17.9 7.7 17.9 17.5s-7.9 17.5-17.9 17.5c-10.2 0-17.9-7.6-17.9-17.7 0-9.6 8-17.3 17.9-17.3zM9.7.8c10.6 0 18 6.9 18 16.8 0 4.9-2.3 9.7-6.1 12.9-3.2 2.7-6.9 3.9-12 3.9H0V.8h9.7zm7.7 25.3c2.3-2 3.6-5.2 3.6-8.5 0-3.2-1.4-6.4-3.6-8.4s-4.7-2.7-9-2.7H6.6v22.2h1.8c4.2 0 6.9-.8 9-2.6zm13.3 8.3h6.5V.8h-6.5v33.6zm22.6-20.7c-3.9-1.5-5.1-2.4-5.1-4.2 0-2.1 2.1-3.7 4.9-3.7 2 0 3.6.8 5.3 2.7L61.8 4C59 1.5 55.6.3 51.9.3 46 .3 41.4 4.4 41.4 9.9c0 4.6 2.1 7 8.3 9.2 2.6.9 3.9 1.5 4.5 1.9 1.3.9 2 2.1 2 3.5 0 2.7-2.2 4.7-5.1 4.7-3.1 0-5.6-1.6-7.2-4.5l-4.2 4.1c3 4.4 6.6 6.4 11.6 6.4 6.8 0 11.6-4.5 11.6-11 .1-5.3-2.1-7.8-9.6-10.5zm11.8 4c0 9.9 7.8 17.5 17.7 17.5 2.8 0 5.2-.6 8.2-2v-7.7c-2.6 2.6-4.9 3.7-7.9 3.7-6.6 0-11.3-4.8-11.3-11.6 0-6.4 4.8-11.5 11-11.5 3.1 0 5.5 1.1 8.2 3.8V2.1C88.1.6 85.8 0 82.9 0 73 .1 65.1 7.9 65.1 17.7zm79 5.7l-9-22.6h-7.2l14.3 34.5h3.5L160.2.8h-7.1l-9 22.6zm19.1 11h18.6v-5.7h-12v-9.1h11.6v-5.7h-11.6V6.4h12V.7h-18.6v33.7zm44.6-23.6c0 5.1-2.7 8.5-7.7 9.5l10.6 14.1h-8.1l-9.1-13.5h-.9v13.5h-6.5V.8h9.7c7.6 0 12 3.7 12 10zm-13.2 5.5c4.2 0 6.4-1.8 6.4-5.2 0-3.3-2.2-5-6.3-5h-2v10.2h1.9z"/></svg>