<svg xmlns="http://www.w3.org/2000/svg" width="254" height="73.8" viewBox="0 0 254 73.8"><path d="M215.6 49.2c-.4-2.8-2.3-4.9-5.1-5.1-3.2-.2-6.4 0-9.7 0v20.3h5v-6.9h1.3c.7-.1 1.1.2 1.4.8.9 1.9 1.9 3.7 2.9 5.5.2.5.5.6 1.1.6h4.2c.2 0 .4 0 .7-.1-1.6-2.9-3.1-5.6-4.7-8.4 2.6-1.5 3.2-4.2 2.9-6.7zm-6.8 3.9c-1 .2-1.9.1-3 .2v-5.1c1 .1 2 0 3 .2 1.3.2 1.7.9 1.7 2.3 0 1.3-.6 2.2-1.7 2.4zm26.5 4.6c.9 1.2 1.7 2.4 2.6 3.7-1.6 1.6-3.5 2.7-5.6 3.1-2.8.6-5.5.4-8-.9-3.9-2.1-5.5-5.5-5.4-9.7.1-4.2 2.1-7.5 6-9.2 4.1-1.8 8.1-1.4 11.8 1.2.6.4.7.7.3 1.4-.7 1-1.3 2-1.8 2.9-1.1-.6-2.2-1.2-3.4-1.6-3.4-1.1-6.5.5-7.4 3.8-.9 3.4.9 6.9 4.2 7.7 2.1.5 4-.2 5.7-1.4.2-.4.6-.7 1-1zm18.7 2.4v4.3h-13V44h12.8v4.3h-7.7V52h6.1v4.3H246v3.9l8-.1zm-62.8-30.3h8.3v4.3h-13.3V13.7h5v16.1zM96.6 34c3.9-.3 6.6-2.4 8-6.2.6-1.7.7-3.5.5-5.3-.3-4.4-3.1-7.8-7.4-8.5-3.4-.5-6.9-.4-10.4-.6v20.5c3.2.1 6.2.4 9.3.1zm-4.2-16c2.5-.1 5.1-.3 6.6 2.1s1.5 5 0 7.4c-1.5 2.5-4.1 2.3-6.6 2.2V18zm21.3 9.3c.5 0 .9.1 1.3 0 .8-.1 1.2.3 1.5.9.9 1.9 1.9 3.7 2.9 5.5.1.2.4.5.6.5h5.3c-1.6-2.9-3.2-5.7-4.7-8.5 1.8-1.1 2.7-2.6 2.9-4.6.5-3.9-1.6-7.1-5.3-7.3-3.1-.2-6.3 0-9.5 0v20.4h5v-6.9zm.1-9.3c1 .1 2 0 3 .2 1.3.2 1.8 1 1.7 2.3 0 1.3-.7 2.2-1.9 2.4-.9.1-1.8 0-2.8 0V18zm4.1 25.6c-6.2 0-10.7 4.5-10.7 10.4 0 6.1 4.6 10.7 10.7 10.7 6.2 0 10.7-4.6 10.7-10.7.1-5.9-4.5-10.4-10.7-10.4zm5.5 10.8c-.1 1.7-.7 3.3-2.2 4.6-2.4 1.9-5.7 1.5-7.6-.9-1.9-2.5-1.7-6.2.5-8.3 1.6-1.5 3.9-1.9 5.9-1 2.2.8 3.5 3 3.4 5.6zm28.7-10.5c.6 6.8 1.1 13.6 1.7 20.5h-5.1l-.8-12c-.1.2-.2.4-.2.6l-2.7 7.6c-.2.5-.4.7-.9.6h-3c-.5 0-.7-.2-.8-.6l-2.7-7.6c-.1-.2-.1-.4-.2-.7-.3 4.1-.5 8.1-.8 12.1h-5.1c.6-6.8 1.1-13.6 1.7-20.5h5.1c.2 0 .5.3.6.6 1.2 3.6 2.4 7.2 3.7 10.8l.2.5.2-.5 3.6-10.7c.2-.5.4-.6.9-.6 1.4 0 3-.1 4.6-.1zm-48.8 13.9c.7 1 1.6 2.2 2.6 3.7-.2.1-.6.3-.8.5-4.1 3.8-11.2 3.8-15.3-.1-3.1-3-3.9-6.9-2.7-10.9s4-6.4 8.1-7.2c3.3-.6 6.4 0 9.1 2 .6.4.8.8.3 1.4-.7 1-1.3 2-1.9 3-1.4-1-2.8-1.9-4.5-2-2.5-.3-4.6.8-5.7 2.8-1.2 2.2-.9 5.2.7 7.2 1.5 1.8 3.9 2.5 6.2 1.7 1.4-.5 2.5-1.3 3.9-2.1zm27.2-25.2c-1.7-1.3-2.6-3.1-2.7-5.1-.1-4.6 0-9.2 0-13.8h5v12.4c0 3.1 2.5 4.7 5.3 3.4 1.4-.6 1.8-1.8 1.8-3.2V13.6h4.9l.1.2c0 4.4.1 8.9 0 13.3-.1 3.8-2.5 6.3-6.1 7.1-3 .7-5.8.4-8.3-1.6zm-65.8-5.5c-.7 0-1.4-.1-2.1-.2v-.6c-.2-5.4-2.3-10-6.2-13.8-2.8-2.7-6.1-4.6-9.7-6-1.3-.5-2.5-1.1-3.4-2.1C42.1 3 41 1.5 39.8 0h-.1c-.3 2.7-1.1 5.2-3.8 6.6-1.1.6-2.2 1.2-3.4 1.8-6.4 3.2-10.4 8.2-11.7 15.2-.1.4-.3.5-.7.5-1.8-.1-3.6-.2-5.5-.4-.2-.4-.4-.9-.6-1.4-.4-.9-1-1.5-1.9-1.9-1.2-.5-2.4-1-3.5-1.5-.2-.1-.4-.3-.6-.5-1-1.6-2.5-2.4-4.4-2.1-1.8.3-3 1.4-3.5 3.1 0 .1-.1.1-.1.1v1.9c.4.7.7 1.4 1.3 2.1.8.9 1.8 1.2 3 1.3.5 0 1 .2 1.4.3 2 .4 2.9 1.8 3.7 3.7 3.2 8.2 6.6 16.4 9.9 24.6.2.5.2.9-.1 1.4-.8 1.2-1.5 2.5-2.3 3.8-1.3 2.3-.1 4.7 2.5 5 .6.1 1.2 0 1.8 0-.2.7-.5 1.4-.6 2.1-.6 3.8 1.6 7.1 5.3 8l.3.1h2.3c.4-.1.7-.2 1.1-.4 3.7-1.3 5.6-5.5 4.1-9.1l-.3-.6h15.4c-.2.8-.5 1.5-.6 2.3-.4 3.7 1.7 6.8 5.3 7.6l.3.1h2.3c.1 0 .2-.1.4-.1 3.6-.9 5.9-4.2 5.2-7.9-.1-.8-.5-1.6-.7-2.4l.6-.3c1.2-.8 1.6-2 1.4-3.3-.2-1.3-1.1-2.1-2.4-2.4-.4-.1-.9-.1-1.3-.1H25.2c.4-.7.8-1.3 1-1.8 1 .2 2 .5 2.9.5l27.8-1.2c1.3-.1 2.7.1 3.9-.6.8-.5 1.6-.9 2.5-1.3 1.1-.6 1.7-1.4 1.9-2.6l1-6.3c.7-4.2 1.4-8.5 2-12.7.4-2.7-1.4-4.1-3.5-4.1zm-45.2 6.2c-.2-.4-.7-.7-1-1l-.2-.2c-.2-.1-.3-.3-.4-.5-.3-.7-.2-1.8.7-2 0 0 .1 0 .1-.1.4-.2.8-.4 1.3-.3h.2c.5.2.6.7.5 1.2 0 .8-.2 1.6-.5 2.4l-.1.2c.2.4-.4.7-.6.3zm3.5 4.9c-.4.7-.9 1.1-1.4 1.5-.1.1-.2.1-.3.1-.3 0-.6-.1-.9-.3l-.3-.2c-.3-.3-.4-.8-.4-1.2s.1-.9.3-1.3c.2-.6.4-1.1.7-1.6.2-.4.8-.3.8.1v-.1s0 .1.1.1c.1.1.2.2.2.3l1.1 1.8c.1.1.2.2.2.3 0 .2-.1.4-.1.5zm.4 4.5c-.2-.4-.2-.8-.1-1.2l.1-.2v-.1c.2-.4.6-.7 1-.8.1-.1.2-.1.2-.2.5.6 1 1.2 1.6 1.8l.1.1.1.1v.304c-.1 1-1.7 1.8-2.4 1-.2-.1-.4-.5-.6-.8zm3.8 7l-.1.3c-.4.4-1.1.7-1.6.6-.5.1-1-.1-1.2-.5V50c-.1-.1-.2-.2-.2-.4-.1-.4.1-.8.3-1.1.1-.4.3-.8.8-1.1.1-.1.2-.1.3 0l.1-.1c.7.7 1.3 1.3 2 2.1l-.1.1c-.1-.1-.2.1-.3.2zm1.7-2.4c-.1 0-.1.1-.2 0-.1 0-.2 0-.2-.1-.7-.3-1.3-1.1-1.2-1.8 0-.1 0-.2.1-.3.4-.4.8-.7 1.3-1.2.7.5 1.4.9 2.2 1.4 0 0 .1 0 .1.1l.1.2c-.2 1.1-1.3 2-2.2 1.7zm6.3 2c.1.9-1 1.6-1.8 1.8-.4.1-.9.1-1.2 0-.5-.1-1-.4-1.2-.8-.4-.4-.3-1 .2-1.5.5-.6 1.1-.9 1.7-1.4.1-.1.3-.1.4-.1h.1c.5.5 1.1 1.2 1.8 2zm7.6 1.1c-.2.6-.7 1.2-1.3 1.4h-.2c-1.3.4-4-.6-2.8-2.3l.1-.2.1-.1v-.1l.3-.3c.9-.9 2.6-.9 3.6.2.1.1.2.2.2.4v.1c.3.4.2.7 0 .9zM56 42.6c.5-.5 1.1-1.2 1.8-1.9.1.2.2.3.4.5l.2.1.2.3c.1.1.1.2.1.3v.2c0 .2 0 .4-.2.7-.2.3-.5.5-.7.7l-.3.3c-.3.2-.6.4-1 .3-.3-.1-.6-.3-.7-.6-.2-.3 0-.7.2-.9zm-5.5 7.5c-.9 1.6-4.2 2.2-4 0V50c0-.6.1-1.2.6-1.7.4-.4.9-.6 1.4-1 .1-.1.2-.1.3-.1l.1.1h.1c.5.2.8.6 1.1 1.1l.6.6.1.1v.1c-.1.5-.2.7-.3.9zm.8-3.9c-.1-.2.1-.4.3-.5.7-.4 1.4-.9 2.2-1.4l.1.1c.1-.1.2-.1.3-.1.4.1.7.4.7.8v.3c.1.1.1.3 0 .4l-.1.5c-.1.6-.5 1-1.2 1.2-1.1.2-2.1-.3-2.3-1.3zm5.6 4.6h-.2c-1.2.4-2.6.2-2.5-1.2v-.304c.3-.6.8-1 1.3-1.3l.9-.9.2.2h.1c.2.1.3.2.4.4.1 0 .2.1.3.2.1.1.2.3.4.4.3.2.5.5.7.8.5 1-.8 1.6-1.6 1.7zm3.8-3.5c-.3.1-.5 0-.6-.2l-1.8-1.8c.6-.6 1.3-1.3 2-1.9.3.2.5.3.6.6l.1.1c1.2.6.7 2.7-.3 3.2zm1.6-9.4c0 .1 0 .2-.1.2-.2.8-.8 1.5-1.7 1.6-.2 0-.3-.1-.4-.2-.2-.3-.5-.6-.8-1 .4-.7.9-1.6 1.3-2.5l1.4 1.4c.3-.1.4.2.3.5zm2.4-3.4c-.2.4-.6.9-1.2.9-.8-.1-2.3-1.1-1.3-1.9 0 0 .1-.1.2-.1.2-.3.5-.6.8-.9 0-.1.1-.1.2-.2 0 0 0-.1.1-.1.2-.2.4-.1.5 0l.3.3.2.2v.2c.3.5.4 1.1.2 1.6zm94.6-6.8c3.2-.6 5.2-3 5.4-6.6.2-3.8-1.9-6.7-5.4-7.4-.4-.1-.9-.1-1.3-.1h-8.4v20.5h5v-6.3h3.2c.4 0 1 0 1.5-.1zm-4.7-4.2v-5.4c1.1 0 2.1-.1 3.1 0 1.2.1 2 1.3 1.9 2.8-.1 1.5-.9 2.5-2.2 2.6h-2.8zm23.5 20.4c.6 6.8 1.1 13.6 1.7 20.5h-5.1l-.7-12.1c-.1.2-.2.5-.3.8l-2.7 7.5c-.2.5-.4.6-.9.6h-3c-.5 0-.7-.2-.9-.6-.9-2.5-1.8-5-2.6-7.4-.1-.2-.1-.4-.3-.8-.3 4.1-.5 8.1-.8 12.1h-5.1l1.7-20.4h5.5c1.3 3.9 2.7 7.8 4 11.8.1-.1.1-.2.2-.4l3.6-10.8c.2-.5.4-.6.9-.6 1.5-.1 3.1-.2 4.8-.2zm-1-29.8c-.1-.2-.5-.4-.7-.4h-4c-.5 0-.8.1-.9.7-1.6 4.9-3.3 9.7-5 14.6-.6 1.7-1.2 3.5-1.8 5.3h4.9c.2 0 .4-.3.4-.5.3-1.1.7-2.2.9-3.3.1-.4.3-.5.7-.5h5.3c.4 0 .6.1.7.5.3 1.1.6 2.2 1 3.3.1.2.3.5.4.5h4.8V34c-2.2-6.7-4.4-13.3-6.7-19.9zm-4.8 11.7l2-7.1 1.9 7.1h-3.9zM189 60.1h8.1v4.3h-13.2V44h12.8v4.3H189V52h6.2v4.3h-6.1v3.8h-.1z"/></svg>