<svg xmlns="http://www.w3.org/2000/svg" width="148.7" height="67.5" viewBox="0 0 148.7 67.5"><path d="M35.3 0c2 .5 4.1.7 6 1.4 9.9 3.5 16.3 10.3 19.1 20.4.1.3.2.6.3 1h9.5V24h-3.3c2.3 6.7 4.6 13.2 7 20.1.3-1 .6-1.8.9-2.5 1-2.9 2-5.7 2.9-8.6.2-.5.2-1.1 0-1.5l-2.2-6.6c-.2-.6-.5-.9-1.1-.8-.7.1-1.4 0-2.2 0 0-.4 0-.7-.1-1.1h13v1.1h-4.8c2.3 6.7 4.5 13.3 6.9 20.1 2.4-6.8 4.7-13.4 7.1-20h-4.2c0-.4 0-.7-.1-1.1h7.1v1.1c-1.2-.3-1.3.7-1.6 1.5l-8.4 23.5c-.2.7-.6.9-1.3.9-1.9 0-1.9 0-2.4-1.8-1.4-4.1-2.8-8.2-4.2-12.4-.1-.4-.3-.7-.5-1.3-.7 2.1-1.4 3.9-2.1 5.8l-3.1 8.8c-.2.6-.4.9-1.1.8-1.9 0-1.9 0-2.5-1.8-2.7-7.7-5.4-15.5-8-23.2-.1-.3-.4-.6-.7-.8 1.3 14.5-4.3 25-17.2 31.7 24.8-2.6 49.5-2.6 73.9 2.1v-8.8h-6.6v-4.1c-.9 1-1.6 2.2-2.6 3-2.9 2.6-8.1 2.6-11.1.2-3.9-3.1-3.1-10.1 1.5-12 2.3-.9 4.8-1.2 7.2-1.8 1.5-.4 2.9-.8 4.4-1.3.3-.1.6-.6.6-.9.1-1.7 0-3.4 0-5.1 0-2.1-.8-3.4-2.4-4-2-.8-4.5-.4-5.6 1.1-.8 1-1.4 2.3-2 3.5-.5 1.1-.9 2.2-1.3 3.4-.3.9-.7 1.2-1.6.8v-6.5c0-2.1 0-2 2-2.7 3.3-1.1 6.6-1.6 10-.6 1.2.3 2.3.9 3.3 1.6 1.6 1.1 2.3 2.7 2.3 4.7V48h2.5c0 .5.1.8.1 1.2l.2-.1c.2.4.6.7.7 1.2.6 1.8 1 3.7 1.7 5.6.8 2.2 2.4 2.5 3.9.6s2.2-4.3 2.9-6.6c.1-.3-.1-.7-.2-1l-9.6-23.2c-.4-1-.8-1.6-2-1.3h-.4s-.1 0-.1-.1v-1.1h11.2v1.2h-3.8c2.5 6.1 5 12 7.6 18.1 2.1-6.1 4.2-12 6.2-18.1h-4.5v-1.2h8.4v1.1l-.5.1c-1.8.1-1.8.1-2.4 1.7-3.1 9-6.2 17.9-9.4 26.9-.4 1.2-1 2.3-1.6 3.4-.9 1.6-2.2 2.5-4.1 2.6 4.5 1.2 8.9 2.3 13.2 3.6s8.6 2.8 12.7 4.6c0 .1 0 .2-.1.3l-4.7-.7c-11.6-1.9-23.3-3.7-35.1-4.4-5.4-.4-10.8-.6-16.2-.7-7.6-.1-15.2-.2-22.8-.2-14 0-28 .5-42 1.8-9.2.8-18.3 1.9-27.2 4-.2 0-.4 0-.6-.1 9.3-4.4 19.2-6.9 29.6-8.9-1.2-.2-2.2-.4-3.1-.6C14.3 55.2 4.9 44.6 3.8 32.2 2.5 17.4 11.8 4.5 26.2 1l3.4-.7c1.7-.3 3.7-.3 5.7-.3zm16.8 31.8c.1-.2.1-.3.1-.5.1-3.9-.2-7.7-1.7-11.4-1.8-4.7-4.9-8.2-9.8-9.9-5.7-1.9-11.4-1.8-17 .3-4.2 1.6-7.3 4.4-9 8.6-2.7 6.4-2.8 13-.3 19.5 1.9 5 5.4 8.3 10.6 9.8 4.7 1.3 9.3 1.4 14.1.4 4.1-.9 7.4-2.9 9.9-6.3 1.2-1.6 2.2-3.4 2.8-5.6H40.9c-.3 0-.6.4-.7.7-.9 1.7-2.2 3.1-4.2 3.4-1.6.2-3.3.3-4.9 0-4.4-.6-7.5-4.9-6.7-9.1 9.2.1 18.4.1 27.7.1zm59 2.7c-1.5.4-2.8.8-4.2 1.2-1 .3-2.1.5-3.1.9-1.8.7-3 1.9-3.2 3.8-.1 1.4-.2 2.9 0 4.3.3 2.3 1.9 3.4 4.2 3.2.9-.1 1.9-.4 2.7-.9 1.6-1 2.5-2.6 3-4.4.9-2.6.6-5.4.6-8.1zM36.7 18.4c-3.1-1.7-6.2-1.7-9.1.4-2.1 1.5-3.1 3.6-3 6.2h16c0-3-1.4-5.2-3.9-6.6z"/></svg>