<svg xmlns="http://www.w3.org/2000/svg" width="224.8" height="52.9" viewBox="0 0 224.8 52.9"><path d="M40.8 40.7V27.3H53v25.6H26.8c-.5 0-.8-.2-1.1-.5-2.8-2.9-5.7-5.7-8.6-8.6l-2.6-2.6c-.1-.1-.2-.3-.4-.5h26.7zM12.3 12.3h26.8c-.3-.3-.4-.5-.6-.6L27.3.5c-.3-.3-.6-.4-1-.4H.1C0 1 0 25.2.1 25.7h12.1c.1-4.5.1-9 .1-13.4zm2.3 13.4h25.7c.4 0 .7-.1 1-.4l11.4-11.4c.2-.2.3-.5.3-.8V.5c0-.2 0-.3-.1-.5-4 0-8 0-12.1.1v13.8H26.5c-.5 0-.9.1-1.3.5-3.5 3.6-7.1 7.1-10.7 10.7l-.6.6h.7zM16.8 39h8.9V27.3l-.5-.1H12.7c-.4 0-.6.1-.8.4l-.9.9L.5 39c-.3.3-.4.5-.4.9v12.9c1.3.1 11.6.1 12.1-.1V38.9c1.7.1 3.2.1 4.6.1zM147 40.8h10.1c1.4 0 2.9-.2 4.3-.5 3.8-1 6.9-3.1 8.9-6.5 1.6-2.7 2.2-5.7 1.8-8.9-.4-3.5-1.8-6.5-4.5-8.9-2.9-2.6-6.4-3.7-10.2-3.7-3.5-.1-6.9 0-10.4 0h-.6v28.5h.6zm5.1-24h5.2c1.2 0 2.5.2 3.6.6 3.7 1.4 5.6 4.2 6.1 8.1.2 1.6 0 3.2-.6 4.7-1.3 3.3-3.8 5.2-7.3 5.8-.7.1-1.4.1-2 .1h-5.4c-.2-.5-.2-18.2-.1-19.3h.5zM73.7 29.2h13.1v-4.6h-13c-.1-1.6-.1-7.2.1-7.7h14.8v-4.5c-.7-.2-19.4-.1-19.9 0v28.4h5c-.1-3.9-.1-7.8-.1-11.6zm151.1 10.6V28.4c0-.7 0-1.3-.1-2-.3-3.2-2.1-5.4-5.3-6.2-2.7-.7-5.4-.7-8.1.1-1.1.3-2.2.7-3.2 1.3.6 1.3 1.2 2.5 1.7 3.8.2-.1.3-.1.4-.2 1.7-.9 3.4-1.3 5.3-1.3 1 0 2 .2 2.9.7 1.2.7 2 2.4 1.5 3.7l-.3-.1c-2.3-.5-4.5-.9-6.9-.6-.9.1-1.8.3-2.6.6-3.1 1.2-4.3 4-4 7 .3 2.8 1.9 4.6 4.6 5.3 1.5.5 3.1.5 4.7.3 1.7-.2 3.1-.9 4.2-2.3 0-.1.1-.1.3-.2v2.1h4.7c.2-.1.2-.3.2-.6zm-4.9-6.2c-.8 2.7-3.3 4.2-6 3.7-.6-.1-1.3-.3-1.8-.6-1.6-.9-1.8-2.8-.6-4.1.8-.8 1.8-1.2 2.8-1.2 1.9-.1 3.7.1 5.5.7.1 0 .2.1.3.2l-.2 1.3zm-28.9 7V28.31c0-.8 0-1.5-.1-2.3-.4-2.9-2-4.9-4.8-5.7-.8-.2-1.6-.4-2.4-.5-3-.3-5.8 0-8.5 1.4-.2.1-.5.3-.8.4.6 1.3 1.2 2.6 1.7 3.8.1-.1.2-.1.3-.1 2-1.2 4.2-1.5 6.5-1.2 2.4.3 3.7 1.9 3.3 4.2h-.3l-3-.6c-1.7-.2-3.4-.3-5 .1-3.7.8-5.4 3.3-5.6 6.1-.2 3.4 1.5 5.8 4.5 6.7 1.6.5 3.2.5 4.8.3 1.7-.2 3.1-1 4.2-2.3l.2-.2v2.1c1.9.1 3.4.1 5 .1zm-5.7-5.4c-1.8 2.6-4.8 2.7-7 1.6-1.7-.9-1.9-3-.5-4.3.7-.7 1.6-1 2.6-1.1 1.9-.1 3.8.1 5.6.7l.2.1c0 1.1-.3 2.1-.9 3zm-61.4-13.6c-1.4-.9-2.9-1.5-4.5-1.7-2-.2-3.9-.1-5.8.8-2 1-3.2 2.7-3.3 5-.1 2.4.9 4.2 3 5.3 1.1.6 2.2.9 3.3 1.3.7.2 1.4.4 2.1.7.4.2.8.4 1.2.7.9.8.9 2.1-.1 2.7-.3.2-.7.4-1 .4-2.4.4-4.4-.2-6.2-1.8-.2-.1-.3-.3-.5-.5l-2.6 3.6.6.5c2.4 1.9 5.1 2.6 8.1 2.5 1.5 0 3-.3 4.3-1 1.4-.7 2.3-1.8 2.7-3.3.4-1.2.3-2.5 0-3.7-.4-1.3-1.2-2.2-2.3-2.8-1.2-.7-2.5-1.1-3.8-1.5-.7-.2-1.5-.4-2.1-.7-.5-.2-.9-.5-1.3-.9-.8-.8-.6-2.2.4-2.8.3-.2.7-.3 1-.4 1.3-.3 2.5.1 3.6.6.5.2.9.6 1.5.9.8-1.1 1.6-2.3 2.5-3.5-.4-.1-.6-.3-.8-.4zm80.5-1.3h-4.6v-4.2H195v4.3h-2.7c-.1.8-.1 3.6 0 4.1h2.7v9.4c0 .6 0 1.3.1 1.9.2 2.7 1.8 4.5 4.4 5.1 1.2.3 2.5.3 3.7.1.9-.1 1.8-.3 2.6-.9l-1.5-3.8c-.3.2-.6.3-.9.4-2.1.8-3.7-.2-3.7-2.4v-9.4c0-.2 0-.4.1-.6h4.5c.1-1.3.1-2.6.1-4zm-70.6-.1V16h-4.7v4.3h-2.8c-.1.9-.1 3.6.1 4.1h2.7v9.8c0 .5 0 1 .1 1.4.2 2.8 1.8 4.7 4.4 5.3 1.2.3 2.5.3 3.7.1.9-.1 1.8-.3 2.6-.9-.5-1.3-1-2.5-1.6-3.8-.8.5-1.6.7-2.5.6-1-.1-1.6-.6-1.9-1.5-.1-.3-.1-.7-.1-1.1v-10l4.6-.1v-4.1c-1.5.1-3 .1-4.6.1zm-36 20.5h4.7V29.8c0-.5 0-1.1.1-1.6.3-1.9 1.6-3.2 3.5-3.5.8-.1 1.5 0 2.3 0 .2 0 .4.1.7.1V20c-2.8-.4-4.9.6-6.7 2.8v-2.4h-4.7c-.1 1-.1 19.8.1 20.3zm-7.5-.1h4.6V20.3h-4.6c-.2 1.4-.2 19.8 0 20.3z"/></svg>