<svg xmlns="http://www.w3.org/2000/svg" width="230" height="51.4" viewBox="0 0 230 51.4"><path d="M36.8 51.4l-2.1-.6c-3.6-1-6.7-2.9-9.2-5.6l-.2-.2v-.2c3.4.1 6.6-.7 9.6-2.3 3-1.6 5.6-3.6 7.8-6.2l-.3 3.3c-.2 1.7-.4 3.3-.6 4.9 0 .4.1.5.4.4l5.5-.4c.2 0 .3-.3.4-.5v-.2c0-4 .1-8 .1-12.1 0-2.3 0-4.5.1-6.8 0-.5-.1-.7-.7-.7-3 .2-6 .4-9.1.6-3.6.2-7.2.5-10.7.7-1 .1-1 .1-1 1.1v5c3.2-.5 6.4-1 9.8-1.5-.2.6-.4 1-.5 1.3-1.4 3.2-3.6 5.7-6.9 7.1-1.6.7-3.4 1.1-5.1.6-2.2-.5-3.1-2.1-3.4-4.2-.4-3.7 0-7.3 1.6-10.7 2.1-4.5 5.4-7.8 10-9.6 7-2.8 13.6-1.8 19.5 2.9 3.3 2.6 5.3 6 6.4 10.1.4 1.6.6 3.1.6 4.7v19.1h-22zM0 .1v40.406h13.6l-.2-.5c-1.1-2-1.5-4.1-1.5-6.3 0-2.5.5-4.9 1.4-7.3 2.7-6.8 7.4-11.8 13.8-15.3 3-1.7 6.3-2.7 9.7-2.8h3.1v-8.3c-13.3.1-26.6.1-39.9.1zm133.9 10.4c-.6 0-.7.2-.7.7v3.7c0 .6.2.8.8.7h6.7c.9 0 .9 0 .9.9v20.3c0 .6.2.8.8.8h5.8c.9 0 .9 0 .9-.9V16.6c0-.9 0-.9.9-.9h7c.4 0 .6-.1.6-.6v-3.8c0-.6-.2-.8-.8-.8h-22.9zm50.9 8.3c-.7 0-.8.2-.8.8v10.6c0 .6-.1 1.3-.3 1.8-.4 1.1-1.3 1.7-2.7 1.7-1.3 0-2.1-.4-2.5-1.6-.3-.8-.4-1.7-.4-2.6V19.4c0-.5-.1-.7-.7-.7h-5.6c-.6 0-.8.2-.8.8v11.8c0 2.9 1.8 5.7 4.9 6.4 2.5.6 4.9.3 6.9-1.4l.9-.6c.1.4.2.8.2 1.2 0 .4.2.6.6.6h6c.4 0 .5-.1.5-.6-.1-1.8-.2-3.6-.2-5.4V18.7c-1.8.1-3.9.1-6 .1zm-98.7 7.6h4.5c.9 0 .9 0 .9.8v6.2c0 .7-.3.9-.9 1.1-2.6.6-5.3.8-7.9.2-2.7-.5-4.8-1.9-5.8-4.5-.5-1.4-.8-2.9-1-4.4-.4-2.6-.2-5.1.9-7.5.9-2.1 2.3-3.7 4.5-4.6 1.5-.6 3-.7 4.6-.5 2.5.2 4.5 1.1 5.3 3.7 0 .1.3.3.5.3h2.9c.3 0 .5-.1.5-.5-.2-1.1-.5-2.1-1.1-3-1.3-1.8-3.1-2.7-5.2-3.3-3.1-.8-6.2-.6-9.1.6-4.6 1.9-6.6 5.9-7.3 10.5-.4 2.5-.4 5.1.3 7.6.6 2.2 1.6 4.2 3.3 5.8 2.3 2.2 5.2 3 8.3 3.2 3.6.2 7-.4 10.5-1.4.3-.1.6-.3.5-.7V23.8c0-.4 0-.7-.6-.7h-8.8c-.2 0-.5.2-.5.3v2.8c.3.2.5.2.7.2zm109.8 5.2c-.8 0-.9.1-.8.9.3 2.4 1.5 4.2 3.8 4.9 3.3 1.1 6.6 1.1 9.9 0 3.1-1 4.4-2.8 4.3-5.9 0-1.7-.7-3.3-2.3-4.1-1.2-.6-2.6-1-3.9-1.4l-4-1c-.9-.3-1.1-.7-1-1.5.1-.8.7-1.2 1.5-1.3h1c1 .1 1.5.6 1.6 1.6.1.5.3.7.8.7h5.3c.5 0 .7-.2.6-.7-.4-2.3-1.5-4.1-3.8-4.8-3.6-1.2-7.2-1.2-10.7.4-1.2.5-2.2 1.4-2.7 2.7-1 2.8 0 5.3 2.7 6.5 1.3.6 2.7.9 4 1.3 1.1.3 2.2.6 3.2 1.1s1.2 1.8.4 2.5c-.8.7-1.8.8-2.7.5-.9-.3-1.5-1-1.6-2 0-.4-.2-.5-.5-.5h-2.8c-.6.1-1.4.1-2.3.1zm29.7-18.2c-2.1.8-4.2 1.6-6.3 2.3-.4.1-.5.3-.5.7v1.7c0 .5-.2.7-.7.6h-2.5c-.4 0-.6.1-.6.6v3.3c0 .4.1.6.6.6h2.4c.6 0 .8.2.8.8v9.2c0 1.8.6 3.4 2.4 4.2.9.4 1.9.6 2.8.6 1.8 0 3.6-.1 5.4-.2.4 0 .6-.2.6-.6v-3.1c0-.4-.1-.5-.6-.5-.7 0-1.4.1-2.1 0-.8 0-1.2-.4-1.4-1.2 0-.3-.1-.6-.1-.8v-7.9c0-.5.1-.6.6-.6h3c.4 0 .6-.1.6-.6v-3.2c0-.4-.1-.6-.6-.6h-2.9c-.5 0-.7-.1-.7-.7v-4.69l-.2.1zM113 31.8c-.6 0-.8.2-.9.7-.2 1.1-.7 2.1-1.8 2.6-.7.3-1.5.4-2.2.5-1.4.1-2.6-.1-3.6-1.2-1.3-1.3-1.6-3-1.6-4.8 0-.6.2-.8.8-.8h11.8c.6 0 .8-.2.8-.8s0-1.3-.1-1.9c-.2-2.3-.8-4.3-2.5-5.9-1.3-1.2-2.8-1.7-4.5-1.9-3.3-.4-6.7.7-8.5 4.1-1.8 3.5-1.8 7.1-.6 10.7.6 1.9 1.8 3.4 3.7 4.2 2.9 1.2 5.8 1.1 8.6-.2 2.1-1 3.3-2.8 3.7-5.3-1.3 0-2.2.1-3.1 0zm-9.7-5.4c-.2 0-.5-.2-.5-.3-.2-1.7 1.2-4.2 2.9-4.9 2.4-1.1 5.9-.1 6.5 3.3l.2 1.3v.6h-9.1zm50.9-6.9l.1 5v12.4c0 .4 0 .7.5.7h6c.3 0 .5-.1.5-.5v-.6c0-2.7 0-5.4.1-8.1.1-1.7.8-3.1 2.5-3.7 1-.3 2.1-.3 3.2-.4.5 0 .7-.2.7-.7V19c0-.5-.2-.7-.7-.7-2.4.2-4.4.9-5.3 3.4 0 .1-.2.1-.5.3v-2.6c0-.3-.1-.5-.5-.5h-6.7c.1.2.1.4.1.6zm-27.1-1.2l-.9.1c-3.4.6-5.7 2.4-6.8 5.6-.9 2.6-.9 5.2-.2 7.8.7 2.4 2.1 4.4 4.5 5.5 2 .9 4.2 1.1 6.3.7 2.8-.4 4.9-1.9 6.2-4.4 1.2-2.5 1.5-5.1 1-7.8-.3-1.6-.8-3.1-1.9-4.4-1.9-2.4-4.5-3.2-7.4-3.2-.2 0-.5.1-.8.1zm-4.2 6.2c.8-2.9 3.2-4 6-3.7 2.4.3 3.8 1.7 4.4 3.9.7 2.5.7 5.1-.2 7.6-.9 2.5-2.9 3.5-5.4 3.3-3.3-.2-4.6-2.5-5.1-5.2-.1-.7-.1-1.5-.2-2.3h-.1c.2-1.2.3-2.4.6-3.6z"/></svg>