<svg xmlns="http://www.w3.org/2000/svg" width="194.7" height="43.2" viewBox="0 0 194.7 43.2"><path d="M0 20.1c.2-1.3.4-2.6.7-3.9C2.9 7.5 10.4 1 19.4.1c6.5-.6 12.2 1.3 17.1 5.7 1 .9.9 1.5-.2 2.2l-5.6 3.6c-.6.4-1.2.4-1.8 0-7.5-5.4-17.9-1-19.3 8.2-1.2 7.8 5.5 14.8 13.4 13.9 3.6-.4 6.4-2 8.6-4.9.3-.4.6-.8.3-1.4-.3-.5-.7-.6-1.2-.5H20.6c-1.1 0-1.4-.3-1.4-1.5v-4.2c0-1 .4-1.3 1.4-1.3h21.6c1 0 1.3.3 1.3 1.3.3 10.6-7.7 20.2-18.2 21.7C13.4 44.7 2.7 37 .5 25.2L.2 23c-.2-.9-.2-1.9-.2-2.9zm160.7 17.3c0 1.2.2 1.4 1.4 1.4h6.2c1.2 0 1.5-.2 1.5-1.5V20.1c0-.5.1-1 .7-1.1.6-.2.9.1 1.2.6s.5 1 .9 1.4c4.2 5.7 8.3 11.4 12.5 17 .4.5.8.7 1.4.7h6.8c1.1 0 1.4-.3 1.4-1.4V5.4c0-1.1-.3-1.4-1.4-1.4H187c-1.2 0-1.5.2-1.5 1.5 0 5.7 0 11.4.1 17.1 0 .5-.1 1-.7 1.1-.6.2-.9-.1-1.2-.6l-.9-1.5-12.4-17c-.4-.5-.8-.7-1.4-.7h-6.8c-1.1 0-1.4.3-1.4 1.4v15.9c-.1 5.6-.1 10.9-.1 16.2zm-57.3-15.9c0 10.2 8.2 18.4 18.3 18.4s18.4-8.2 18.4-18.3c0-10.1-8.2-18.4-18.3-18.4-10.1 0-18.4 8.2-18.4 18.3zm27.5.1c0 5-4.1 9.1-9.2 9.1-5 0-9.1-4.2-9.1-9.2 0-5 4.1-9.1 9.2-9.1s9.1 4.1 9.1 9.2zM50.3 1.2c0-.9-.4-1.2-1.2-1.2h-2.9s-1.3.4-1.3 1.3v2.4c0 .6-.2.9-.7 1.2-5 2.3-8.3 6.2-10 11.4-.4 1.2 0 1.7 1.2 1.7H42c.9 0 1.4-.3 1.9-1.1 2.6-4.5 8.3-5.9 12.7-3.2 4.4 2.7 5.7 8.4 2.9 12.7-3 4.6-9.2 5.6-13.6 2.1-.9-.7-1.6-.5-1.9.5-.7 2.1-1.7 4.1-3 5.9-.5.7-.4 1.2.3 1.7.9.6 1.9 1.2 2.9 1.6.5.2.7.5.7 1.1v2.5c0 .9.4 1.3 1.3 1.3h2.9c.9 0 1.2-.4 1.2-1.2V40h3v1.9c0 .9.3 1.2 1.2 1.3h3c.9 0 1.2-.4 1.2-1.2v-2.5c0-.6.1-.9.7-1.1 7.7-3.5 12.1-11.9 10.4-20.2C68.6 12 65 7.6 59.3 4.9c-.5-.2-.6-.5-.6-1V1.3c0-.9-.4-1.3-1.3-1.3h-2.9c-.9 0-1.2.4-1.2 1.3v1.9h-3v-2zm50.1 28.4c0-.3-.3-.8-.5-1-.3-.1-.8 0-1.1.2-.6.3-1.1.8-1.7 1.2-5.1 3-11.5.6-13.3-5-.7-2.4-.7-4.8.1-7.1 1.1-3.4 3.5-5.6 7.1-6.1 2.9-.4 5.4.4 7.6 2.3.4.3.8.6 1.4.3.5-.3.5-.8.5-1.2V8.1c0-2.7 0-2.8-2.6-3.6-6.2-2-12.1-1.6-17.4 2.6-4.5 3.6-6.6 8.5-6.6 14.2 0 4.1.9 7.9 3.4 11.3 5.8 7.9 15.3 8.5 22.5 5.2.5-.2.7-.6.7-1.1v-3.5l-.1-3.6zm53.9-24c0-1.1-.3-1.4-1.4-1.4h-6.8c-1 0-1.3.3-1.3 1.3v32.1c0 1 .3 1.3 1.3 1.3h6.8c1.1 0 1.4-.3 1.4-1.4V5.6z"/></svg>