<svg xmlns="http://www.w3.org/2000/svg" width="221.5" height="70.2" viewBox="0 0 221.5 70.2"><path d="M19.8 26.6c.5 1.6.9 3.3 1.3 5 .3 1.7.6 3.6.7 5.7.1 2.1-.1 4.3-.6 6.4-.5 2.2-1.3 4.1-2.5 5.9-.6-2.2-1.5-4.3-2.7-6.4s-2.5-3.8-3.9-5.1c-1.3-1.4-2.7-2.6-4-3.7-1.3-1.1-2.4-1.8-3.2-2.3s-1.2-.7-1.3-.8C1.9 30.4.8 29 .3 27.2S0 23.7.9 22c.9-1.7 2.3-2.8 4.1-3.3s3.6-.3 5.2.6c3.7 2.4 6.9 4.8 9.6 7.3zM33 15c.3.7.6 1.3.8 1.9.3.6.7 1.9 1.5 4.1.7 2.1 1.3 4.2 1.7 6.1.4 1.9.8 4.3 1 7.3.3 2.9.3 5.7 0 8.3s-.9 5.4-1.9 8.5c-1 3-2.4 5.8-4.3 8.4-1.4 1.9-3.2 2.9-5.6 2.9-1.5 0-2.8-.4-4-1.3-1.5-1.1-2.5-2.6-2.8-4.4-.3-1.9.1-3.6 1.1-5.1 1.6-2.3 2.7-4.9 3.3-7.9.6-3 .7-5.7.5-8.1-.2-2.4-.6-4.9-1.3-7.3-.6-2.5-1.2-4.2-1.6-5.2-.4-1-.7-1.7-.9-2.1-.8-1.7-1-3.5-.3-5.2.6-1.8 1.8-3.1 3.5-3.9.9-.5 1.9-.7 3-.7 1.3 0 2.5.3 3.6 1 1.2.6 2.1 1.5 2.7 2.7zm13 27.1c-.5 4.3-1.4 8.5-2.9 12.6-.5-3.5-1.3-6.9-2.6-10 .7-4.7.6-9.6-.2-14.6-.7-4.8-2-9.4-3.8-13.8 3.1 2.4 5.9 5.3 8.6 8.5.2 1 .4 2.1.6 3.2.7 4.9.8 9.5.3 14.1zM57 6.7c.2.5.6 1.1 1 2 .4.9 1 2.5 1.8 4.8s1.5 4.7 2 7.2c.6 2.5 1 5.6 1.4 9.2.3 3.6.4 7.3.2 10.9-.2 3.6-.8 7.7-1.9 12.1-1.1 4.5-2.6 8.8-4.6 13.1-.6 1.3-1.5 2.3-2.7 3.1-1.2.7-2.5 1.1-3.8 1.1-1.1 0-2.1-.2-3-.6-1.8-.8-3.1-2.2-3.7-4.1-.7-1.9-.6-3.7.2-5.5 1.6-3.4 2.8-6.9 3.6-10.4.9-3.6 1.4-6.8 1.5-9.7.1-2.9.1-5.8-.1-8.6s-.6-5.3-1.1-7.3-1-3.9-1.6-5.6-1-2.9-1.3-3.6c-.3-.7-.5-1.2-.6-1.3-.9-1.8-1.1-3.6-.5-5.5.6-1.9 1.8-3.3 3.5-4.2 1-.5 2.1-.8 3.3-.8 1.3 0 2.6.3 3.7 1 1.2.5 2.1 1.5 2.7 2.7zm127.5 7.5c1.1.9 3.4 2.8 3.4 6.4 0 3.5-2 5.2-4 6.8-.6.6-1.3 1.3-1.3 2.3s.7 1.6 1.2 2.1l1.7 1.3c2.1 1.8 4 3.4 4 6.7 0 4.5-4.3 9-12.6 9-6.9 0-10.3-3.3-10.3-6.8 0-1.7.9-4.2 3.7-5.8 3-1.8 7-2.1 9.1-2.2-.7-.9-1.4-1.8-1.4-3.2 0-.8.2-1.3.5-1.9l-1.5.1c-5.1 0-7.9-3.8-7.9-7.5 0-2.2 1-4.6 3.1-6.4 2.7-2.2 6-2.6 8.5-2.6h9.8l-3.1 1.7h-2.9zm-3.4 21.2H180c-.4 0-3 .1-5 .8-1 .4-4.1 1.5-4.1 4.9 0 3.4 3.3 5.8 8.4 5.8 4.6 0 7-2.2 7-5.2 0-2.5-1.6-3.8-5.2-6.3zm1.4-9.1c1.1-1.1 1.2-2.6 1.2-3.5 0-3.4-2.1-8.8-6-8.8-1.2 0-2.6.6-3.3 1.6-.8 1-1 2.3-1 3.5 0 3.2 1.9 8.5 6 8.5 1 0 2.3-.6 3.1-1.3zm-28 8.3c-7.6 0-11.6-5.9-11.6-11.2 0-6.2 5.1-11.6 12.3-11.6 7 0 11.4 5.5 11.4 11.2 0 5.6-4.4 11.6-12.1 11.6zm5.9-3.9c1.1-1.5 1.4-3.4 1.4-5.3 0-4.2-2-12.2-7.9-12.2-1.6 0-3.1.6-4.3 1.6-1.9 1.7-2.2 3.8-2.2 5.8 0 4.7 2.3 12.5 8.1 12.5 1.9.1 3.8-.8 4.9-2.4zm-31.8 3.9c-7.6 0-11.6-5.9-11.6-11.2 0-6.2 5.1-11.6 12.3-11.6 7 0 11.4 5.5 11.4 11.2 0 5.6-4.3 11.6-12.1 11.6zm6-3.9c1.1-1.5 1.4-3.4 1.4-5.3 0-4.2-2-12.2-7.9-12.2-1.6 0-3.1.6-4.3 1.6-1.9 1.7-2.2 3.8-2.2 5.8 0 4.7 2.3 12.5 8.1 12.5 1.9.1 3.8-.8 4.9-2.4zm-21.2 3.1l-6.9 1.6c-2.8.4-5.3.8-7.9.8-13.2 0-18.3-9.7-18.3-17.3C80.3 9.6 87.4 1 99.7 1c2.6 0 5.1.4 7.3 1 3.6 1 5.3 2.3 6.3 3l-4 3.8-1.7.4 1.2-1.9c-1.6-1.6-4.6-4.5-10.3-4.5-7.6 0-13.3 5.8-13.3 14.1 0 9 6.5 17.5 17 17.5 3.1 0 4.6-.6 6.1-1.2v-7.7l-7.2.4 3.8-2.1h10.2l-1.2 1.2c-.3.3-.4.4-.5.8 0 .4-.1 1.8-.1 2.3v5.7h.1zm86.2-1.3c-1.6-.1-1.9-.4-1.9-2.3V2.8c.2-1.7.7-2 2.2-2.8h-6.8l-3.6 1.7h3.7v29.6c0 1-.2 1.1-1.3 2.5h8.5l1.8-1.1-2.6-.2zm19.5.4c-.5.3-1 .6-1.6.9-1.6.7-3.2.9-4.6.9-1.5 0-3.9-.1-6.3-1.9-3.4-2.4-4.9-6.5-4.9-10 0-7.4 6-11 10.9-11 1.7 0 3.5.4 4.9 1.3 2.4 1.6 3 3.6 3.3 4.7l-11.2 4.5-3.7.3c1.2 6 5.3 9.6 9.8 9.6 2.4 0 4.2-.9 5.8-1.7l-2.4 2.4zm-4.4-14.2c.9-.3 1.4-.6 1.4-1.3 0-1.9-2.1-4.1-4.7-4.1-1.9 0-5.5 1.5-5.5 6.6l.1 2.5 8.7-3.7zM82 52.6l1.7 7.7c.3 1.7.7 3.3.9 4.8h.1c.3-1.5.7-3.2 1.1-4.8l2-7.8h1.9l1.9 7.6c.5 1.8.8 3.4 1.1 5h.1c.2-1.5.5-3.1.9-4.9l1.8-7.6h2.2l-4 15.2h-2l-1.9-7.3c-.4-1.7-.8-3.2-1.1-5h-.1c-.3 1.8-.7 3.4-1.1 5l-2 7.2h-2l-3.7-15.2H82v.1zm28.3 11.5c0 1.3.1 2.6.2 3.7h-2.2l-.2-1.9h-.1c-.8 1.2-2.2 2.3-4.2 2.3-2.8 0-4.2-2.2-4.2-4.4 0-3.7 2.9-5.7 8.2-5.7v-.3c0-1.2-.3-3.5-3.1-3.5-1.3 0-2.6.4-3.6 1.1l-.6-1.9c1.1-.8 2.8-1.3 4.5-1.3 4.2 0 5.2 3.2 5.2 6.2l.1 5.7zm-2.4-4.1c-2.7-.1-5.8.5-5.8 3.4 0 1.8 1.1 2.6 2.3 2.6 1.8 0 3-1.3 3.4-2.5.1-.3.1-.6.1-.9V60zm6.1-14.1h2.3v21.9H114V45.9zm5.1 0h2.3v21.9h-2.3V45.9zm6.6 14.8c.1 3.7 2.1 5.3 4.5 5.3 1.7 0 2.8-.3 3.6-.8l.4 2c-.8.4-2.3 1-4.4 1-4 0-6.4-3.1-6.4-7.7s2.3-8.2 6.1-8.2c4.3 0 5.4 4.3 5.4 7.1 0 .6 0 1-.1 1.3h-9.1zm6.9-2c0-1.7-.6-4.5-3.3-4.5-2.4 0-3.5 2.6-3.7 4.5h7zm7.3-11.6v5.4h3.1v2.1h-3.1v8.2c0 1.9.4 3 1.6 3 .6 0 .9-.1 1.3-.2l.1 2.1c-.4.2-1.1.4-1.9.4-1 0-1.8-.4-2.3-1.2-.6-.9-.8-2.2-.8-4v-8.3h-1.8v-2.1h1.8v-4.6l2-.8z"/></svg>