<svg xmlns="http://www.w3.org/2000/svg" width="146.8" height="39" viewBox="0 0 146.8 39"><path d="M94.2 10.6c-4.6-2.4-9.4-3.8-14.3-4.2-5.2-.4-9.2.5-12 2.9-2.9 2.4-4.3 5.8-4.4 10.2-.1 4.5 1.4 7.9 4.4 10.2 3 2.4 7 3.3 12 2.9 4.8-.4 9.6-1.8 14.3-4.2v8.1c-5.1 1.2-10.1 2-15 2.2-4.8.2-9.2 0-13-.7s-6.9-1.5-9.2-2.7-4.2-2.6-5.9-4.4c-1.6-1.7-2.7-3.5-3.2-5.4s-.8-3.9-.9-6.1c0-2.8.5-5.3 1.6-7.6s2.7-4.4 5-6.2c2.3-1.9 5.7-3.3 10.1-4.4C68.1.1 73.3-.2 79.3.2c2.2.1 4.5.4 7 .8s4.4.7 5.9 1l2.1.5-.1 8.1zM26.7 1.4h16.4v22c0 10.4-7.9 15.6-23.6 15.6-3.2 0-6.5-.2-9.7-.6-3.2-.4-5.7-.8-7.4-1.2L0 36.6v-8.1c5.9 2.8 11.4 4.2 16.4 4.2 3.2 0 5.7-.9 7.5-2.6 1.8-1.7 2.7-4 2.7-6.7v-22h.1zm109.2 17.7c3.2.3 5.9 1.3 7.9 2.9s3 3.7 3 6.3c0 1.9-.5 3.5-1.6 4.9-1.1 1.4-2.5 2.5-4.3 3.4-1.8.8-3.9 1.2-6.2 1.1H99.4V1.4H134c3 .1 5.6 1 7.5 2.5 2 1.5 3 3.7 3 6.3 0 2.2-.8 4.1-2.3 5.7s-3.6 2.6-6.3 3.2zm-21.3-2.9h10c.6 0 1 0 1.1-.1 1.1-.2 2-.7 2.7-1.5.8-.8 1.1-1.8 1.1-3.1 0-1.2-.4-2.2-1.1-3-.8-.8-1.6-1.3-2.7-1.5-.3-.1-.6-.2-1.1-.2h-10v9.4zm11 15.6c.6 0 1 0 1.1-.1 1.2-.2 2.1-.7 2.9-1.6.8-.9 1.1-2 1-3.3 0-.9-.2-1.6-.5-2.3-.3-.7-.8-1.2-1.4-1.7-.6-.4-1.3-.8-2.1-.9l-1.1-.1h-11v10h11.1z"/></svg>