<svg xmlns="http://www.w3.org/2000/svg" width="183.8" height="55.4" viewBox="0 0 183.8 55.4"><path d="M61.6 1.4c.7.9.8 1.9.8 3-.1 3.5 0 7 0 10.5 0 1.8.6 3.3 2 4.6l6.6 6.6c1.4 1.4 1.4 2.2 0 3.6-2.2 2.2-4.3 4.4-6.5 6.5-1.4 1.3-2 2.9-2 4.8.1 3.8 0 7.5 0 11.3 0 1.5-.6 2.1-2.1 2.1H11.5c-1.5 0-2.1-.6-2.1-2.2 0-3.9.1-7.8 0-11.7 0-1.1-.3-2.4-.9-3.2-2.7-2.9-5.6-5.7-8.5-8.5v-2c.2-.1.3-.1.4-.2C3 24 5.5 21.4 8 18.8c1-1 1.4-2.2 1.4-3.6V5.7c0-1.5-.2-3 .6-4.4 17.2.1 34.4.1 51.6.1zM35.9 6.6H16.8c-1.6 0-2.3.7-2.3 2.3v8.7c0 1.8-.6 3.2-1.9 4.5-1.5 1.4-2.9 2.8-4.2 4.3-1.1 1.1-1 1.9.1 3l4.2 4.2c1.2 1.2 1.9 2.6 1.9 4.5-.1 2.9 0 5.9 0 8.9 0 1.8.7 2.4 2.5 2.4h37.6c1.9 0 2.5-.6 2.5-2.5v-9c0-1.6.5-2.9 1.7-4 1.6-1.5 3.1-3 4.6-4.6 1-1 1-1.6 0-2.6-1.6-1.7-3.2-3.3-4.8-4.9-1-1-1.5-2.3-1.5-3.7v-9c0-1.6-.7-2.3-2.3-2.3-6.4-.2-12.7-.2-19-.2zm89 2.1c-.1-.1-.1-.2-.1-.2-.3-1.7-.3-1.7-1.9-1.4-.5.1-.8.3-.8.9v13.6c0 2 0 1.9 1.9 2 .8 0 1-.2 1-1 0-2.9 0-5.7.1-8.6.1-1.5.6-2.9 1.7-4 1.7-1.6 4.2-1.2 5.1.9.3.7.4 1.5.4 2.2v8.5c0 1.9 0 1.9 1.8 1.9 1 0 1 0 1-1 0-3 0-5.9.2-8.9.1-1.4.7-2.6 1.7-3.6 1.6-1.5 4-1.3 4.9.6.3.7.5 1.6.5 2.3.1 2.8 0 5.6 0 8.3 0 2.3 0 2.3 2.3 2.3h.1c.2-.2.6-.4.6-.6 0-3.8.2-7.6-.1-11.4-.3-4.4-3.8-6-7.5-4.8-1.4.4-2.3 1.4-3.1 2.6-3.1-3.9-6.3-3.8-9.8-.6zm42 31.2v-8.6c0-.6.2-.8.9-.8 2 0 2 0 2 2v21.4c0 .8-.2 1-1 .9-1.7 0-1.4.2-1.6-1.5 0-.2-.1-.3-.1-.6l-.6.3c-2.6 3.3-8.9 3.1-11.6-1.6-2-3.4-1.7-7.9.7-11 2.6-3.4 7.9-3.9 10.7-1l.6.5zm.3 6.4c-.2-.9-.3-1.9-.7-2.7-.8-2-2.3-3.2-4.5-3.4-1.8-.1-3.3.7-4.2 2.2-1.5 2.5-1.6 5.1-.2 7.7 1.6 2.8 4.9 3.3 7.3 1.2 1.6-1.2 2.2-3 2.3-5zm-38.6-6.4v-1.2c0-.5.2-.7.7-.6h.1c2.6.3 2.1-.1 2.2 2.4v13.4c0 .6-.2.9-.8.8h-.2c-1.4 0-1.4 0-1.6-1.5 0-.2-.1-.3-.1-.6-.2.1-.4.2-.4.3-2.3 3-7.5 3-10.2.3-4-3.8-3.7-11.5 1.2-14.6 2.5-1.6 6.6-1.5 8.7.8-.1.3.1.3.4.5zm.2 6.1c-.2-.6-.3-1.7-.8-2.7-1.5-3.5-6.1-4.1-8.3-1.2-1.9 2.3-1.8 6.4.1 8.7 1.7 2.1 4.5 2.4 6.6.7 1.7-1.3 2.3-3.1 2.4-5.5zm-31.6 8.3c3.7-1.8 4.7-6.7 1.8-9.6-1-1-2.4-1.7-3.7-2.5-1.3-.8-2.7-1.5-4-2.4-1.2-.9-1.3-2.3-.8-3.7.5-1.2 1.5-1.9 2.9-2 1.6-.1 3.2.1 4.7.8.5.2.8.2 1-.4.1-.4.3-.8.5-1.2.3-.5.1-.8-.3-.9-2.5-.9-5-1.5-7.6-.7-2.3.7-3.9 2.2-4.3 4.6-.5 2.6.2 4.9 2.5 6.4 1.5.9 3.1 1.7 4.6 2.5 1.2.6 2.3 1.3 2.9 2.6.8 2-.4 4.1-2.7 4.7-2.3.6-4.5-.1-6.6-1-.4-.2-.7-.4-1 .2-.6 1.3-.7 2-.2 2.3h.1c1.9.8 3.9 1.5 6 1.4 1.5-.2 2.9-.4 4.2-1.1zm15-38.8h-5.4c-.6 0-.8.2-.7.8.4 3.2 2.6 5.2 5.8 5.1 1.3-.1 2.7-.5 4-.8.5-.1.7-.1.9.4.6 2.1.6 2.1-1.6 2.6-2.7.6-5.4.8-7.9-.6-2.7-1.5-4-3.9-4.2-6.9-.2-2.5.3-4.8 1.9-6.8 2-2.5 4.6-3.3 7.7-2.7 2.9.5 4.6 2.5 5.4 5.2.3 1 .3 2 .5 2.9.1.6-.2.8-.7.8h-5.7zm-1.3-2.1h3.9c.5 0 .8-.1.7-.7-.7-2.5-2.2-3.9-5.1-3.6-2 .2-3.2 1.6-3.8 3.4-.2.6-.1.8.5.8 1.2.1 2.5.1 3.8.1zm38.1 2.1c.2-3.9 1.6-6.7 5-8.3 4.7-2.1 10.4.1 11.7 5.6 1 3.8.1 7-3 9.5-4.2 3.4-11.7 2-13.4-4.6-.1-.8-.2-1.7-.3-2.2zm14.1-.8c-.1-.5-.3-1.5-.7-2.4-.9-2-2.5-3.1-4.6-3.2-1.9-.1-3.5.7-4.6 2.4-1.5 2.4-1.6 4.9-.1 7.4s4.4 3.3 7 1.9c2.1-1.2 2.9-3.2 3-6.1zm9.3-6.2c0-1.8 0-1.8-1.8-1.5-.6.1-.8.3-.8 1v13.5c0 2 0 2 2 2.1.7 0 .9-.2.9-.9 0-2.6 0-5.2.1-7.8.1-1.9.6-3.6 2.1-4.9 1.7-1.3 4.5-1.4 5.5.9.3.7.4 1.5.4 2.2v8.3c0 2.2 0 2.2 2.2 2.1.6 0 .8-.2.8-.8v-9.4c0-.6 0-1.2-.1-1.9-.4-2.4-1.4-4.2-3.9-4.9-2.2-.6-4.4-.2-6.2 1.4-.4.4-.8.9-1.2 1.5v-.9zm-33.6 31.1c-.2-1.6-.1-1.6-1.7-1.4-.7.1-.9.3-.9 1v13.6c0 1.9 0 1.9 1.9 1.9.8 0 1-.2 1-1 0-2.7-.1-5.5.1-8.2.1-2 .9-3.7 2.7-4.8 1.8-1 4.1-.5 4.8 1.4.3.7.4 1.5.4 2.3v9.5c0 .6.2.9.8.8h1.5s.7-.2.7-.7c0-3.6 0-7.3-.1-10.9-.1-3.3-2.2-5.4-5.3-5.6-2.1-.1-4 .4-5.3 2.3l-.4.3c-.2-.1-.2-.3-.2-.5zM87.9 22.7c0 .7.2.9.9.9h9.6c2.3 0 1.9.3 1.9-2 0-.6-.3-.7-.8-.7h-7.8c-.6 0-.9-.2-.9-.9V.9c0-.8-.3-1-1-.8-.4.1-.8.2-1.3.2-.6 0-.7.3-.7.9v10.7c.1 3.6.1 7.2.1 10.8zM108 45.2v-4.1c0-.7.2-1 1-.9.8.1 1.5 0 2.3 0 .6 0 .9-.2.8-.8v-.6c.1-.5-.2-.7-.7-.7H109c-.7.1-.9-.2-.9-.9V34c0-.7-.2-.8-.8-.6-.5.2-.9.3-1.4.4-.5.2-.9.4-.8 1.1.1.5 0 1.1 0 1.6 0 1.5 0 1.5-1.5 1.6-.2 0-.6.2-.7.3-.5 1.2 0 1.9 1.2 1.8.9-.1 1 .3 1 1v8.9c0 1.9.7 3.5 2.4 4.5 1.3.7 2.7.7 4.1.6 1.7-.2 1.8-.3 1.3-2-.2-.7-.3-1-1.2-.8-1.7.5-3.5.1-3.6-2.3l-.1-4.9z"/></svg>