<svg xmlns="http://www.w3.org/2000/svg" width="244.7" height="53.9" viewBox="0 0 244.7 53.9"><path d="M0 26.9C0 12 12.1 0 27.1 0 41.9 0 54 12.2 53.9 27.1c-.1 14.9-12.1 26.8-27 26.8C12.1 53.9 0 41.7 0 26.9zM15.3 33c-1 3.8-1.9 7.4-2.9 11.1h28.1c.5 0 .6-.2.7-.6l1-3.9c.2-.7.4-1.4.6-2.2H25.1c.8-2.9 1.5-5.6 2.2-8.4.1-.4.3-.6.7-.7 1.3-.5 2.6-.9 3.9-1.5.2-.1.4-.3.5-.6.3-1.1.6-2.2.9-3.2l.2-.9-4.7 1.8c1.3-4.8 2.5-9.5 3.7-14.2H22c-.4 0-.4.1-.5.4L16.8 28c-.1.3-.2.5-.5.6-1.1.4-2.3.8-3.4 1.3-.2.1-.4.3-.5.5-.3 1-.5 2-.8 2.9-.1.4-.2.8-.3 1.3 1.3-.6 2.6-1.1 4-1.6zm171.2 16.1c-9.7 0-16.6-6.9-16.5-16.4.1-9.3 7.3-16.3 16.7-16.3 9.5.1 16.6 7.1 16.5 16.4 0 9.4-7.2 16.4-16.7 16.3zm-7.6-16.3c0 4.7 3.2 8.1 7.7 8.1 4.4 0 7.7-3.4 7.7-8 0-4.8-3.2-8.2-7.7-8.2-4.4 0-7.7 3.4-7.7 8.1zm47.2 14.5c0-5.4 0-10.8.1-16.2 0-1.2.5-2.5 1-3.6 1-1.8 3.3-2.7 5.3-2 1.8.6 3 1.7 3 4l.1 16.6v2.8h8.9c.1-.1.1-.2.1-.3 0-7 .3-14.1-.1-21.1-.5-8.8-8.8-13.2-16.5-9-.6.3-1.2.8-1.9 1.2-.1-.7-.1-1.2-.2-1.7H217v30.9h9c.1-.6.1-1.1.1-1.6zm-84.4-12h-24.2c-.1 3.3 2.7 6.8 6.2 7.9 5.4 1.6 8.7-.1 12.7-6.8l5.2 2.7c-2.3 6.4-8.1 10.2-15.2 10.1-8.8-.1-15-6.3-15.3-15.1-.2-6.5 1.8-12.1 7.6-15.5 9.2-5.5 21.6-.4 22.9 11.3.3 1.6.1 3.4.1 5.4zm-6.3-5.6c0-4.2-3.6-7.5-8.2-7.8-4.8-.3-8.8 3-9.4 7.8h17.6zm12.5-7.6c-5.4 6.2-5.3 16.1.3 22.2 5.5 5.9 15.8 6.6 22.6 1.4-1.1-2.4-2.2-4.8-3.3-7.3-.9.5-1.7.9-2.5 1.3-2.5 1.3-5.1 1.6-7.7.3-3.6-1.7-5.2-6.3-3.6-10.3 1.5-3.7 5.7-5.6 9.7-4.4 1.4.4 2.8 1.1 4.3 1.6l2.9-7.7c-6-3.8-16.4-4.4-22.7 2.9zm-49.8 2.7c0 5.4 0 10.9.1 16.3.1 3.7 2.2 6.5 5.7 7.6 2.9.9 5.8.2 8.8-.6-.5-1.9-1-3.8-1.5-5.6-.7.3-1.3.5-1.8.7-3.4 1-5.4.2-5.3-3.7.1-5.1 0-10.3 0-15.4 0-.3.1-.7.1-1.2h7.6v-5.5H104V9.6h-6v7.9h-3.7V23H98c.1.7.1 1.3.1 1.8zM205.4 49c2.5 0 5-.1 7.4 0 1.2 0 1.6-.3 1.6-1.6-.1-9.4 0-18.8 0-28.2l-.1-1.3h-8.9V49zM80.5 4.2h-5.8v44.7h5.8V4.2zM91.2 18h-5.8v30.9h5.8V18zm2.8-7c0-2.8-2.4-5.1-5.4-5.2-3 0-5.4 2.2-5.4 5.1 0 2.9 2.3 5.2 5.3 5.2S94 13.8 94 11zm121.3-.1c0-2.9-2.5-5.1-5.5-5.1s-5.4 2.3-5.4 5.2 2.4 5.1 5.4 5.1 5.5-2.3 5.5-5.2z"/></svg>