<svg xmlns="http://www.w3.org/2000/svg" width="43.4" height="47.5" viewBox="0 0 43.4 47.5"><path d="M5.7 32.2c-1.4 5.2-2.7 10.2-4 15.3h38.594c.6 0 .8-.2.9-.8l1.4-5.4c.3-1 .5-1.9.8-3.1h-24.3c1-3.9 2.1-7.7 3-11.5.1-.6.4-.8.9-1 1.8-.6 3.6-1.3 5.4-2 .3-.1.6-.5.7-.8.4-1.5.8-3 1.2-4.4.1-.4.2-.8.2-1.3l-6.5 2.4c1.7-6.6 3.4-13 5.1-19.5-.3 0-.5-.1-.6-.1h-13.8c-.5 0-.6.2-.7.6-2.2 8.2-4.3 16.4-6.5 24.5-.1.4-.3.6-.7.8-1.6.6-3.1 1.1-4.7 1.8-.3.1-.6.4-.6.7l-1.1 4c-.1.5-.3 1.1-.4 1.8 2-.6 3.8-1.3 5.7-2z"/></svg>