<svg xmlns="http://www.w3.org/2000/svg" width="115.3" height="70.4" viewBox="0 0 115.3 70.4"><path d="M80.1 0c-8.5 0-16.4 3-22.4 8.1C51.6 3 43.7 0 35.2 0 15.8 0 0 15.8 0 35.2s15.8 35.2 35.2 35.2c8.6 0 16.4-3 22.5-8.1 6.1 5 13.9 8.1 22.4 8.1 19.4 0 35.2-15.8 35.2-35.2C115.3 15.7 99.5 0 80.1 0zm0 67.8c-7.8 0-14.9-2.7-20.5-7.3 4.3-4.1 7.6-9.3 9.3-15.2h-2.7c-1.7 5.2-4.7 9.8-8.6 13.5-3.8-3.7-6.8-8.3-8.5-13.5h-2.7c1.7 5.8 5 11 9.2 15.1-5.6 4.5-12.7 7.3-20.5 7.3-18 0-32.6-14.6-32.6-32.6S17.1 2.5 35.1 2.5c7.8 0 14.9 2.8 20.5 7.3-4.2 4.1-7.5 9.3-9.2 15.1h2.7c1.7-5.2 4.7-9.8 8.5-13.5 3.9 3.7 6.9 8.3 8.6 13.5h2.7c-1.8-5.9-5-11-9.3-15.2 5.6-4.6 12.7-7.3 20.5-7.3 18 0 32.6 14.6 32.6 32.6 0 18.2-14.6 32.8-32.6 32.8zM41.9 33.6zm-.1-.1zm-.2 0zm-11.7 8.4l3.5-17.7h-7l-4.8 11-.2-11h-6.9l-3.4 17.7h4l2.5-13.5.7 13.5h4l5.9-13.6-2.6 13.6h4.3zm48.7-3.3c-.2.1-.6.1-1.1.1-1 0-1.4-.3-1.4-1 0-.2 0-.4.1-.7l1-5.9h2.2l.6-3.5h-2.2l.6-3.4h-4.3l-2 11-.1 1.1-.2 1.4c-.1.5-.2 1-.2 1.3 0 2.1 1.2 3.2 3.5 3.2.7 0 1.7-.2 3-.5l.5-3.1zm-33.4-4.3c.3-1.4.4-2.4.4-2.8 0-.7-.1-1.3-.4-1.8-.3-.5-.6-1-1-1.3-.4-.3-1-.6-1.8-.9s-1.6-.3-2.3-.2c-.7.1-2.5.4-5.3.8l-.6 3.3.4-.1.7-.2c1.2-.3 2.4-.4 3.5-.4 1.9 0 2.9.4 2.9 1.3 0 .1 0 .2-.1.4s-.1.4 0 .6c-.5-.1-1.1-.2-1.8-.2-2.4 0-4.3.5-5.6 1.5-1.3 1-2 2.4-2 4.1 0 1.2.4 2.1 1.1 2.9.7.7 1.7 1.1 2.9 1 2 0 3.5-.6 4.5-1.8v1.6h3.6v-.4l.1-.6.1-.7.2-.8.5-5.3zm13.6 3.8c-1.4.5-3 .8-4.6.8-2.4 0-3.7-.9-3.7-2.5v-.5h8.6c.3-1.3.5-2.5.5-3.5 0-1.6-.5-2.8-1.5-3.8s-2.4-1.4-4.3-1.4c-2.2 0-4 .8-5.4 2.3-1.4 1.6-2.1 3.6-2.1 6.2 0 4.3 2.4 6.4 7.3 6.4 1.6 0 3.1-.2 4.5-.5l.7-3.5zm45.1-2.7c.1-.5.1-1.1.1-1.7 0-1.9-.6-3.5-1.8-4.7-1.2-1.2-2.9-1.8-5-1.8-2.5 0-4.6.8-6.1 2.3-1.6 1.6-2.3 3.6-2.2 6.2 0 4.3 2.2 6.5 6.7 6.5 4.9 0 7.6-2.2 8.3-6.8zm-32.6-7.9c-2.2-.1-3.5-.2-3.9-.2-1.6 0-2.8.2-3.8.6s-1.7 1-2.1 1.7c-.5.7-.7 1.6-.7 2.4 0 1.8 1.1 3.1 3.4 3.9l.3.2 1.2.6c.2.1.3.3.4.4.1.1.1.3.2.5 0 .9-.8 1.3-2.5 1.3-1 0-2.3-.2-4-.5l-.5 3.3h.2l.7.2c.1 0 .2 0 .5.1s.5.1.7 0c.4 0 .9 0 1.4.1.5.1.9.1.9 0 4.6 0 6.8-1.6 6.8-4.8 0-1.8-1.1-3.2-3.1-4.1-1-.4-1.5-.7-1.7-.8-.2-.1-.3-.3-.3-.6 0-.8.7-1.2 2.2-1.2.4 0 1.4.1 3 .2l.7-3.3zm12.4 14.4c.7-4.3 1.3-7.2 1.8-8.4.5-1.3 1.3-1.9 2.4-1.9h.5l.5.2 1.5-4.1c-.3-.1-.5-.2-.6-.2h-.7c-1.3 0-2.5.7-3.8 2.2l.4-2.1h-4L79.2 42l4.5-.1zM51 33c.4-1.7 1.4-2.5 2.9-2.5 1.3 0 1.9.6 1.9 1.8v.4c0 .1 0 .2-.1.3H51zm46.2-2.4c1.5 0 2.2 1 2.2 3v.8c0 .3 0 .6-.1.8-.1.7-.4 1.3-.8 1.9-.4.6-.8 1-1.2 1.2-.4.2-.8.3-1.2.4-1.7 0-2.5-1.1-2.5-3.3 0-1.2.3-2.3 1-3.4.6-.9 1.5-1.4 2.6-1.4zm-61 7c0-1.5 1.2-2.2 3.7-2.2h.4c.2 0 .4 0 .5.1 0 .7-.1 1.3-.4 1.8s-.6 1-1.1 1.2c-.5.3-1 .4-1.5.5-1.1.1-1.6-.4-1.6-1.4z"/></svg>