<svg xmlns="http://www.w3.org/2000/svg" width="118.5" height="70.2" viewBox="0 0 118.5 70.2"><path d="M83.4 0C75 0 67.3 2.9 61.3 7.9c4.6 4.5 8.1 10 10 16.3h-2.9c-1.8-5.6-5-10.5-9.2-14.5-4.1 4-7.3 8.9-9.1 14.5h-2.9c1.9-6.3 5.3-11.8 9.9-16.3C51.1 3 43.5 0 35.1 0 15.7 0 0 15.7 0 35.1s15.7 35.1 35.1 35.1c8.4 0 16-3 22-7.9-4.6-4.4-8-10-9.9-16.3h2.9c1.8 5.6 5 10.5 9.1 14.5 4.2-4 7.4-8.9 9.2-14.5h2.9c-1.9 6.3-5.4 11.9-10 16.3 6 4.9 13.7 7.9 22.1 7.9 19.4 0 35.1-15.7 35.1-35.1S102.8 0 83.4 0zM18.1 42.5l2-10.5-4.7 10.5h-3.2l-.9-10.8-2.1 10.8H5.8l2.9-14.9h5.4l.6 9.1 4.1-9.1h5.5l-2.8 14.9h-3.4zm11.9 0l-.4-.7c-.6.4-1.1.6-2.8.7-1.7.1-3.9-1.2-3.5-3.7 1-5.2 7-4.2 7.8-4.3.4-1.9-.9-1.7-2.1-1.7s-3.4.3-4.2.4l.5-2.7c2.2-.4 3.4-.4 4.4-.4 5.6 0 5.1 4.1 4.7 5.7l-1.3 6.7H30zM43.7 39c-.6 3.7-4.6 3.5-5.4 3.5-1.2 0-2.4 0-4-.4l.5-2.5c1.7.6 3.9.3 4.4.3 1.1 0 1.3-1.4.4-1.9-.7-.3-1.4-.9-2.7-1.4-.8-.3-1.6-1.3-1.2-3.6.6-3 4.7-2.9 5.1-2.9.5 0 1.7-.1 3.3.5l-.8 2.5c-1-.3-2.5-.3-3.3-.2-1.2.3-.7 1.5 0 1.8s1.8.9 2.4 1.3c.7.4 1.5 1.2 1.3 3zm5.8 3c-.7.5-1.7.6-2.5.6s-3.3-.5-2.7-3.8l2.3-11.7H50l-.7 3.3h1.8l-.6 2.7h-1.7l-1 5c-.2.9-.1 1.8 1.9 1.5l-.2 2.4zm11.7-5h-7.3c-.4 2.8 1.8 2.7 3.1 2.7s3.3-.2 3.8-.3l-.5 2.5c-.8.4-2.9.6-4.3.6-5.8 0-5.7-5.5-5.6-6.3.1-.8.8-6.2 6.3-6.2 5.8.1 4.9 5 4.5 7zm4.5-.1l-1 5.6h-3.4l2.3-12.2h2.9l.3 1.2c.5-.6 1.5-1.2 3.2-1.2l-.9 3.2c-.8 0-2.4-.2-3.4 3.4zm12.8 1.8l1 3c-1.1.5-2.2.8-4.1.8-3.5 0-7.3-3.1-5.6-9.4 1.3-4.6 5.3-6.3 7.6-6.3 2.8.1 3.7 1 4.6 2L79.8 31c-.9-.5-1.5-.6-2.6-.6s-3.6 1.1-4.1 4.1c-.5 3.6 1.9 5.4 5.4 4.2zm8.4 3.8l-.4-.7c-.6.4-1.1.6-2.8.7-1.7.1-3.9-1.2-3.5-3.7 1-5.2 7-4.2 7.8-4.3.4-1.9-.9-1.7-2.1-1.7-1.2 0-3.4.3-4.2.4l.5-2.7c2.2-.4 3.4-.4 4.4-.4 5.6 0 5.1 4.1 4.7 5.7L90 42.5h-3.1zm8.9-5.6l-1 5.7h-3.4l2.3-12.4h2.9l.3 1.2c.5-.6 1.5-1.2 3.2-1.2l-.9 3.2c-.8 0-2.4-.2-3.4 3.5zm10.6 5.6l-.4-1c-.7.5-1.8.9-2.9 1-2.4 0-4.6-3.4-3.5-7.2 1.6-5.6 4.5-5.3 6.4-5.3 1.6 0 2 1 2.6 1.5l.9-4.7h3.5l-2.9 15.7h-3.7zm-52.3-7.7c.4-1.6 1.3-2.2 2.7-2.2s1.7 1 1.5 2.2h-4.2zM30.5 37c-.6-.1-1.8-.4-2.9.3-1.1.7-1.4 2-.3 2.5 1.1.4 2.7-.3 2.9-1.4l.3-1.4zm76.8-.4c.3-1.1.2-2.5-.2-3-1-1.4-3.4-.3-4.1 2.4-.5 1.8.6 3.1 1.7 3.1 1.2 0 2-1 2.6-2.5zm-19.9.4c-.6-.1-1.8-.4-2.9.3-1.1.7-1.4 2-.3 2.5 1.1.4 2.7-.3 2.9-1.4l.3-1.4z"/></svg>