<svg xmlns="http://www.w3.org/2000/svg" width="115.3" height="70.4" viewBox="0 0 115.3 70.4"><path d="M80.1 0c-8.5 0-16.4 3-22.4 8.1C51.6 3 43.7 0 35.2 0 15.8 0 0 15.8 0 35.2s15.8 35.2 35.2 35.2c8.6 0 16.4-3 22.5-8.1 6.1 5 13.9 8.1 22.4 8.1 19.4 0 35.2-15.8 35.2-35.2C115.3 15.7 99.5 0 80.1 0zm0 67.8c-7.8 0-14.9-2.7-20.5-7.3 4.3-4.1 7.6-9.3 9.3-15.2h-2.7c-1.7 5.2-4.7 9.8-8.6 13.5-3.8-3.7-6.8-8.3-8.5-13.5h-2.7c1.7 5.8 5 11 9.2 15.1-5.6 4.5-12.7 7.3-20.5 7.3-18 0-32.6-14.6-32.6-32.6S17.1 2.5 35.1 2.5c7.8 0 14.9 2.8 20.5 7.3-4.2 4.1-7.5 9.3-9.2 15.1h2.7c1.7-5.2 4.7-9.8 8.5-13.5 3.9 3.7 6.9 8.3 8.6 13.5h2.7c-1.8-5.9-5-11-9.3-15.2 5.6-4.6 12.7-7.3 20.5-7.3 18 0 32.6 14.6 32.6 32.6 0 18.2-14.6 32.8-32.6 32.8zM28.6 30.7c-1 0-2.1 0-4.3.4l-.5 2.6c.8-.1 3-.4 4.1-.4 1.1 0 2.4-.1 2 1.7-.8.1-6.7-.8-7.7 4.2-.4 2.5 1.8 3.8 3.4 3.7 1.7-.1 2.1-.3 2.7-.7l.4.7h3.1l1.3-6.6c.5-1.7 1-5.6-4.5-5.6zm.5 8.1c-.2 1.1-1.8 1.8-2.8 1.4-1.1-.4-.8-1.7.3-2.4s2.3-.4 2.8-.3l-.3 1.3zM41 36.5c-.6-.4-1.7-1-2.4-1.3-.7-.3-1.2-1.4 0-1.8.8-.1 2.3-.1 3.2.2l.8-2.4c-1.6-.6-2.8-.5-3.2-.5-.4 0-4.4 0-5 2.9-.5 2.2.4 3.1 1.1 3.5 1.3.5 2 1.1 2.7 1.4.8.4.7 1.8-.4 1.8-.5 0-2.7.3-4.3-.3l-.5 2.5c1.5.4 2.7.4 3.9.4.8 0 4.7.2 5.3-3.4.2-1.8-.5-2.6-1.2-3zm.9-2.9zm-.1-.1zm-.2 0zm-18.2-5.2l-2.7 14.6h-3.4l1.9-10.3-4.6 10.3h-3.1l-.9-10.5-2 10.5H5.3l2.8-14.6h5.3l.6 8.8 4-8.8h5.4zm24.7 11.5l-.2 2.4c-.7.5-1.7.6-2.4.6-.8 0-3.2-.5-2.6-3.7l2.3-11.4h3.3l-.7 3.2h1.8l-.6 2.6h-1.7l-.9 4.9c-.3.9-.2 1.7 1.7 1.4zm19.8-8.9l-.8 3.2c-.8 0-2.4-.3-3.3 3.3l-1 5.5h-3.4L61.6 31h2.8l.3 1.2c.5-.7 1.5-1.3 3.2-1.3zm-8.6 6.5c.4-1.9 1.3-6.7-4.5-6.7-5.3 0-6 5.3-6.1 6-.1.8-.2 6.1 5.5 6.1 1.4 0 3.4-.1 4.2-.5l.5-2.5c-.5.1-2.4.3-3.7.3s-3.4.1-3-2.7h7.1zm-6.8-2.8v.1c0 .1 0 .2-.1.3v.1c.4-1.5 1.3-2.2 2.6-2.2s1.7 1 1.5 2.2h-4.1V35l.1-.3v-.1zm53.8-7.1l-.9 4.6c-.6-.5-1-1.4-2.6-1.4-1.8 0-4.6-.3-6.2 5.1-1.1 3.7 1.1 7 3.5 7 1.1 0 2.2-.5 2.9-1l.4 1h3.5l2.9-15.3h-3.5zm-2 9.6c-.6 1.5-1.3 2.4-2.6 2.4-1.1 0-2.1-1.3-1.7-3 .7-2.6 3-3.7 4-2.4.4.5.6 1.9.3 3zm-7-6.3l-.9 3.1c-.8 0-2.3-.2-3.3 3.4l-1 5.5h-3.3L91 30.7h2.9l.3 1.2c.4-.6 1.4-1.1 3.1-1.1zM71 35c-.5 3.5 1.9 5.2 5.2 4.1l1 2.9c-1.1.5-2.2.8-4 .8-3.4 0-7.1-3-5.4-9.2 1.2-4.5 5.1-6.2 7.4-6.1 2.7.1 3.7 1 4.5 1.9l-2.1 2.2c-.8-.5-1.4-.6-2.5-.6-1.2.1-3.7 1.1-4.1 4zm13.1-4.3c-1 0-2.1 0-4.3.4l-.5 2.6c.8-.1 3-.4 4.1-.4 1.1 0 2.4-.1 2 1.7-.8.1-6.7-.8-7.7 4.2-.4 2.5 1.8 3.8 3.4 3.7 1.7-.1 2.1-.3 2.7-.7l.4.7h3.1l1.3-6.6c.5-1.7 1-5.6-4.5-5.6zm.5 8.1c-.2 1.1-1.8 1.8-2.8 1.4-1.1-.4-.8-1.7.3-2.4s2.3-.4 2.8-.3l-.3 1.3z"/></svg>