<svg xmlns="http://www.w3.org/2000/svg" width="201.6" height="53.4" viewBox="0 0 201.6 53.4"><path d="M118.2 38.6c-1.7.5-3.6.8-5.4.8-6.6 0-11.5-3.8-11.5-10.5 0-6.6 4.9-10.5 11.5-10.5 2 0 3.7.3 5.2 1v5.3c-1.4-.8-2.8-1-4.3-1-2.9 0-5.1 2-5.1 5.3 0 3.1 2.5 5.1 5.4 5.1 1.5 0 2.9-.3 4.1-.9v5.4h.1zm61.5-7.7v-1.3c0-6-2.5-11.2-9.9-11.2-6.2 0-10.1 3.8-10.1 10.5 0 6.6 4.8 10.5 11.3 10.5 2.5 0 5.1-.4 7.3-1.3v-4.8c-2 .9-4.3 1.3-6 1.3-3.3 0-4.9-1.4-5.3-3.7h12.7zM166.8 27c.1-2.3 1-4 3.1-4 2.3 0 3.3 1.7 3.3 4h-6.4zm34.8 3.9v-1.3c0-6-2.5-11.2-9.9-11.2-6.2 0-10.1 3.8-10.1 10.5 0 6.6 4.8 10.5 11.3 10.5 2.5 0 5-.4 7.3-1.3v-4.8c-2 .9-4.3 1.3-6 1.3-3.3 0-4.9-1.4-5.3-3.7h12.7zM188.7 27c.1-2.3 1-4 3.1-4 2.3 0 3.3 1.7 3.3 4h-6.4zm-88.4 11.9L96.4 9.8h-9l-4.3 19.6-4-19.6H70l-4.2 29.1h7.1l2.3-18.3 4 18.3h7.6l4.3-18.3 2.2 18.3h7zm55-21.3c0-2.1.6-3.5 2.6-3.7.9-.1 1.7 0 2.2.1V8.9c-.8-.2-1.9-.3-3.2-.3-5.7 0-8.6 2.6-8.6 9.1V19h-3.4v5.3h3.4V39h7V24.3h4.3V19h-4.3v-1.4zM138 9.8h-9.8l-8.6 29.1h7.5l1.6-6.2h8.6l1.5 6.2h7.8L138 9.8zm-5 5.6l2.8 11.7H130l3-11.7zm-107.2 38C49 42.8 51.6 20.2 51.6 9.8c0-3.9-.4-6.1-.4-6.4C50.2 3.1 38 0 25.8 0S1.4 3.1.4 3.4C.4 3.8 0 6 0 9.8c-.1 10.3 2.5 33 25.8 43.6m0-7.1C22.7 45 6.5 36.9 6.5 11.8c0-1.3 0-2.6.1-3.9l2 2c-.1 1.2-.1 2.4-.1 3.5 0 22.8 14.9 29.9 17.3 31v1.9zm0-35.6c-9.7 0-16.3-.8-17.2-.9l-2-2c.5.1 8.2 1 19.2 1s18.7-.9 19.2-1l-2 2c-.9.1-7.6.9-17.2.9m19.1-2.8c.1 1.4.1 2.7.1 3.9 0 25.1-16.2 33.1-19.3 34.5v-2c2.4-1.1 17.3-8.2 17.3-31 0-1.1 0-2.3-.1-3.5l2-1.9zm-22.5 4.2l6.4 20.2h-5.7L20.6 21l-1.7 11.3H14l3.2-20.2h5.2zm15.2 20.2h-4.9L31.1 21l-1.8 8.6-2.8-8.6 3-8.8h5.1l3 20.1z"/></svg>