<svg xmlns="http://www.w3.org/2000/svg" width="180.2" height="68.7" viewBox="0 0 180.2 68.7"><path d="M42.3.5c.3-.4.7-.6 1-.5.3.1.5.4.7.9l3.9 17.7c.1.4-.1.6-.5 1.1L33.1 37.1c-.2.2-.2.3-.1.4.1.1.2 0 .4-.2.3-.3 14.1-15 16.9-18 .2-.2.7-.6 1.3-.6h6c.2 0 .3.1.4.2.1.1 0 .3-.1.4-4.8 5.8-14.2 17.3-14.6 17.7-.2.2-.1.3-.1.4.1.1.2 0 .4-.2l17-18.2c.2-.2.5-.4.9-.4h4.6c.5 0 .9.2 1 .5s0 .7-.3 1.1c0 0-11.4 14.1-11.4 14.2l11.2 14.2c.3.4.4.8.3 1.1-.1.3-.5.4-1 .4 0 0-18.1-.1-18.2 0l-4.1 17.6c-.1.5-.4.8-.7.9-.3.1-.7-.1-1-.5 0 0-11.3-14.2-11.4-14.2l-16.3 7.7c-.5.2-.9.2-1.1 0-.3-.2-.3-.6-.2-1.1 0 0 4.1-17.6 4-17.7l-16.2-8c-.5-.2-.7-.5-.7-.9 0-.3.3-.6.8-.9 0 0 16.3-7.8 16.3-7.9L13.2 7.4c-.1-.5 0-.9.2-1.1.3-.2.7-.2 1.1.1 0 0 16.2 7.9 16.3 7.9L42.3.5m137.9 33.2c0 11.5-5.5 16.7-16 16.7-7.9 0-12-2.4-12-2.4V13.9l-2.9-.1V9.3l10.8-.4v13.7s2.9-3.3 8.2-3.3c5.2.1 11.9 3.5 11.9 14.4zm-8.4.9c0-7.3-3.3-8.3-5.2-8.3-1.5 0-3.4.4-6.4 3.7v12.7s1.8 1 4.5 1 7.1-1.8 7.1-9.1zm-27.5 10.7l3 .1V50s-2.7.3-3 .4h-5.6l-.6-2.8c-2.7 2.4-5.5 3.6-9.3 3.6-6.1 0-10.1-3.1-10.1-9.1 0-6.8 5.5-9.6 14.8-9.6h3.6v-1.6c0-3.7-1.4-5.5-6.2-5.5-2.9 0-6.1.7-8.7 1.7l-1.3-5.4c3-1.1 7.2-1.9 11-1.9 8.9 0 12.4 3.8 12.4 10.3v15.2m-7.2-8h-3.7c-5.1 0-7.3 1.5-7.3 4.4 0 2.5 1.5 4.1 4.5 4.1 2.6 0 4.6-1.2 6.5-2.9v-5.6zM88 25.9v24.3h7.3V30.1c2.5-2.7 4.2-4.1 7.3-4.1 3.6 0 4.8 2.8 4.8 7.2v17.1h7.3V31.7c0-7-3-11.7-10.5-11.7-4.2 0-6.8 1.4-10 4.5l-.7-3.7H88l-3 .2v4.6c2.6.2 1.6 0 3 .3"/></svg>