<svg xmlns="http://www.w3.org/2000/svg" width="197.9" height="72.8" viewBox="0 0 197.9 72.8"><path d="M55.4 18v4.6h-1.8v1.8h-1.1c.2.2.3.4.4.5 3.2 4.1 5.3 8.7 6.1 13.9 1.3 9.7-1.3 18.1-8.1 25.1-4.3 4.5-9.5 7.2-15.6 8.4-1 .2-2.1.3-3.1.4-.1 0-.2.1-.4.1h-4.1l-.4-.1-2-.2c-4.5-.7-8.7-2.3-12.5-5-5.5-3.9-9.2-9-11.3-15.3C.8 50 .4 47.8.2 45.6c0-.2-.1-.4-.2-.7v-3.3l.2-.7c.1-1.1.2-2.1.4-3.2 1.3-6.7 4.6-12.4 9.7-16.9 4.8-4.2 10.5-6.5 16.8-7.1 2.7-.2 5.5-.1 8.1.4 4.3.8 8.1 2.5 11.7 5.1.1.1.3.2.5.3l.1-1.6H51V20h2.2v-2.1c.9.2 1.6.2 2.2.1zm-14.3 9.1c.1-.3 0-.5-.2-.6-.1-.1-.2-.2-.4-.2-4.8-3-9.9-3.9-15.3-2.7C14.9 25.9 7.6 36 9.8 47.3 11.9 58 22.2 65.1 33 63.3c4.9-.8 8.9-3.1 12.1-6.9 3.8-4.5 5.3-9.7 4.6-15.5-.4-3.2-1.5-6.1-3.3-8.8-.3-.4-.3-.4-.8-.2v2.4l-1.8.1v2.1h-1.7v2c0 .2-.1.4-.2.6l-1.9 3c-2.3 3.8-4.1 7.8-5.7 11.9-.3.9-.9 1.4-1.8 1.6-.6.2-1.3.2-1.9.1-1.3-.3-2.3-.9-2.8-2.2-.4-1-.8-1.9-1.2-2.8-1.7-4.2-4-8.1-6.9-11.5l-1.8-2.1c-.5-.6-.9-1.1-1.1-1.9-.3-1.1.3-2 1.4-2.1.3 0 .6 0 .8.1.6.2 1.2.4 1.7.7 2 1 3.6 2.4 5.1 4 1.6 1.6 3 3.4 4.3 5.2l.3.4c.1-.1.1-.1.1-.2 1-2 1.9-4 2.9-5.9 1.3-2.6 2.8-5.2 4.3-7.7.2-.3.4-.5.8-.4h1.1v-2.1c.6-.1 1.1-.1 1.5-.1zm6.7 2.1v-2.1h-2.1c-.1.5-.1 1.8 0 2.1h2.1zm-2.1-7.6v2.1h2.1v-2.1h-2.1zM66.5 2.3V0h-2.3v2.3h2.3zm32.6 25.9c-1-.1-5.5-.1-5.9.1v18.3h-.1c-3.2-6.2-6.5-12.3-9.7-18.4h-7.1v29.7h5.8V37.596h.1c3.4 6.8 6.9 13.5 10.4 20.3h6.5c.2-1 .1-29.3 0-29.7zm52.8 25.2c-.8.2-1.6.3-2.3.1-.6-.2-1-.5-1.1-1.2-.1-.4-.1-.8-.1-1.2V40.5h4.6v-4.4h-4.6v-6.2h-5.3l-1.1 6.2h-4c-1.6 0-3 .5-4.2 1.6-.9.7-1.6 1.6-2.1 2.6-.1.1-.2.2-.3.4-.6-1.6-1.2-3.1-1.8-4.6h-3.7c-.1.7-.1 21.4 0 21.8h6.4v-9.5c0-.6 0-1.2.1-1.8.2-1.5.8-2.9 1.7-4 1.1-1.4 2.6-2.1 4.4-2.1h3.4v10.7c0 .8.1 1.7.2 2.5.5 2.4 2 4 4.4 4.5 1.7.4 3.5.3 5.2-.1.6-.1 1.3-.3 1.9-.5l-.8-4.5c-.2.2-.6.2-.9.3zM124.2 47c.1 6.2-5 11.4-11.4 11.4-6.3 0-11.4-5.1-11.4-11.4 0-6.3 5.1-11.4 11.4-11.4 6.4 0 11.4 5.3 11.4 11.4zm-11.4 5.8c3.2 0 5.9-2.6 5.9-5.8 0-3.6-2.9-5.9-5.9-5.9-3.2 0-5.8 2.6-5.8 5.8-.1 3.3 2.5 5.9 5.8 5.9zm40.9-5.8c0-6.3 5.1-11.4 11.4-11.4s11.4 5.1 11.4 11.4c0 6.3-5.1 11.4-11.4 11.4s-11.4-5.1-11.4-11.4zm11.4 5.8c3.2 0 5.8-2.6 5.9-5.8 0-3.3-2.6-5.9-5.9-5.9-3.2 0-5.9 2.6-5.8 5.8-.1 3.3 2.5 5.9 5.8 5.9zm19.2 4.4V43.5c0-.4.1-.7.4-.9l1.2-1c1-.7 2.1-.9 3.2-.7 1.5.3 2.3 1.3 2.4 2.8v14.2h6.4V43.7c0-.8-.1-1.7-.3-2.5-.4-1.7-1.2-3.1-2.5-4.2-1.9-1.4-4-1.7-6.2-1.3-1.9.4-3.4 1.3-4.8 2.6l-1 1-1.3-3.3h-3.7c-.1.6-.1 21.4 0 21.8h6.2v-.6zM55.4 15.9v-2.2c.7 0 1.4 0 2.2-.1v-2.2h2V9.2c-1.5-.1-3.8 0-4.2.1v2.2h-2.1V16c.8-.1 1.5-.1 2.1-.1zm8.8-11.3V2.3h-2.3v2.4c.8-.1 1.6-.1 2.3-.1zm-4.3 4.5v2.2h2.4c.1-.6.1-1.8 0-2.2h-2.4zm4.3-4.5v2.2h2.3V4.6h-2.3zm-6.6 11.3h-2.2v2.2h2.1c.1-.8.1-1.5.1-2.2zm-5.6 0c-.3 0-.6 0-.9.1v2.1h2.3v-2.2H52zm-.9.1c.1-.5.1-1.8 0-2.1h-2v2h.6c.4 0 .9 0 1.4.1z"/></svg>