<svg xmlns="http://www.w3.org/2000/svg" width="176" height="103.3" viewBox="0 0 176 103.3"><path d="M16 81.8c0-1.6-.4-2.9-1.1-3.9-.8-1.2-2-1.8-3.5-1.8s-2.7.6-3.5 1.8c-.8 1.1-1.1 2.4-1.1 3.9 0 1.6.4 2.9 1.1 4 .8 1.2 2 1.8 3.5 1.8s2.7-.6 3.5-1.8c.7-1.1 1.1-2.4 1.1-4zm6.8 0c0 3.4-1 6.3-3.1 8.7-2.1 2.5-4.9 3.7-8.3 3.7S5.2 93 3.1 90.5C1 88.2 0 85.2 0 81.8c0-3.5 1-6.4 3.1-8.7 2.2-2.4 5-3.7 8.3-3.7 3.4 0 6.2 1.2 8.3 3.7 2.1 2.4 3.1 5.3 3.1 8.7zm17.8 0c0-1.6-.4-2.9-1.1-3.9-.8-1.2-2-1.8-3.5-1.8s-2.7.6-3.5 1.8c-.7 1.1-1.1 2.4-1.1 3.9 0 1.6.4 2.9 1.1 4 .8 1.2 2 1.8 3.5 1.8s2.7-.6 3.5-1.8c.7-1.1 1.1-2.4 1.1-4zm6.8 0c0 3.2-.9 6-2.8 8.4-2 2.6-4.6 4-7.7 4-2.2 0-4.1-.6-5.6-1.9 0 .3 0 1 .1 2.1s.1 2.1.1 2.8c0 4-1.2 6.1-3.6 6.1-1 0-1.8-.3-2.4-1-.6-.7-1-1.5-1-2.5V73.5c0-1 .3-1.8 1-2.5.6-.7 1.5-1 2.4-1 1.4 0 2.5.7 3.2 2.2 1.4-1.7 3.4-2.6 5.8-2.6 3.1 0 5.7 1.3 7.7 3.9 1.8 2.3 2.8 5.1 2.8 8.3zm17.9-2.4c0-1-.5-2-1.4-2.8-.9-.9-1.9-1.3-2.9-1.3-1.1 0-2.1.4-3 1.3-.9.9-1.4 1.8-1.4 2.8h8.7zm6.8 1.7c0 1.1-.3 1.9-.8 2.4-.5.4-1.4.6-2.5.6H56.5c0 1.3.6 2.3 1.8 3 1 .5 2.2.8 3.6.8 1.1 0 2.4-.4 4-1.1 1.6-.7 2.6-1.1 3-1.1.8 0 1.5.3 2 .9.5.6.8 1.3.8 2.1 0 1.9-1.4 3.3-4.2 4.3-2.1.8-4.3 1.2-6.5 1.2-3.5 0-6.4-1.2-8.6-3.5-2.2-2.3-3.3-5.3-3.3-8.9 0-3.4 1.1-6.3 3.4-8.7 2.3-2.4 5.1-3.6 8.4-3.6 3.1 0 5.7 1.1 7.8 3.4 2.3 2.3 3.4 5 3.4 8.2zm22.8 9.1c0 1-.3 1.8-1 2.5-.6.7-1.4 1-2.4 1-2.4 0-3.6-1.9-3.6-5.6 0-.7 0-1.9.1-3.4.1-1.6.2-2.7.2-3.4 0-4-1.3-6-3.9-6-2.6 0-3.9 2-3.9 6 0 .7 0 1.9.1 3.4.1 1.6.1 2.7.1 3.4 0 3.8-1.2 5.6-3.5 5.6-1 0-1.8-.3-2.4-1-.6-.7-1-1.5-1-2.5V73.4c0-1 .3-1.8 1-2.5.6-.7 1.4-1 2.4-1 1.6 0 2.8.7 3.4 2.2 1.1-1.7 3-2.6 5.8-2.6 2.6 0 4.6.7 6.1 2 1.5 1.5 2.3 3.5 2.3 6v12.7h.2zm21.3-.7c0 1.5-1 2.8-3 3.6-1.6.7-3.3 1.1-5 1.1-3.4 0-6.2-1.2-8.3-3.7-2.1-2.3-3.1-5.3-3.1-8.7 0-3.5 1-6.4 3.2-8.8 2.1-2.4 4.9-3.6 8.3-3.6 2 0 3.7.3 5.1.9 2 .8 3 2 3 3.7 0 .8-.3 1.6-.8 2.2-.5.6-1.2 1-2 1-.6 0-1.4-.2-2.4-.6-1-.4-1.9-.6-2.5-.6-1.6 0-2.9.6-3.8 1.7-.8 1-1.3 2.4-1.3 4s.4 2.9 1.1 3.9c.8 1.2 2 1.9 3.5 1.9.7 0 1.6-.2 2.7-.6 1.2-.4 2-.6 2.5-.6.8 0 1.4.3 2 1 .5.7.8 1.4.8 2.2zm17.9-7.7c0-1.6-.4-2.9-1.1-3.9-.9-1.2-2-1.8-3.5-1.8s-2.7.6-3.5 1.8c-.8 1.1-1.1 2.4-1.1 3.9 0 1.6.4 2.9 1.1 4 .9 1.2 2 1.8 3.6 1.8 1.5 0 2.7-.6 3.5-1.8.6-1.1 1-2.4 1-4zm6.8 8.4c0 1-.3 1.8-1 2.5-.6.7-1.5 1-2.4 1-1.5 0-2.5-.7-3.2-2.2-1.4 1.7-3.4 2.6-5.8 2.6-3.2 0-5.7-1.3-7.7-4-1.8-2.4-2.7-5.2-2.7-8.4s.9-6 2.7-8.4c2-2.6 4.6-3.9 7.7-3.9 2.5 0 4.4.9 5.8 2.6.6-1.4 1.7-2.2 3.2-2.2 1 0 1.8.3 2.4 1s1 1.5 1 2.5v16.9zM158.2 73c0 1.5-.7 2.5-2.1 3l-3.9 1.3c-1.4.8-2.1 2.3-2.1 4.5v8.3c0 1-.3 1.8-1 2.5-.6.7-1.5 1-2.4 1-1 0-1.8-.3-2.4-1-.6-.7-1-1.5-1-2.5V73.3c0-1 .3-1.8.9-2.5.6-.7 1.5-1 2.4-1 1.6 0 2.8.7 3.4 2.2 1.5-1.7 3-2.6 4.7-2.6 1 0 1.8.3 2.5 1 .7.8 1 1.6 1 2.6zm17.8.3c0 1.5-.6 2.5-1.8 2.9-.6.2-1.8.3-3.6.3v13.7c0 1-.3 1.8-1 2.5-.6.7-1.5 1-2.4 1-1 0-1.8-.3-2.4-1-.6-.7-1-1.5-1-2.5V76.5c-1.4 0-2.4-.2-3.1-.5-.9-.5-1.3-1.4-1.3-2.6 0-1.3.4-2.1 1.3-2.6.6-.3 1.6-.5 3-.5v-2.9c0-3.4 1.1-5.1 3.4-5.1s3.4 1.7 3.4 5.1v2.9c1.8 0 3.1.1 3.6.3 1.3.3 1.9 1.2 1.9 2.7zM58 0c9.3 9.8 18 11.2 52.1 11.2 34.2 0 19.2 7.6-2 26.4 6.7-11.6 29.7-21.9-8-21.4C64 16.9 61.9 5.9 58 0zm24.3 46.9c0 2.8-2.3 5.2-5.2 5.2-2.9 0-5.2-2.3-5.2-5.2s2.3-5.2 5.2-5.2c2.9 0 5.2 2.4 5.2 5.2zm23.5 0c0 2.8-2.3 5.2-5.2 5.2-2.9 0-5.2-2.3-5.2-5.2s2.3-5.2 5.2-5.2c2.9 0 5.2 2.4 5.2 5.2z"/></svg>