<svg xmlns="http://www.w3.org/2000/svg" width="205.3" height="63.5" viewBox="0 0 205.3 63.5"><path d="M0 11.3c5.2 0 10.5-.5 15.7.6 4.4.9 8.3 5.1 9.1 9.5.5 3.3.4 6.5-1.2 9.5-2 3.6-5.2 5.6-9.2 6.3-2.4.4-4.9.4-7.6.6V48H0V11.3zm6.8 6.1v14.3c1.9-.1 3.8-.1 5.6-.3 3.4-.4 5.4-2.4 6.1-5.5.7-3.2-.8-6.2-3.7-7.4-2.6-1.2-5.2-1.1-8-1.1zm163.9 46.1h-6.5V20h6.4v3c.7-.6 1.3-1.1 1.9-1.5 4.9-3.6 12.1-2.8 16.2 1.7 3.3 3.6 4.3 7.9 4 12.6-.3 4.3-2 7.9-5.4 10.6-4.9 3.8-11.2 3.5-16-.7l-.7-.6c.1 6.2.1 12.2.1 18.4zm15.7-29.3c-.3-1.4-.4-2.8-.9-4-1.1-3-3.3-4.9-6.6-5.1-2.9-.2-5.3.9-7 3.3-1.8 2.6-2 5.5-1.3 8.4 1.4 6.2 7.4 7.7 11.4 5.5 3-1.8 4.2-4.7 4.4-8.1zm-30-11V20h6.4v28.1h-6.4v-2.9c-.7.6-1.2 1-1.7 1.3-6.3 4.5-14.5 2.6-18.4-4.2-3-5.2-2.8-13.8 1.5-18.7 4.6-5.4 12.6-6 17.8-1.1.2.2.4.3.8.7zm.6 10.9c-.2-1.2-.3-2.4-.6-3.5-.9-2.9-2.8-4.8-5.8-5.5-3.1-.6-5.8.3-7.8 2.9s-2.2 5.5-1.6 8.5c1.4 6.5 7.6 8.2 12 5.3 2.7-1.7 3.6-4.5 3.8-7.7zM47.2 23.2V20h6.3v28.1h-6.3v-2.9c-.5.4-.9.7-1.2.9-6.2 5.1-15.5 3.1-19.1-4.1-3-5.9-2.8-12 1.1-17.5 4.2-6 12.8-7.2 18.2-2 .2.1.5.3 1 .7zM31.3 34c.3 1.4.5 2.9 1.1 4.3 1.1 2.7 3.2 4.5 6.2 4.8 3.5.3 6.3-1 7.8-4.3 1.5-3.2 1.5-6.5-.1-9.7-2.1-4.2-7.5-5.5-11.2-2.8-2.5 1.9-3.5 4.6-3.8 7.7zm101.8 1.6h-20.3c-.3 2.9 1.7 6.3 4.5 7.1 4.2 1.3 6.9.6 10.4-4.9l5.4 3c-3.3 6.2-8.5 8.8-15.4 8.1-6.2-.7-10.8-5.6-11.6-11.8-.4-3.7-.3-7.3 1.4-10.7 2.1-4.1 5.4-6.4 10-7 2.8-.4 5.6-.1 8.2 1.1 4 1.9 6.1 5.2 6.8 9.4.4 1.8.4 3.7.6 5.7zm-7-5.3c0-2.8-2.9-5.3-6.3-5.3s-6.2 2.4-6.6 5.3h12.9zm-71.4-9.5L66.4 42c.4.7.4 1.2 0 1.9l-7.1 13.2c-1.1 2.1-2.2 4.2-3.4 6.4h6.6c.6 0 .9-.2 1.1-.7 7.2-14.1 14.5-28.1 21.7-42.1.1-.2.2-.4.3-.7h-6.3c-.7 0-1 .2-1.3.8-2.3 4.8-4.7 9.5-7.1 14.3-.2.3-.4.7-.6 1.1-2.9-5.5-5.8-10.8-8.6-16.2h-7.5c.2.3.4.6.5.8zm2.4-9.5h.2c6.6-1.3 13.1-2.8 19.7-4 5-.9 10.2-1.6 15.3-2.2 4.1-.5 8.1-.8 12.2-1 5.4-.3 10.8-.7 16.3-.8 6.3-.1 12.7.1 19 .4 3.9.1 7.7.4 11.5.8 4.1.5 8.2 1.1 12.3 1.7 6.6 1.1 13.2 2.7 19.5 4.9 2.4.8 4.7 1.8 7.1 2.7.4-1.8 1.1-3.4 2.7-4.5-.4-.1-.6-.2-.8-.3-1.9-.7-3.8-1.4-5.7-2-10-3-20.2-4.9-30.6-5.8-5.5-.5-11-1-16.5-1.1-11.5-.2-23-.2-34.4 1.1-5.1.6-10.2 1-15.2 1.9-6.5 1.1-13 2.5-19.4 4-4.5 1-8.8 2.5-13.2 3.8-.1.2-.1.3 0 .4zm29.5 36.8h19.8v-6.2H93.3V11.2h-6.7v36.9zm112.2-39c-3.8.1-6.7 2.9-6.8 6.6-.1 3.6 3.1 6.8 6.7 6.7 3.9 0 6.9-3.3 6.6-6.7.3-3.6-3.1-6.6-6.5-6.6zM50.2 11c-1.7 0-3.1 1.4-3.1 3.1 0 1.8 1.4 3.2 3.1 3.2 1.7 0 3.1-1.5 3.1-3.1.1-1.8-1.4-3.2-3.1-3.2z"/></svg>