<svg xmlns="http://www.w3.org/2000/svg" width="84.5" height="104.9" viewBox="0 0 84.5 104.9"><path d="M0 81.5V0h82.8v26.6c-1.8-.4-3.6-.9-5.3-1.3L64.4 22c-.4-.1-.7-.1-1 .3-1.7 2.2-3.5 4.4-5.3 6.5l-.2.3c5.9 2 11.7 3.9 17.7 6-1.4.7-2.7 1.3-4 1.8L40.7 51.1c-.2.1-.4.3-.6.5L27.2 70.3c0 .1 0 .1-.1.4 18.6-9.4 37-18.8 55.5-28.2v39H0zm3.8 23.3V99l.3.2c1.8 2 4.8 1.9 6.5-.2 1.7-2.1 1.7-4.4 1.2-6.8-.6-2.5-2.5-3.9-4.7-3.9-1.3 0-2.3.6-3.1 1.6 0-.5-.1-.9-.1-1.3H.2v16.1c1.2.1 2.4.1 3.6.1zm.3-12c.3-1 1-1.5 1.9-1.5.9 0 1.6.6 2 1.5.4 1.1.4 2.2 0 3.3-.3.8-.9 1.3-1.8 1.4-.8.1-1.7-.5-2-1.3-.2-.6-.3-1.2-.4-1.7 0-.6.1-1.1.3-1.7zm25.6 12.1c1.2-.1 2.1-.6 2.5-1.8l.3-.8 2.9-8.1c.7-1.9 1.3-3.7 2-5.7h-3.6c-.2 0-.5.3-.5.5-.3.9-.5 1.8-.8 2.8-.4 1.5-.8 2.9-1.3 4.6-.8-2.8-1.5-5.3-2.1-7.8H25c.3.8.5 1.5.8 2.2 1.2 3.2 2.4 6.3 3.5 9.5.3.9-.2 1.5-1.1 1.5h-1.4v3c1.1.1 2 .2 2.9.1zM16.9 92.2c.1 0 .3-.2.4-.3.4-1 2-1.2 2.8-.7.2.1.4.5.4.7.1.9-.7 1-1.2 1.1-1.2.3-2.5.4-3.7.9-2.1.8-2.4 2.5-2 4.3.4 1.7 2 2.6 3.9 2.4 1.2-.1 2.2-.7 3.2-1.4.1.4.2.7.3 1h4c-1-1.3-.6-2.7-.7-4v-3.4c-.1-2.5-1-3.8-3.2-4.3-1.4-.3-2.8-.2-4.1.1-1.8.5-2.9 1.9-3 3.6.8 0 1.8.1 2.9 0zm3.6 4.2c-.1 1.2-1.8 2.2-2.8 1.5-.3-.2-.7-.8-.6-1.2 0-.4.4-.9.8-1.1.8-.4 1.7-.5 2.7-.8-.1.6-.1 1.1-.1 1.6zm27.1-2.8c0-.8.2-1.6.6-2.2.5-1 1.8-1.4 3.1-1.1.8.2 1.2.9 1.2 2.1.1 2 .1 4.1.1 6.1v1.7h1.9v-8.7c0-1.2-.6-2.3-1.9-2.7-1.4-.5-2.8-.5-4.1.4l-1.2 1c-.6-1.1-1.6-1.6-2.7-1.7-1.5-.1-2.7.4-3.7 1.6-.2-1.5-.4-1.6-1.9-1.3v11.3h1.8v-6.6c0-.7.2-1.5.6-2.2.5-1 1.9-1.4 3.1-1.1.8.2 1.2.9 1.2 2.2v7.69h2c-.2-2.1-.2-4.3-.1-6.5zM66 97.7v-5.6c0-1.3-.3-2.6-1.7-3.2-1.7-.7-3.6-.8-5.3 0-1.3.6-2.1 1.9-2 3.3h1.4c.5-.7.8-1.4 1.4-1.7 1-.6 2.2-.5 3.2 0 .7.3 1 1.1.9 1.8-.1.7-.6.9-1.2.9l-.8.1c-1.3.2-2.7.2-4 .9-1.5.8-1.7 2.1-1.6 3.6.1 1.3.9 2.2 2.2 2.6 1.3.4 2.6.3 3.8-.3.6-.3 1.1-.7 1.6-1.1l.2.6c.4.8 1.4 1.2 2.5.8.8-.2.3-.9.4-1.4l-.1-.1c-.8-.1-.9-.2-.9-1.2zm-2.6 0c-1 1.1-2.3 1.3-3.7 1.1-.8-.1-1.2-.7-1.2-1.6 0-1 .4-1.6 1.2-1.8l2.8-.5 1.4-.3c.1 1 .3 2.2-.5 3.1zm20.9-5.5c-.5-2-1.6-3.3-3.7-3.7-1.9-.3-3.7 0-5 1.6-1.1 1.5-1.3 3.1-1.3 4.9 0 2.9 1.8 6 6 5.5 2-.3 3.8-2 3.9-3.9-.9-.1-1.9-.3-2.2 1l-.3.4c-.9.9-2.4 1.2-3.7.6-1.1-.5-1.9-2-1.7-3.4h8.1c.1-1.2.1-2.1-.1-3zm-6.4-1.6c1.1-.7 2.3-.6 3.4 0 .9.5 1.4 1.7 1.2 2.8h-6.1c.1-1.1.4-2.2 1.5-2.8zm-10.3-1.9v1.5c.6 0 1.1.1 1.6.1v8c0 1.1.5 1.8 1.6 1.9.8.1 1.6 0 2.3-.1v-1.7h-.4c-1.6 0-1.7-.1-1.7-1.7v-6.6h1c.6 0 1.1.2 1.1-.8s-.6-.7-1.2-.8h-1v-1.7c0-1.6 0-1.6-1.6-1.5-.1 0-.1.1-.3.1v3.1c-.4.2-.9.2-1.4.2z"/></svg>