<svg xmlns="http://www.w3.org/2000/svg" width="187.6" height="50" viewBox="0 0 187.6 50"><path d="M22.5 0H7.9c-1 0-1.8.7-2 1.7L0 39.1c-.1.7.5 1.4 1.2 1.4h7c1 0 1.8-.7 2-1.7l1.6-10.1c.2-1 1-1.7 2-1.7h4.6C28 27 33.6 22.4 35 13.1c.7-4 0-7.2-1.9-9.4-2-2.4-5.7-3.7-10.6-3.7zm1.7 13.7c-.8 5.2-4.8 5.2-8.7 5.2h-2.2l1.5-9.8c.1-.6.6-1 1.2-1h1c2.6 0 5.1 0 6.4 1.5.9.9 1.1 2.2.8 4.1zm41.9-.2h-7c-.6 0-1.1.4-1.2 1l-.3 2-.5-.7c-1.5-2.2-4.9-2.9-8.3-2.9-7.7 0-14.3 5.8-15.6 14.1-.7 4.1.3 8 2.6 10.7 2.1 2.5 5.2 3.6 8.8 3.6 6.2 0 9.7-4 9.7-4l-.3 1.9c-.1.7.5 1.4 1.2 1.4h6.3c1 0 1.8-.7 2-1.7L67.3 15c.2-.8-.4-1.5-1.2-1.5zm-9.7 13.6c-.7 4-3.8 6.7-7.9 6.7-2 0-3.7-.7-4.7-1.9s-1.4-3-1.1-4.9c.6-4 3.9-6.7 7.8-6.7 2 0 3.6.7 4.7 1.9s1.5 3 1.2 4.9zm46.9-13.6h-7c-.7 0-1.3.3-1.7.9L85 28.7 80.9 15c-.3-.9-1-1.4-1.9-1.4h-7c-.8 0-1.4.8-1.2 1.6l7.7 22.7-7.3 10.3c-.6.8 0 1.9 1 1.9h7c.7 0 1.3-.3 1.7-.9l23.4-33.7c.6-.9 0-2-1-2zM126.6 0H112c-1 0-1.8.7-2 1.7l-5.9 37.4c-.1.7.5 1.4 1.2 1.4h7.5c.7 0 1.3-.5 1.4-1.2l1.7-10.6c.2-1 1-1.7 2-1.7h4.6c9.6 0 15.2-4.7 16.6-13.9.7-4 0-7.2-1.9-9.4-2-2.4-5.7-3.7-10.6-3.7zm1.7 13.7c-.8 5.2-4.8 5.2-8.7 5.2h-2.2l1.5-9.8c.1-.6.6-1 1.2-1h1c2.6 0 5.1 0 6.4 1.5.8.9 1.1 2.2.8 4.1zm41.9-.2h-7c-.6 0-1.1.4-1.2 1l-.3 2-.5-.7c-1.5-2.2-4.9-2.9-8.3-2.9-7.7 0-14.3 5.8-15.6 14.1-.7 4.1.3 8 2.6 10.7 2.1 2.5 5.2 3.6 8.8 3.6 6.2 0 9.7-4 9.7-4l-.3 1.9c-.1.7.5 1.4 1.2 1.4h6.3c1 0 1.8-.7 2-1.7l3.8-23.9c.1-.8-.4-1.5-1.2-1.5zm-9.7 13.6c-.7 4-3.8 6.7-7.9 6.7-2 0-3.7-.7-4.7-1.9s-1.4-3-1.1-4.9c.6-4 3.9-6.7 7.8-6.7 2 0 3.6.7 4.7 1.9s1.5 3 1.2 4.9zm18-26.1l-6 38.1c-.1.7.5 1.4 1.2 1.4h6c1 0 1.8-.7 2-1.7l5.9-37.4c.1-.7-.5-1.4-1.2-1.4h-6.7c-.6 0-1.2.4-1.2 1z"/></svg>