<svg xmlns="http://www.w3.org/2000/svg" width="215.5" height="43.3" viewBox="0 0 215.5 43.3"><path d="M126.3 34.7V21c0-.9 0-1.9-.1-2.8-.2-1.2-.9-2.2-2.2-2.3-1.3-.1-2.2.6-2.6 1.7-.3.9-.5 1.9-.5 2.9v14.2h-7.3V10h6.6c0 .7.1 1.5.2 2.6 1.4-2.1 3-3.4 5.5-3.4 2.3 0 4.2 1 5.7 2.8 2-1.9 4.3-2.9 7.1-2.8 4.1.1 6.8 2.3 7.5 6.3.4 2 .5 4.1.5 6.1.1 3.8 0 7.7 0 11.5v1.6h-7.4V20c0-.7-.1-1.5-.2-2.2-.2-1.1-1-2.1-2.1-1.9-.9.1-1.9.7-2.4 1.4-.5.8-.6 1.9-.6 2.8-.1 4.8 0 9.6 0 14.5-2.7.1-5.1.1-7.7.1zM150.7 10v33.3h7.3V32.8c3.1 2.2 5.8 2.9 8.9 2.2 5.3-1.1 9.6-6 10.2-11.6.5-5.5-2.9-11.4-7.9-13.4-3.5-1.4-6.8-1.1-9.8 1.3-.6.5-1.1 1.2-1.9 2V10h-6.8zm12.9 18.4c-3.2 0-6-3.1-6-6.4s2.9-6.3 6.1-6.2c3.2 0 5.9 3 5.9 6.4s-2.8 6.3-6 6.2zm-66-21.7c0-3.8 0-3.8-3.6-5C89.8.4 85.8.5 82 2.9c-3.4 2.1-4.9 5.2-4.7 9.2.2 3.9 2.5 6.3 5.9 7.8.9.4 1.8.7 2.6 1 1.5.6 3 1.1 4.3 1.9.7.4 1.5 1.4 1.4 2.2 0 .7-.8 1.9-1.5 2.1-1.3.5-2.9.8-4.1.4-2-.6-3.9-1.7-5.8-2.7-.5-.3-1-.7-1.7-1.2v8.1c0 .9.3 1.4 1.2 1.8 3.9 1.7 7.9 2.3 12 1.4 5.2-1.1 8.2-4.6 8.6-9.9.4-5.1-1.9-8.2-7.1-10.2-1.9-.7-3.8-1.3-5.5-2.2-.7-.4-1.6-1.6-1.5-2.2.1-.8 1.1-1.8 1.9-2.2 1.6-.8 3.3-.4 4.8.5 1.6.9 3.1 1.9 5 3.1-.2-1.9-.2-3.5-.2-5.1zM11.5 22.4c1.9-.3 4-.6 5.8-1.4 4.3-1.9 6.2-5.8 5.6-10.9-.5-4.4-3-7.3-7.9-7.9s-9.9-.5-15-.7v33.3h8V22.6l3.5-.2zM8 8.6c2.2.1 4.5-.5 6.2 1.4.9 1.1 1 2.5.2 3.7-1.5 2.4-4 1.7-6.4 1.9v-7zm191.1 1c-6.4 2.5-10.2 9.9-8 16.1 3.9 11.1 15.8 11.8 23.6 5.4l-3.7-5.5c-4.9 3.4-8.7 3.8-11 1l15.5-10.1c-2.9-6.2-10.4-9.2-16.4-6.9zM198 22c-.5-2.1.6-4.6 2.5-5.9 1.8-1.2 4.1-1.2 6.1.1-3 2-5.8 3.9-8.6 5.8zM68.7 8.8c-1 0-1.4.4-1.7 1.2-1.2 3.2-2.6 6.4-3.9 9.7-.5 1.2-1 2.4-1.5 3.8-2-5.1-4-9.8-5.9-14.6h-7.4c.3.7.4 1.2.7 1.7l8.2 19.8c.4 1 .4 1.7-.1 2.7-1.4 3-2.8 6-4.1 9-.2.3-.2.7-.4 1.2 2.2 0 4.2-.1 6.2 0 1.1 0 1.6-.3 2.1-1.3l13.6-31.5c.2-.5.4-.9.6-1.6-2.2 0-4.3 0-6.4-.1zM46.2 33.5c-.1-5.9 0-11.9-.2-17.8-.1-2.5-1.4-4.4-3.7-5.5-4.3-2.1-8.6-1.5-13-.3v5.9c1.1-.2 2.1-.4 3.2-.5 1-.1 2.1-.1 3.2-.1 2.9.2 4 1.7 3.5 4.6-6-2.4-10.5-1.6-12.9 2.4-2 3.3-1.3 8.5 1.6 11 3 2.6 8 2.4 11.8-.5l.3 2h6.3c-.2-.5-.1-.8-.1-1.2zM32 26.2c0-1.9 1.4-3.1 3.5-3.2 2.2 0 3.8 1.3 3.7 3.2-.1 1.8-1.6 3.1-3.7 3.1-2 .1-3.5-1.2-3.5-3.1zm147.9 8.5h7.2v-33h-7.2v33zm-70-24.6h-7.2v24.5h7.2V10.1zm.1-6.2c0-2.2-1.7-3.9-3.9-3.9-2.1 0-3.9 1.8-3.8 4 0 2.2 1.8 3.9 3.9 3.9 2.2 0 3.8-1.7 3.8-4z"/></svg>