<svg xmlns="http://www.w3.org/2000/svg" width="274.3" height="50.8" viewBox="0 0 274.3 50.8"><path d="M31.7 14.7c-.1-1.5-.4-3-1-4.4-1.3-3.4-3.8-6.3-6.9-8.1-.9-.5-1.8-.9-2.8-1.3-1.6-.6-3.4-.9-5.2-.9C7.1 0 0 7.1 0 15.8c0 8.7 15.8 35 15.8 35s2.3-3.8 5.2-9.1c-4.4-8.1-10.2-19.6-10.6-25.3v-.7c0-.4 0-.8.1-1.2C11 12 13.3 10 16 10c.3 0 .7 0 1 .1 1.9.3 3.4 1.6 4.1 3.4.3.6.4 1.4.4 2.1 0 .5-.2 1.2-.4 2-.6 1.9-1.9 4.4-3 6.5 1.5 3.9 3.6 8.3 5.7 12.4 2.1-4.1 4.2-8.5 5.7-12.4 1.2-3 2-5.7 2.1-7.7.1-.3.1-.6.1-.8.1-.1.1-.5 0-.9m25.2-2.1c1.6 0 3 .2 4.1.7s2 1.1 2.8 1.9c.7.8 1.2 1.6 1.6 2.6.3 1 .5 2 .5 3.1 0 1-.2 2-.5 3s-.8 1.9-1.6 2.6c-.7.8-1.6 1.4-2.8 1.9-1.1.5-2.5.7-4.1.7H51v9.2h-5.7V12.6h11.6zm-1.6 12.1c.6 0 1.3 0 1.9-.1.6-.1 1.1-.3 1.6-.6s.8-.7 1.1-1.2c.3-.5.4-1.2.4-2s-.1-1.5-.4-2c-.3-.5-.6-.9-1.1-1.2s-1-.5-1.6-.6c-.6-.1-1.2-.1-1.9-.1h-4.4v7.7l4.4.1zm13-12.1h5.1v4.2h-5.1v-4.2zm5.2 25.7h-5.1V19.7h5.1v18.6zm8.9-18.6v2.6h.1c.6-1.1 1.5-1.9 2.5-2.4s2.1-.7 3.2-.7c1.4 0 2.5.2 3.4.6.9.4 1.6.9 2.1 1.5.5.7.9 1.5 1.1 2.4.2.9.3 2 .3 3.2v11.5H90V27.9c0-1.5-.2-2.7-.7-3.4-.5-.8-1.3-1.1-2.6-1.1-1.4 0-2.4.4-3 1.2-.6.8-.9 2.2-.9 4.1v9.8h-5.1V19.9h4.7v-.2zm38.6-7.1c1.6 0 3 .2 4.1.7 1.1.5 2 1.1 2.8 1.9.7.8 1.2 1.6 1.5 2.6.3 1 .5 2 .5 3.1 0 1-.2 2-.5 3s-.8 1.9-1.5 2.6c-.7.8-1.6 1.4-2.8 1.9-1.1.5-2.5.7-4.1.7h-5.9v9.2h-5.7V12.6H121zm-1.5 12.1c.6 0 1.3 0 1.9-.1.6-.1 1.1-.3 1.6-.6s.8-.7 1.1-1.2c.3-.5.4-1.2.4-2s-.1-1.5-.4-2c-.3-.5-.6-.9-1.1-1.2s-1-.5-1.6-.6c-.6-.1-1.2-.1-1.9-.1h-4.4v7.7l4.4.1zm12.9-2.3c.5-.8 1.2-1.4 2-1.9s1.7-.8 2.8-1c1-.2 2-.3 3.1-.3.9 0 1.9.1 2.8.2 1 .1 1.8.4 2.6.8s1.4.9 1.9 1.6c.5.7.8 1.6.8 2.7v9.7c0 .8 0 1.6.1 2.4.1.8.3 1.3.5 1.7h-5.2c-.1-.3-.2-.6-.2-.9-.1-.3-.1-.6-.1-.9-.8.8-1.8 1.4-2.9 1.8-1.1.3-2.2.5-3.4.5-.9 0-1.7-.1-2.5-.3s-1.4-.6-2-1c-.6-.5-1-1-1.4-1.7-.3-.7-.5-1.5-.5-2.5 0-1.1.2-1.9.6-2.6.4-.7.9-1.2 1.4-1.6.6-.4 1.3-.7 2-.9.8-.2 1.5-.4 2.3-.5l2.3-.3c.7-.1 1.4-.2 2-.3.6-.1 1-.4 1.4-.6.3-.3.5-.7.5-1.2 0-.6-.1-1-.3-1.3s-.4-.6-.7-.8-.6-.3-1-.4c-.4-.1-.8-.1-1.3-.1-1 0-1.8.2-2.4.6-.6.4-.9 1.2-1 2.2h-5.1c.1-1.3.4-2.3.9-3.1m10.1 7.2l-1 .3-1.2.2c-.4 0-.8.1-1.2.2-.4.1-.8.2-1.1.3-.4.1-.7.3-1 .5s-.5.5-.7.8-.3.7-.3 1.2.1.8.3 1.2c.2.3.4.6.7.7.3.2.6.3 1 .4s.8.1 1.2.1c1 0 1.8-.2 2.3-.5.6-.3 1-.7 1.2-1.2.3-.5.4-.9.5-1.4.1-.5.1-.9.1-1.2v-1.9c-.2.1-.5.2-.8.3m16.8 14.2c-1 .6-2.4 1-4.1 1-.5 0-1.1 0-1.6-.1-.5 0-1-.1-1.6-.1v-4.2l1.5.1s1 .1 1.5 0c.7-.1 1.2-.3 1.5-.8s.5-1 .5-1.5c0-.4-.1-.8-.2-1.2l-6.5-17.5h5.4l4.2 12.8h.1l4.1-12.8h5.3l-7.8 20.9c-.6 1.7-1.3 2.8-2.3 3.4m16.8-24.1v2.5h.1c.7-1 1.5-1.7 2.4-2.2.9-.5 2-.8 3.3-.8 1.2 0 2.3.2 3.2.7 1 .5 1.7 1.3 2.2 2.4.6-.8 1.3-1.5 2.3-2.2 1-.6 2.1-.9 3.4-.9 1 0 1.9.1 2.7.4.8.2 1.6.6 2.2 1.2.6.5 1.1 1.2 1.4 2.1s.5 1.9.5 3.1v12.5h-5.1V27.9c0-.6 0-1.2-.1-1.8 0-.6-.2-1-.4-1.4-.2-.4-.5-.7-1-1-.4-.2-1-.4-1.7-.4s-1.3.1-1.7.4c-.4.3-.8.6-1 1.1-.3.4-.4.9-.5 1.5-.1.6-.1 1.1-.1 1.7v10.4h-5.1V26.3s-.1-1-.3-1.5-.5-.8-.9-1.1c-.4-.3-1-.4-1.9-.4-.2 0-.6.1-1 .2s-.8.3-1.2.6c-.4.3-.7.7-1 1.3-.3.6-.4 1.3-.4 2.2v10.8h-5.1V19.8h4.8v-.1zm32.7 14.1c.8.7 1.9 1.1 3.3 1.1 1 0 1.9-.3 2.7-.8.7-.5 1.2-1.1 1.4-1.6h4.5c-.7 2.2-1.8 3.8-3.3 4.8s-3.3 1.4-5.4 1.4c-1.5 0-2.8-.2-4-.7s-2.2-1.1-3-2c-.8-.9-1.4-1.9-1.9-3.1-.4-1.2-.7-2.5-.7-4 0-1.4.2-2.7.7-3.9.5-1.2 1.1-2.2 1.9-3.1s1.8-1.6 3-2.1 2.5-.8 3.9-.8c1.6 0 3 .3 4.1.9 1.2.6 2.1 1.4 2.9 2.5.8 1 1.3 2.2 1.6 3.5s.5 2.7.4 4.1h-13.4c.1 1.9.5 3.1 1.3 3.8m5.8-9.8c-.6-.7-1.5-1-2.8-1-.8 0-1.5.1-2 .4s-1 .6-1.3 1c-.3.4-.6.8-.7 1.3s-.2.9-.2 1.2h8.3c-.3-1.2-.7-2.2-1.3-2.9m14.1-4.3v2.6h.1c.6-1.1 1.5-1.9 2.5-2.4s2.1-.7 3.2-.7c1.4 0 2.5.2 3.4.6.9.4 1.6.9 2.1 1.5.5.7.9 1.5 1.1 2.4.2.9.3 2 .3 3.2v11.5h-5.1V27.9c0-1.5-.2-2.7-.7-3.4-.5-.8-1.3-1.1-2.6-1.1-1.4 0-2.4.4-3 1.2s-.9 2.2-.9 4.1v9.8H224V19.9h4.7v-.2zm26.8 0v3.4h-3.7v9.2c0 .9.1 1.4.4 1.7.3.3.9.4 1.7.4h.8l.8-.1v4c-.4.1-.9.1-1.4.1h-1.6c-.8 0-1.5-.1-2.3-.2-.7-.1-1.3-.3-1.9-.6-.5-.3-1-.8-1.3-1.3-.3-.6-.5-1.3-.5-2.3V23h-3.1v-3.4h3.1V14h5.1v5.6l3.9.1zm6.7 14c.2.4.5.7.9 1 .4.3.8.4 1.2.6.5.1 1 .2 1.5.2.4 0 .7 0 1.1-.1.4-.1.8-.2 1.1-.4.3-.2.6-.4.8-.7.2-.3.3-.7.3-1.1 0-.8-.5-1.3-1.5-1.7-1-.4-2.4-.8-4.3-1.2l-2.2-.6c-.7-.2-1.3-.5-1.9-.9-.6-.4-1-.8-1.3-1.4-.3-.6-.5-1.3-.5-2.1 0-1.2.2-2.2.7-3 .5-.8 1.1-1.4 1.9-1.8.8-.4 1.6-.8 2.6-.9 1-.2 1.9-.3 3-.3 1 0 2 .1 2.9.3s1.8.5 2.5 1 1.4 1.1 1.9 1.8c.5.8.8 1.7.9 2.9h-4.9c-.1-1-.4-1.7-1.1-2-.7-.3-1.5-.5-2.4-.5-.3 0-.6 0-.9.1-.3 0-.6.1-.9.2-.3.1-.5.3-.7.5-.2.2-.3.5-.3.9 0 .5.2.8.5 1.1.3.3.8.5 1.3.7.5.2 1.2.3 1.9.5.7.1 1.4.3 2.1.5l2.2.6c.7.2 1.3.6 1.9 1s1 .9 1.3 1.5.5 1.3.5 2.2c0 1.2-.2 2.3-.7 3.1s-1.1 1.5-1.9 2-1.7.9-2.7 1.1c-1 .2-2.1.3-3.1.3-1.1 0-2.1-.1-3.2-.3-1-.2-2-.6-2.8-1.1-.8-.5-1.5-1.2-2-2s-.8-1.9-.8-3.1h4.9c-.1.2 0 .7.2 1.1"/></svg>