<svg xmlns="http://www.w3.org/2000/svg" width="145.6" height="79.1" viewBox="0 0 145.6 79.1"><path d="M0 41.6h40.1l-7.3 36.6L0 41.6zM53.9.3l-6.9 36h39.4L53.9.3zM122 41.9h-9.4l-4.7 24.3c-.2.2-.8 4.8-5.1 4.5-5.2-.4-3.6-5.6-3.6-5.6l4.2-23.2h-9.3l-4.6 24.4S86.6 78.1 102 79c0 0 13 1.8 15.9-14 2.9-16.8 4.1-23.1 4.1-23.1zm-3.5 24.3s-3.9 12.1 11.8 12.8c0 0 13.2-.2 13.1-11.9 0 0 1-6.9-10.1-11.6 0 0-2.3-1-2.5-3.4-.1-2.3 2.4-2.8 2.4-2.8s1.7-.5 2.6.6c.7.7.6 3.6.6 3.6h8.8s3.4-12.1-10.8-12.2c0 0-10.6-.7-12.9 9.7 0 0-1.5 6.1 3.4 9.3 4.9 3.2 5.9 3.3 7.7 4.5 1.8 1.3 2 6-1.7 6.2-4.1.3-3.3-4.7-3.4-4.7l-9-.1zM1 36.3L47.7 0l-6.8 36.3H1zm73.1 5.4h9.5l-5.3 28h10.1l-1.5 8.4H67.1l7-36.4zm-20.3 8.7l-1.5 7.9h3.5c6-.1 5.7-4.4 5.7-4.4-.4-3.6-4.1-3.5-4.1-3.5h-3.6zm-7.9-8.8h12.3s8.8.3 11.7 6.5c2.8 6.2-1.1 12.9-1.8 13.4s-3.3 6.4-17.5 5.6l-2.4 11.2h-9.3l7-36.7z"/></svg>