<svg xmlns="http://www.w3.org/2000/svg" width="163.9" height="79.3" viewBox="0 0 163.9 79.3"><path d="M73 6.7c2.5-.4 5-.7 7.5-.2 2.2.5 3.9 1.7 4.8 3.9 1.6 4 .7 8.3-2.4 10.8-1.1.9-2.4 1.4-3.8 1.6-.8.1-1.6.1-2.4.3-.2.1-.4.6-.5.9v8.8c0 1.4 0 1.4-1.4 1.4-.6 0-1.2 0-1.8-.1V6.7zm3.3 7.9v4.9c0 .3.3.8.4.8 1.6.2 3.2-.1 4.4-1.2 1.8-1.8 2.3-5.5 1-8-.9-1.7-3.6-2.8-5.4-2.1-.2.1-.4.5-.4.8v4.8zM22.1 59.7c-.5-.4-.9-.7-1.3-1.1-1.1-1.1-2.3-1.5-3.9-1.5-1.6.1-3.4 1.6-3.8 3-.4 1.1.3 1.9 1 2.5.7.6 1.4 1.2 2 1.9.2.2.3.5.2.8 0 .1-.4.3-.6.3l-7.1.5c-1 .1-2.1.2-3.2.3C3.6 49.6 1.8 32.8 0 15.9l9.9-1.1c-.1-4.2 1.2-7.9 4.2-10.8C16.4 1.7 19.3.4 22.5.1c3.6-.3 6.9.7 9.7 2.9s4.5 5.2 5.1 8.8c2-.2 3.9-.4 5.8-.6 1.9-.2 3.8-.4 5.8-.6L54.3 61c-.7.2-1.4.4-2.1.4l-3.1.3c-.5.1-.8-.2-.8-.7 0-1.7-.2-3.3-.8-4.9-.5-1.4-1.3-2.7-2.4-3.7-.8-.7-2.6-.9-3.6-.3-1 .5-1 .5-1.8-.3-.5-.5-1-.7-1.7-.7-1.1-.1-2.2 0-3.2.6-.2.1-.6 0-.8-.1-.8-.5-1.6-1-2.7-1-.6 0-1.2.2-1.7.6-.2.2-.5.3-.8.5-.1-.4-.2-.7-.3-1-.3-2-.6-4.1-1-6.1-.2-.8-.5-1.6-.9-2.2-.7-1.1-1.9-1.2-3.1-1.1-2.2.2-3.5 2-3.5 4 0 1.4.3 2.7.4 4.1.2 1.7.4 3.5.7 5.2.2 1.4.4 2.9.7 4.3.4 0 .3.3.3.8zm-9.7-45.2c7.6-.8 15.1-1.6 22.5-2.4-.2-2.9-2.5-6.6-6-8.3-4.1-2-8.1-1.8-11.8.9-3.2 2.3-4.8 5.6-4.7 9.8zm33 62.6l.3-4.9c.1-1.1.3-2.2.5-3.2.4-2.1.8-4.3.6-6.5-.2-1.9-.5-3.7-.9-5.6-.2-.9-.6-1.9-1.4-2.5-.7-.5-1.5-.7-2.2-.3-.7.3-.7 1-.6 1.7 0 .2 0 .3.1.5v1.5h-.6c-.9 0-.8 0-1-.9-.2-1-.5-2-.9-3-.3-.9-1.1-1.3-2-1.2-.8.1-1.4.6-1.5 1.5-.1.8-.2 1.6-.2 2.3 0 .4-.1.6-.6.6-.7 0-.8-.2-.9-1.1-.1-.8-.3-1.7-.6-2.4-.3-.8-1-1.2-1.8-1.2s-1.3.6-1.7 1.3c-.5 1.1-.5 2.3-.5 3.5 0 .3.2.7-.3.7-.4 0-1 .3-1.1-.5l-.7-4.3-1.4-8.8c-.1-.8-.7-1.4-1.4-1.5-.9-.1-1.7.3-1.9 1.1-.2.7-.3 1.4-.3 2.2 0 .7.2 1.4.3 2.1.3 1.8.5 3.6.8 5.3.2 1.6.5 3.1.7 4.6.2 1.6.5 3.2.7 4.9l.4 3h-1.5c-.4 0-.5-.1-.5-.5 0-.7 0-1.4-.1-2.1 0-.3-.2-.6-.5-.8l-3-2.6c-1.7-1.6-3.1-1.3-4.3-.1-.4.4-.5.8 0 1.3 1.2 1.2 2.5 2.5 3.7 3.8 2.4 2.7 4.9 5.4 7.2 8.2 1.5 1.8 2.8 3.8 4.2 5.7.1.2.3.4.5.4 1 0 1.9 0 2.9-.2l6.4-1c1.7-.2 3.3-.4 5.1-.6v-.4zm43-17.7v12.2c0 2.2 0 2.2 2.1 2.2 1.2 0 1.3-.1 1.3-1.3V61.9c0-1.3 0-1.3 1.3-1.3h5.3c.7 0 1 .2 1 1v10.8c0 1.2.1 1.3 1.3 1.4 2 .1 2.1.1 2.1-1.9v-24c0-2.3 0-2.3-2.3-2.3-.8 0-1.1.2-1 1v9.6c0 1-.3 1.3-1.3 1.2-1.8-.1-3.6-.1-5.3 0-.9 0-1.1-.2-1.1-1.1v-8.4c0-2.4 0-2.4-2.5-2.4-.7 0-1 .2-1 1 .2 4.2.2 8.6.1 12.9zm34.1 0c.2 2.8 0 5.5-.8 8.2-.8 2.7-2.1 5.2-4.9 6.1-2.9 1-5.4.3-7.3-2.3-1.6-2.1-2.2-4.6-2.6-7.2-.5-3.4-.4-6.9.2-10.3.5-2.6 1.3-5 3.3-7 2.6-2.6 7.5-2.7 9.8 1.2 1.6 2.6 2.4 5.4 2.3 8.5v2.8zm-3.2.6c-.2-1.5-.2-3-.3-4.5-.1-1.9-.3-3.8-1.3-5.4-.7-1.1-1.6-1.9-3-1.9-1.5 0-2.4.9-2.9 2.1-1.5 3.2-1.6 6.7-1.6 10.2 0 1.9.3 3.8.7 5.6.2 1.2.7 2.3 1.4 3.4 1.1 1.7 3.4 1.9 4.7.4.6-.7 1.2-1.7 1.4-2.6.3-2.5.5-4.9.9-7.3zM98.4 21.1c1.6.9 2.5 2.4 3 4.2.1.5.2 1 .4 1.6l1.5 6.8v.7c-1 0-2 .2-2.8-.1-.5-.2-.8-1.2-.9-1.9-.5-2.1-.7-4.3-1.2-6.5-.6-2.7-1.9-3.5-4.6-3.5-.7 0-.9.3-.9 1v9.9c0 .9-.2 1.2-1.1 1.1-2.4 0-2 0-2-2V8c0-.9.3-1.3 1.2-1.4 2.1-.2 4.1-.4 6.2 0 3.1.6 5 2.6 5.4 5.8.3 2.3.1 4.6-1.5 6.4-.8.8-1.7 1.4-2.7 2.3zm-5.6-6.8v4.5c0 .3.3.8.5.9 1.3.1 2.7.1 3.8-.7 1.8-1.2 2.2-3.1 2.3-5.1 0-1.3-.3-2.6-1.2-3.7-1.2-1.4-2.8-1.3-4.4-1.3-.7 0-1 .2-1 1v4.4zm33.6 45.5V46.7c0-.8.4-1.3 1.3-1.3 1.6 0 3.2-.1 4.8 0 2.8.1 5.2 1.1 6.2 3.8 1.4 3.7 1.3 7.4-1.4 10.5-1.6 1.8-3.8 2.5-6.2 2.5-1.1 0-1.3.4-1.3 1.4l.1 8.8c0 .9-.3 1.3-1.2 1.3h-1.2c-.7 0-1-.4-1-1.1-.2-4.3-.2-8.6-.1-12.8zm4.7-11.7c-.3.1-1.4-.6-1.4.7 0 3.2-.1 6.3 0 9.5 0 .4.5 1 .8 1 1.3.2 2.5-.2 3.5-1 1.6-1.2 2.1-3 2-4.9 0-1.2-.3-2.5-.8-3.5-.7-1.3-2.2-1.9-4.1-1.8zm32.8-13.9c-.3.1-.4.1-.5.1-2.5.2-2.5.2-3.1-2.2-.4-1.8-.8-3.6-1.3-5.3-.1-.3-.6-.7-.9-.7-1.5-.1-3.1-.1-4.6 0-.3 0-.9.4-.9.7-.5 2.1-.9 4.2-1.3 6.3-.2 1.2-.4 1.4-1.6 1.3H148c.2-1.1.4-2 .6-2.9.5-2.3 1-4.5 1.6-6.8.7-2.9 1.4-5.8 2-8.6l1.4-6.3c.2-.7.3-1.5.4-2.2.1-.6.4-1 1.1-.9h.4c2.3 0 2.4 0 2.9 2.1.5 2.2.9 4.4 1.4 6.5.6 2.8 1.3 5.6 2 8.4.5 2.1.9 4.2 1.3 6.4l.6 2.7c.1.4.1.9.2 1.4zm-8-10.7h1.9c.7 0 .8-.3.7-1-.4-2-.8-4-1.2-5.9l-.9-4.7c0-.2-.3-.3-.4-.4l-.4.5c-.7 3.5-1.4 7-2.1 10.4-.2.9 0 1.1.9 1.1h1.5zM106.8 7.1v26.4c0 .7.3.9.9.8h9.2c.8 0 1.1-.2 1.1-1.1-.1-.7.2-1.6-1.1-1.5-2 .1-4 0-5.9 0-.7 0-1-.2-1-1v-8.8c0-.6.2-.8.8-.8h5.1c.9 0 1.2-.3 1.2-1.2-.1-1.3-.2-1.6-1.3-1.6h-4.9c-.7 0-1-.1-1-.9v-7.2c0-.8.3-1 1-1h5.6c.6 0 .9-.2.9-.9v-.6c.1-1-.2-1.3-1.2-1.3-1.5.1-2.9 0-4.4 0h-5v.7zM75.5 46.4c-1.4.9-2.2 2.2-2.6 3.7-1.1 3.6.3 6.5 2.9 8.8l3.4 2.8c1.2 1 2 2.3 2.2 3.9.1 1.7-.2 3.4-1.7 4.4-1.7 1.2-3.5 1.1-5.4.3-1.5-.6-1.6-.6-2 1.1 0 .1 0 .2-.1.3-.2 1 .1 1.5 1.1 1.6.2 0 .3 0 .5.1 2.8.9 5.4.6 7.9-1.1 3.3-2.2 3.5-7.4 2.2-10-1.1-2.3-2.9-3.8-5-5.2-1.4-.9-2.6-2-3.1-3.8-.4-1.5.2-4.4 2.4-4.9 1.4-.3 2.7-.3 3.9.3.8.3 1.1.1 1.3-.6l.2-1.1c.2-.9-.3-1.4-1.1-1.5-1-.2-2-.3-3-.4-1.3-.1-2.7.5-4 1.3zm56.2-38.6c.2-.5.1-.7-.4-.9-2.6-1.4-6.8-.8-8.8 1.4-2.9 3.2-2.6 8 1.1 11.2 1.4 1.2 2.9 2.3 4.2 3.5 1.9 1.8 2.2 4.6 1.1 6.7-1.1 2-3.5 2.6-6.3 1.7-1.9-.6-1.8-.7-2.3 1.2-.1.5-.2.9.5 1.1.6.2 1.2.5 1.9.6 2.1.4 4.2.4 6.1-.6 2-1.1 3.2-2.7 3.7-5 .7-3.1-.1-5.7-2.2-7.9-1.2-1.3-2.7-2.3-4.1-3.4-1.7-1.3-2.5-2.9-2.4-5 .2-2.8 3.3-4.1 5.5-3.4.6.2 1.2.4 2 .7.1-.6.2-1.3.4-1.9zm8.2 14v10.7c0 2-.3 1.8 1.9 1.9 1 0 1.3-.3 1.3-1.3V10.3c0-.7.2-1 .9-.9h2.3c1.8 0 1.8 0 1.8-1.8 0-.7-.1-1.1-1-1.1h-11.5c-.9 0-1.1.4-1 1.2.1.7-.2 1.7 1 1.7h2.8c1.4 0 1.4 0 1.4 1.4.1 3.6.1 7.3.1 11z"/></svg>