<svg xmlns="http://www.w3.org/2000/svg" width="207.9" height="57.6" viewBox="0 0 207.9 57.6"><path d="M65.8 43.8v-28H74v2.5c.6-.7 1.3-1.3 2-1.8 1.5-.9 3.2-1.4 5.1-1.4.4 0 .9 0 1.3.1l1.2.3.6.2v8l-1-.3c-.5-.1-1-.3-1.6-.3-.5-.1-1-.1-1.4-.1-1.4 0-2.5.2-3.3.7s-1.5 1.1-1.9 1.7c-.4.6-.7 1.3-.9 1.9-.2.8-.2 1.3-.2 1.5v14.9h-8.1v.1zm22.3 0v-28h8.2v28h-8.2zM88 7.7c0-1.1.4-2 1.2-2.8.8-.8 1.8-1.2 3-1.2s2.2.4 3.1 1.1c.8.8 1.2 1.7 1.2 2.8s-.4 2.1-1.2 2.8c-.8.8-1.8 1.1-3.1 1.1s-2.2-.4-3-1.2c-.8-.7-1.2-1.6-1.2-2.6zm13.4 48.6V15.8h7.8v2.5c.8-.9 1.8-1.5 2.8-2 1.7-.8 3.6-1.2 5.5-1.2 2.1 0 4.1.4 5.8 1.1 1.7.8 3.2 1.8 4.4 3.1 1.2 1.3 2.1 2.9 2.7 4.7s.9 3.7.9 5.7-.3 3.9-1 5.7c-.7 1.8-1.6 3.3-2.8 4.7-1.2 1.3-2.6 2.4-4.3 3.1-1.7.8-3.5 1.1-5.5 1.1-1.3 0-2.5-.1-3.5-.4-1-.3-1.9-.6-2.7-1.1-.8-.4-1.5-.9-2-1.4l-.1-.1v14.8h-8v.2zm15-33.6c-1.1 0-2.1.2-2.9.6-.9.4-1.6.9-2.2 1.6-.6.7-1.1 1.4-1.4 2.3-.3.9-.5 1.8-.5 2.7 0 .9.2 1.8.5 2.7s.8 1.6 1.4 2.3c.6.7 1.3 1.2 2.2 1.6.8.4 1.8.6 2.9.6s2.1-.2 2.9-.6c.9-.4 1.6-.9 2.2-1.6.6-.7 1.1-1.4 1.4-2.3s.5-1.8.5-2.7c0-.9-.2-1.8-.5-2.7-.3-.9-.8-1.6-1.4-2.3-.6-.7-1.3-1.2-2.2-1.6-.9-.4-1.9-.6-2.9-.6zm18.4 33.6V15.8h7.8v2.5c.8-.9 1.8-1.5 2.8-2 1.7-.8 3.6-1.2 5.5-1.2 2.1 0 4.1.4 5.8 1.1 1.7.8 3.2 1.8 4.4 3.1 1.2 1.3 2.1 2.9 2.7 4.7.6 1.8.9 3.7.9 5.7s-.3 3.9-1 5.7c-.7 1.8-1.6 3.3-2.8 4.7-1.2 1.3-2.6 2.4-4.3 3.1-1.7.8-3.5 1.1-5.5 1.1-1.3 0-2.5-.1-3.5-.4-1-.3-1.9-.6-2.7-1.1-.8-.4-1.5-.9-2-1.4l-.1-.1v14.8h-8v.2zm14.9-33.6c-1.1 0-2.1.2-2.9.6-.9.4-1.6.9-2.2 1.6-.6.7-1.1 1.4-1.4 2.3-.3.9-.5 1.8-.5 2.7 0 .9.2 1.8.5 2.7s.8 1.6 1.4 2.3c.6.7 1.3 1.2 2.2 1.6.8.4 1.8.6 2.9.6 1.1 0 2.1-.2 2.9-.6.9-.4 1.6-.9 2.2-1.6.6-.7 1.1-1.4 1.4-2.3s.5-1.8.5-2.7c0-.9-.2-1.8-.5-2.7-.3-.9-.8-1.6-1.4-2.3-.6-.7-1.3-1.2-2.2-1.6-.8-.4-1.8-.6-2.9-.6zm18.6-21.6h8.2v43.1h-8.2V1.1zm26.5 43.3c-2.1 0-4-.3-5.9-1-1.8-.7-3.5-1.7-4.8-3-1.4-1.3-2.4-2.8-3.2-4.6-.8-1.8-1.2-3.8-1.2-6s.4-4.2 1.2-6c.8-1.8 1.9-3.3 3.2-4.6 1.4-1.3 3-2.3 4.8-3 1.8-.7 3.8-1 5.9-1 1.9 0 3.7.3 5.3 1 1.6.7 3 1.7 4.2 3 1.1 1.3 2.1 2.9 2.7 4.8.6 1.9.9 4 .9 6.4V33h-20c.3 1.4.9 2.4 1.9 3.2 1.2 1 2.6 1.5 4.3 1.5 1.5 0 2.8-.3 3.7-.9 1-.6 2-1.4 2.7-2.4l.5-.6 6 4.5-.5.6c-1.6 2-3.5 3.4-5.5 4.3-1.9.8-4 1.2-6.2 1.2zm5-18c-.2-1.4-.7-2.4-1.5-3.2-1-1-2.5-1.5-4.4-1.5-1.8 0-3.1.5-4.2 1.5-.8.8-1.4 1.9-1.7 3.2h11.8zM30.5 51.3c3.2 5.8 10.5 8 16.3 4.9 5.8-3.2 8-10.5 4.9-16.3-2.2-4.1-6.5-6.4-10.8-6.3v-.1c-1.3.1-2.5-.3-3.5-1.1-1.9-1.4-2.4-4.1-1.1-6.2 1-1.6 2.8-2.4 4.6-2.2 4 0 7.9-2.1 10.1-5.7 3.5-5.7 1.7-13.1-3.9-16.5C41.4-1.7 34 .1 30.6 5.7c-2.4 4-2.3 8.8-.1 12.5l.5.9v.1c.3.6.4 1.3.4 2.1-.1 2.6-2.2 4.6-4.8 4.5-1.9-.1-3.5-1.2-4.2-2.9v-.1c-2-3.4-5.7-5.7-10-5.8C5.8 16.8.2 22 0 28.7c-.2 6.6 5 12.2 11.7 12.4 4.7.1 8.8-2.4 10.9-6.2.7-1.7 2.5-2.8 4.4-2.8.3 0 .6 0 .8.1 1.4.2 2.6 1.1 3.3 2.4.9 1.7.7 3.7-.4 5.1-2 3.4-2.2 7.8-.2 11.6z"/></svg>