<svg xmlns="http://www.w3.org/2000/svg" width="259.4" height="54.9" viewBox="0 0 259.4 54.9"><path d="M178.8 0c4.5 3 8.9 6 14 9.4-9.1 1.8-17.4 4.1-24.8 8.7-7.7 4.8-13.2 11.2-15.5 20.3-2.7-9-1.5-17.3 4.3-24.8 4.7-6 11.1-9.6 18-12.3.9-.4 1.8-.9 2.8-1.3h1.2zm-29.9 51.3c7 4.6 7 4.7 14.7.9 7.8-3.8 14.2-8.9 17.5-17.3 2.3-5.8 2.3-11.8.4-18.6-6.1 20.4-22.4 25.8-40.4 29.8 2.9 2 5.3 3.6 7.8 5.2zm-12.7-19.7c6.4 0 6.4 0 5.3-6.3-1.2-6.4-5.6-10-12-9.7-6.2.3-9.9 4-10.4 10.5-.1 1.2-.2 2.5-.1 3.7.1 9.5 5.2 14 14.7 12.9 1.1-.1 2.2-.4 3.4-.6 2.8-.4 4-1.9 3-4.7-11.5 3.1-16.5 1.5-17.1-5.9 4.3.1 8.8.1 13.2.1zM123 28c-.3-5.6 2.1-8.5 6.9-8.6 5.1-.1 7.9 2.9 7.8 8.6H123zm-96.5 3.6h18.4c.6-5-.1-9.4-3.4-12.9-4.8-5.2-15.2-3.8-17.8 2.5-2.5 6-3 12.4 1.1 17.8 3.8 5 9.7 4.3 15.2 3.3.1 0 .2 0 .3-.1 2.6-.4 3.9-1.7 2.9-4.7-11.8 3.9-17.6.1-16.7-5.9zm-.1-3.6c-.6-5.3 1.8-8.4 6.4-8.7 5.3-.3 8.1 2.6 8.3 8.7H26.4zm197.3 3.6h18.5c.7-4.4 0-8.2-2.3-11.6-4.1-6.3-15.7-5.8-18.8 1.1-2.7 5.9-3 12.4.9 17.8 3.6 5 9.4 4.5 14.9 3.5l.9-.2c2.4-.5 3.8-1.6 2.8-4.6-12.3 2.7-16.7 1.3-16.9-6zm6.9-12.3c5-.1 7.8 2.9 7.9 8.7h-14.8c-.2-5.8 2-8.6 6.9-8.7zm-17.1 23c0-6.4.3-12.8-.1-19-.2-3.9-2.8-6.8-6.7-7.1-3.9-.3-8 .4-11.9.9-2.1.3-3 1.6-2.9 3.9.2 5.9.1 11.8.1 17.8v3.6h3.8V25.5c0-5.5 0-5.5 5.6-6 6.2-.5 8.4 1.5 8.4 7.7v15.1h3.7zM94.7 32.7c-.1 4.3-2.4 6.5-6.6 6.6-5.1.2-7.5-2.1-7.6-7.2-.1-5.3 0-10.5 0-16-1.5.1-2.6.1-3.7.2 0 5.9-.2 11.5.1 17.1.3 5.7 4.2 9.2 9.9 9.6 6.1.4 11-2.6 11.5-8 .6-6.1.1-12.4.1-18.7h-3.6c-.1 5.6.1 11-.1 16.4zM13 16.2c-2.4-.2-5-.4-7.3 0C2.2 16.8.1 19.7 0 23c-.1 3.2 1.6 5.4 5.1 6.6l5.1 1.5c2.3.8 4.3 2 3.9 4.8-.4 2.8-2.9 3.2-5 3.1-2.8-.2-5.6-.9-8.4-1.4-1 2.6.2 4.2 2.8 4.5 2.8.3 5.8.6 8.6.2 3.8-.6 5.9-3.1 6.1-6.4.2-3.5-1.6-6.4-5.1-7.8-1.9-.8-3.9-1.3-5.9-2-1.7-.6-3.8-1.5-3-3.6.6-1.4 2.5-3 3.9-3.1 2.6-.3 5.3.4 8 .7.8-2.3-.4-3.7-3.1-3.9zm235.8 3.7v3.4c0 4.2-.1 8.3.1 12.5.2 4.9 2.9 7.4 7.5 7.2 3-.1 3.4-.7 2.7-3.7-1.1 0-2.4.3-3.4-.1s-2.6-1.3-2.6-2.1c-.2-5.7-.1-11.5-.1-17.5h6.3v-3.5h-6.6V8.9h-4V16c-1.7.1-3 .2-4.4.4v3.1c1.5.1 2.8.2 4.5.4zM56.3 36.4c-2.5-2.7-2.7-10.4-.4-13.6 4-5.6 9.5-3.1 14.7-2.4.5-1.9.5-3.2-1.8-3.9-11.3-3.6-19.6 3.2-18.2 15 1 8.4 6.1 12.4 14.5 11.4.9-.1 1.8-.3 2.8-.5 2.4-.3 3.6-1.4 2.6-4.2-5 1-10.1 2.8-14.2-1.8zm50.5-19c-1.7.3-2.3 1.3-2.2 3.1.1 5.4 0 10.8 0 16.2v5.9c1.5-.1 2.5-.1 3.8-.2V20.7c3.1-.5 5.9-1 8.8-1.6v-3.8c-3.8.7-7.1 1.4-10.4 2.1z"/></svg>