<svg xmlns="http://www.w3.org/2000/svg" width="174.9" height="60.3" viewBox="0 0 174.9 60.3"><path d="M0 32.5l.7-4c.1-.7.2-1.5.4-2.3l.8.4c2.3 1.1 4.6 2.1 7.2 2.1.4 0 .8 0 1.2-.1 2.1-.4 3.1-2.4 1.9-4.3-.5-.8-1.2-1.5-2-2.1l-4.1-2.9c-2-1.4-3.7-3-4.8-5.2-2.9-6 .8-13 7.4-13.9 3.4-.4 6.6 0 9.8 1.3.5.2.6.4.5.9-.4 2.1-.6 4.2-1 6.5-.3-.2-.6-.3-.8-.4-1.7-.9-3.5-1.5-5.4-1.6-1.6-.1-2.8.7-3 2-.1.6.1 1.5.4 2 .6.8 1.5 1.5 2.4 2.2 1.9 1.4 3.9 2.6 5.6 4.1 3.5 3.1 4.5 7.1 3.3 11.6-1 3.7-4.1 6.2-8.1 6.7-4.3.5-8.4-.2-12.4-2v-1zM174.9.2l-.8.1h-7.3c-.5 0-.7.2-.9.7l-2.7 8c-.5 1.5-1.1 3.1-1.7 4.8-1.7-4.7-3.2-9.2-4.8-13.8-3 .4-6 .8-9 1.3l.3.8 8.5 19.9c.2.6.4 1.2.4 1.9V35h8.4V23.4c0-.4.1-.8.2-1.2l6.7-15.5 2.7-6V.2zM44 11.4c1.5 7.9 2.8 15.8 4.2 23.7h7.7c.5 0 .5-.3.5-.6l3.2-18.8.7-4.2h.1c.3 7.8.6 15.6.8 23.5h8c-.5-11.6-.9-23.1-1.4-34.6H56.5c-1.3 7.5-2.6 15-4 22.4-.2-.2-.2-.3-.3-.5L48.5 1c-.1-.6-.3-.7-.8-.7H37.1c-.5 11.5-.9 23-1.4 34.6H43c.4-7.9.7-15.7 1-23.5zM85.4 23c3.5-.7 6.4-2.4 8-5.8 1.2-2.6 1.3-5.3.9-8-.3-2.1-1.1-4-2.7-5.6C89.3 1.3 86.5.5 83.4.3 80 .1 76.6.2 73.1.2l-.4.1v34.5h8.1V23.5c1.6-.1 3.1-.2 4.6-.5zM80.8 6.8c3.6-.5 5.7 1.2 5.8 4.7 0 .7 0 1.4-.2 2.1-.4 2-1.8 3.2-3.8 3.4h-1.8V6.8zM138 21.6h7.5l-1.2-7.2h-6.4v-7h9.2V.3h-17.5v34.6h8.2c.2-4.5.2-8.9.2-13.3zM96.9 34.9h17.6l-1.2-7.3h-8.1V.4h-8.3v34.5zm-73 0h8.3V.3h-8.3v34.6zm93.1 0h8.3V.4H117v34.5zM87.6 59.1v-5.6c0-2.2 0-4.4.1-6.6.2-2.7 1.6-4.4 4-4.9.8-.2 1.7-.1 2.6-.1 1.6.2 2.7 1.1 3.1 2.7.2.8.3 1.7.3 2.6V60h1.8v-4.8c0-3.1 0-6.2-.1-9.3-.1-2-.8-3.8-2.7-4.9-2.8-1.5-6.8-.8-8.9 1.6l-.8 1c-1.6-4.3-9.1-4.6-11.5-.4l-.3-2.1c0-.2-.3-.4-.5-.4-.3-.1-.7 0-1 0V60h1.7V49.6c0-1.4.2-2.8.5-4.1.9-3.2 5.2-4.7 8-2.9.2.1.3.2.4.4 1.1 1 1.3 2.3 1.3 3.7v13.4h1.8c.2-.5.2-.8.2-1zM43.4 59v-9.7c0-1.3.2-2.6.5-3.9.5-2 1.7-3.2 3.8-3.6.8-.1 1.6-.1 2.4-.1 1.9.2 3.1 1.3 3.4 3.2.1.5.1 1 .1 1.5v13.3h1.9V48.4c0-.7.1-1.5.2-2.2.4-2.4 1.7-3.9 4-4.3.9-.2 1.9-.2 2.8 0 1.5.2 2.5 1 2.9 2.5.2.9.4 1.8.4 2.8V60h1.8V47.3c0-.7 0-1.4-.2-2.1-.4-2.2-1.4-3.9-3.7-4.6-3-.8-6.5-.3-8.5 2.9 0 0-.1 0-.2.1-1-2.5-3.1-3.2-5.5-3.3-2.5-.1-4.5.8-6 3-.2-1-.3-1.8-.4-2.6h-1.4V60h1.7v-1zm128.9-8.6c-.2-1.7-.2-3.2-.6-4.7-.6-2.6-2.1-4.5-4.8-5.3-4.1-1.2-8.1.8-9.7 4.9-1.2 3.1-1.2 6.2-.2 9.3 1 3 3.1 4.8 6.2 5.4 2.3.4 4.7.3 6.9-.6 1.6-.6 1.2-.1 1.3-1.9 0 0 0-.1-.1-.2-.2.1-.4.1-.5.2-1.5.3-3 .8-4.5 1-2.4.2-4.6-.2-6.2-2.1-1.4-1.7-1.7-3.7-1.8-6h14zm-13.9-1.6c.2-5.1 3.6-7.7 7.6-6.9 1.4.3 2.4 1.1 3.2 2.3.8 1.4 1.1 3 1.1 4.6h-11.9zM119 57.7c-1.8.7-3.6 1-5.5.9-4.9-.1-6.9-4-6.7-8.1h13.8c0-1 .1-1.9 0-2.8-.2-2.4-1-4.6-2.9-6.1-3.6-2.8-9.3-1.4-11.4 2.8-1.8 3.6-1.9 7.3-.4 11 1 2.6 3.1 4.2 5.9 4.7 2.3.4 4.7.3 6.9-.5 1.7-.6 1.3-.1 1.3-2l-.1-.1c-.4 0-.7.1-.9.2zm-12.2-8.9c.2-2.4.8-4.5 2.8-5.9 1.8-1.3 3.9-1.6 5.9-.6 1.9.9 2.6 2.6 3 4.5.1.7.1 1.3.2 2.1-4-.1-7.9-.1-11.9-.1zm-70.5 1.4c-.1-.7-.1-1.4-.2-2.2-.5-4.4-3.1-7.3-7.3-7.8-4.3-.6-7.9 1.7-9.2 5.7-.8 2.6-.8 5.2-.1 7.8 1.1 4.1 3.9 6.4 8 6.5 4 .1 7-2 8.1-5.7.4-1.4.5-2.9.7-4.3zm-2.6 4.1c-.9 2.8-3 4.2-5.9 4.3-3 0-5.1-1.4-6.1-4.1-1-2.9-1-5.8 0-8.7 1-2.7 3-4 6-4 2.8 0 5 1.4 5.9 4 .5 1.4.6 2.9.9 4.3-.2 1.5-.3 2.9-.8 4.2zM10.1 40.1c-3.8.3-6.6 2.4-7.7 6-.7 2.1-.7 4.3-.4 6.5.2 1.8.9 3.4 2 4.8 2.3 2.8 8.2 3.8 11.3 2 .1-.1.3-.2.3-.4v-1.2c-1.4.3-2.7.6-4.1.7-3.7.4-6.5-1.6-7.4-5.2-.5-2-.5-4-.1-5.9.8-3.8 3.1-5.7 7-5.6 1.4 0 2.8.4 4.3.6.1-.4.3-.9.4-1.4-1.2-.6-3.7-1-5.6-.9zm137.1 0c-4 .3-6.8 2.6-7.8 6.5-.6 2.3-.6 4.5-.1 6.8.3 1.7 1.1 3.1 2.2 4.4 2.9 3.1 8.3 2.7 10.9 1.7.2-.1.3-.3.3-.5v-1.2c-1.4.3-2.7.6-4 .7-3.8.4-6.5-1.5-7.4-5.2-.6-2.2-.5-4.4.1-6.6.7-2.6 2.4-4.4 5.1-4.8 1.1-.2 2.3-.1 3.4 0 .9.1 1.8.4 2.7.6.2-.5.3-1 .5-1.6-2.1-.6-3.9-.9-5.9-.8zM126 59.9h1.7V49.6c0-1.6.2-3.2 1-4.6 1.1-2.1 2.8-3.3 5.3-3.1l1.9.2c.1-.3.1-.6.2-.8.1-.3.1-.6.1-.8-3.6-.8-6.6-.1-8.4 3.5l-.1-.1-.2-3.2H126v19.2z"/></svg>