<svg xmlns="http://www.w3.org/2000/svg" width="137.4" height="71.6" viewBox="0 0 137.4 71.6"><path d="M98.1 11.2c3.1 0 5.6-2.5 5.6-5.6 0-3.1-2.5-5.6-5.6-5.6-3.1 0-5.6 2.5-5.6 5.6 0 3.1 2.5 5.6 5.6 5.6m-42.9 3c-.3.6-2.1 5.8-6.5 11.1V2.5L37 4.8v41.3h11.7V33.3c3.4 5.1 5.1 12.8 5.1 12.8h14c-1.4-5.8-7.5-16.4-7.5-16.4 5.5-6.9 7.8-14.3 8.2-15.5H55.2zm30.8-.4c-10.5.3-15.8 5-15.8 14.4v17.9h11.5V31.5c0-5.6.7-8 7.4-8.2V14c-1.2-.3-3.1-.2-3.1-.2m-68.7 5c-1.4-.1-4.8-.3-4.8-3.3 0-3.6 4.8-3.6 6.6-3.6 3.2 0 7.2.9 10.2 1.8 0 0 1.6.6 3 1.2h.1V5l-.2-.1c-3.4-1.2-7.5-2.4-14.9-2.4C4.5 2.5 0 10 0 16.4c0 3.7 1.6 12.4 16.2 13.4 1.2.1 4.5.3 4.5 3.4 0 2.6-2.7 4.1-7.2 4.1-5 0-9.8-1.3-12.7-2.5V45c4.4 1.2 9.3 1.7 15.1 1.7 12.5 0 18.1-7.1 18.1-14.1.1-8-6.2-13.1-16.7-13.8m75.1 27.4h11.4V14.3H92.4v31.9zm32.8-41.6v41.6h11.3V2.6l-11.3 2zm-16.6 0l11.4-2v43.6h-11.4V4.6zM13 67.6v-6.7c0-.8-.3-1.3-1.1-1.3-.6 0-1.2.4-1.8.9v7.1H6.8v-6.7c0-.8-.3-1.3-1.1-1.3-.6 0-1.2.4-1.8.9v7.1H.6V56.9h2.9l.2 1.5c1-1 2-1.7 3.3-1.7 1.5 0 2.3.7 2.7 1.7 1-1 2-1.7 3.4-1.7 2 0 3 1.3 3 3.3v7.6H13zm23.4 0v-6.7c0-.8-.3-1.3-1.1-1.3-.6 0-1.2.4-1.8 1v7.1h-3.3V57h2.9l.2 1.5c1-.9 2-1.7 3.4-1.7 2 0 3 1.3 3 3.3v7.6h-3.3v-.1zm10-8.8c-.9 0-1.6.8-1.7 2.5h3.4c-.2-1.7-.7-2.5-1.7-2.5m4.7 4.3h-6.4c.2 1.7 1.2 2.3 2.6 2.3 1.2 0 2.3-.4 3.5-1.1l.3 2.3c-1.2.7-2.6 1.2-4.3 1.2-3.2 0-5.5-1.7-5.5-5.5 0-3.5 2.2-5.6 5.1-5.6 3.3 0 4.8 2.5 4.8 5.6 0 .3 0 .6-.1.8m7.7 4.7c-1 2.8-2.3 3.8-4.6 3.8-.7 0-.9-.1-1.3-.1l-.4-2.7c.4.1.7.2 1.3.2.7 0 1.4-.3 1.8-1l.1-.3-3.9-10.5 3.6-.4 2.1 6.8 2-6.6h3.2l-3.9 10.8zM69 59.6c-.7 0-1.3.4-1.8 1v4.3c.4.1.7.2 1.2.2 1.3 0 2.2-.8 2.2-2.9 0-1.8-.6-2.6-1.6-2.6m-.5 8.1c-1.7 0-3.4-.3-4.6-.8V52.3l3.3-.5v6.3c.7-.7 1.6-1.4 2.9-1.4 2.2 0 3.9 1.7 3.9 5.3-.1 4-2.2 5.7-5.5 5.7m11.9-8.3c-1.3 0-2 1.1-2 2.9 0 1.7.7 2.9 2 2.9s2-1.2 2-2.9c0-1.8-.7-2.9-2-2.9m0 8.4c-3 0-5.1-2.1-5.1-5.6 0-3.4 2.2-5.6 5.2-5.6s5.2 2.1 5.2 5.6-2.3 5.6-5.3 5.6M92 59.4c-1.3 0-2 1.1-2 2.9 0 1.7.7 2.9 2 2.9s2-1.2 2-2.9c-.1-1.8-.8-2.9-2-2.9m-.1 8.4c-3 0-5.1-2.1-5.1-5.6 0-3.4 2.2-5.6 5.2-5.6s5.2 2.1 5.2 5.6-2.3 5.6-5.3 5.6m13.4 0l-3.1-5.2v5h-3.3V52.3l3.3-.5v9.5l2.9-4.4h3.6l-3.4 4.9 3.5 5.5-3.5.5zm8.7-9c-.9 0-1.6.8-1.7 2.5h3.4c-.2-1.7-.7-2.5-1.7-2.5m4.8 4.3h-6.4c.2 1.7 1.2 2.3 2.6 2.3 1.2 0 2.3-.4 3.5-1.1l.3 2.3c-1.2.7-2.6 1.2-4.3 1.2-3.2 0-5.5-1.7-5.5-5.5 0-3.5 2.1-5.6 5.1-5.6 3.3 0 4.8 2.5 4.8 5.6-.1.3-.1.6-.1.8m5.1-1.4v6h-3.3V57h2.9l.4 2.1c.7-1.2 1.6-2.2 3.1-2.3l.5 3.4c-1.6-.1-2.8.6-3.6 1.5m8.8 6.1c-1.7 0-3.3-.5-4.4-1.1l.4-2.5c1.3.8 2.8 1.3 4.1 1.3.9 0 1.4-.3 1.4-.8s-.3-.8-1.8-1.2c-2.7-.7-3.8-1.4-3.8-3.4s1.5-3.3 4.1-3.3c1.4 0 2.9.3 4 .8l-.4 2.5c-1.2-.6-2.5-1-3.5-1-.8 0-1.1.3-1.1.7s.3.7 1.8 1.1c2.9.8 3.9 1.5 3.9 3.5-.3 2.2-1.8 3.4-4.7 3.4M23.2 59.4c-1.3 0-2 1.1-2 2.9 0 1.7.7 2.9 2 2.9s2-1.2 2-2.9c0-1.8-.7-2.9-2-2.9m0 8.4c-3 0-5.1-2.1-5.1-5.6 0-3.4 2.2-5.6 5.2-5.6s5.2 2.1 5.2 5.6-2.3 5.6-5.3 5.6"/></svg>