<svg xmlns="http://www.w3.org/2000/svg" width="140.9" height="58.4" viewBox="0 0 140.9 58.4"><path d="M123.6 27.1c.3-4.6 1.5-6.8 3.9-6.8 2.3 0 3.5 2.2 3.7 6.8h-7.6zm17.3 2.7c0-5.1-1.1-9.2-3.3-12.1-2.2-2.9-5.6-4.4-9.9-4.4-8.8 0-14.2 6.5-14.2 16.9 0 5.8 1.5 10.2 4.3 13 2.6 2.5 6.3 3.7 11 3.7 4.4 0 8.5-1 11-2.7l-1.1-7.1c-2.5 1.4-5.5 2.1-8.8 2.1-2 0-3.4-.4-4.4-1.3-1.1-.9-1.7-2.4-1.9-4.5h17.1c.1-.5.2-2.8.2-3.6zm-41.2 7c-.8 1.6-2.1 2.4-3.6 2.4-1 0-2-.2-2.8-.6V23.2c1.7-1.8 3.3-2 3.9-2 2.6 0 3.9 2.8 3.9 8.3 0 3.2-.5 5.6-1.4 7.3zm8.5-19.9c-1.8-2.4-4.4-3.5-7.6-3.5-3 0-5.6 1.2-8.1 3.9l-.5-3.2h-9.1v44.3l10.3-1.7V46.1c1.6.5 3.2.7 4.6.7 2.6 0 6.3-.7 9.2-3.8 2.8-3 4.2-7.7 4.2-13.9.1-5.4-.9-9.6-3-12.2zM68.6 14h10.3v32.3H68.6V14zm5.2-3.2c3 0 5.4-2.4 5.4-5.4S76.8 0 73.8 0s-5.4 2.4-5.4 5.4c0 2.9 2.4 5.4 5.4 5.4zm-9.6 2.7c-2.9 0-5.2 1.5-6.1 4.3l-.6-3.8h-9v32.3h10.3v-21c1.3-1.6 3.1-2.1 5.6-2.1.5 0 1.1 0 1.8.1v-9.5c-.8-.2-1.4-.3-2-.3zm-19.8 8.1l1.2-7.6H39V4.7l-8.8 1.5-1.3 7.8-3.1.5-1.2 7.1h4.3v15c0 3.9 1 6.6 3 8.3 1.7 1.4 4.2 2 7.6 2 2.7 0 4.3-.5 5.4-.7v-8.1c-.6.2-2 .5-3 .5-2 0-2.9-1-2.9-3.4V21.7l5.4-.1zm-29.5 4.5c-3-1.1-4.7-2-4.7-3.4 0-1.2 1-1.8 2.7-1.8 3.1 0 6.3 1.2 8.5 2.3l1.2-7.7c-1.7-.8-5.3-2.2-10.3-2.2-3.5 0-6.4.9-8.5 2.6C1.6 17.7.5 20.3.5 23.4c0 5.6 3.4 8.1 9 10.1 3.6 1.3 4.8 2.2 4.8 3.6s-1.2 2.2-3.3 2.2c-2.6 0-6.9-1.3-9.8-2.9L0 44.2C2.4 45.6 6.9 47 11.5 47c3.7 0 6.8-.9 8.8-2.5 2.3-1.8 3.5-4.5 3.5-8 .3-5.9-3.2-8.3-8.9-10.4z"/></svg>