<svg xmlns="http://www.w3.org/2000/svg" width="230.9" height="57.4" viewBox="0 0 230.9 57.4"><path d="M110.1 21.9c-1.4-.7-3.3-1.3-5.5-1.3-5.3 0-8.5 2.5-9.8 3.5l1.9-11.3h-7.5L84 43.7h7.5l2.9-16.8c1.9-1.4 4.2-2.7 6.7-2.7 1.3 0 2.4.4 3.2 1 1.4 1.2 1.1 3.1.8 5.2l-2.2 13.3h7.5l2.5-14.8c.1-2 .6-5.1-2.8-7zm19.9-1.6c-8.6 0-11.5 3.8-13.1 6l1.8.7c1.3-1.2 3.7-3.3 8.5-3.3 2.1 0 5.3.6 6.2 2.9.4.9.4 1.9.3 2.9h.2l-1.2 7h-.1l-.4 2.6c-1.6.7-3.5 1.6-6.2 1.6-3.8 0-4.8-2.1-4.5-4 .5-2.8 3.6-4.2 7-4.2 1 0 1.9.1 2.7.3l.6-3.2c-1.4-.3-2.8-.5-4.6-.5-6.7 0-12.7 2.9-13.6 8-.7 4 2.5 7.2 8.4 7.2 5.4 0 8.6-2.2 10-3.2l-.4 2.5h7.3l2.3-13.5c.3-2.1.8-5-1.6-7.3-1.8-1.2-4.7-2.5-9.6-2.5zm65.8 21.5c-.6 0-2.8 0-3.8-2-.4-.7-.6-1.7-.3-3.5l1.7-10.2h8.2l.8-4.8h-8.2l1-6.1h-7.5l-1 6.1h-7.9l-6.9 11.1-1.2 2.1c-.4-1.2-.4-1.4-.8-2.5L166 21.3h-2.5l-9.7 13.2c-.2-1.1-.3-1.4-.5-2.4l-2.9-10.8h-7.9l6.9 22.6h2.8l9.8-13 5.4 13h2.7l11.6-17.8h4.2L184 37.2c-.3 2-.4 3.9 1.4 5.5 1.9 1.7 4.9 1.8 6.2 1.8 3.7 0 5.9-1 7.8-1.8l-.7-1.4c-.8.2-1.7.5-2.9.5zm15.6-12.2c-.1.1-.3.6-.6 2.1-.1.6-.1 1-.2 1.3h20c.4-2.4 1-6.6-2.5-9.8-3-2.7-7.5-3-10-3-10.2 0-16.5 5.3-17.7 11.9-1.2 6.9 3.4 12.4 13.8 12.4 9.9 0 13-4.6 14.7-7l-1.7-.7c-2.3 2-4.7 4-10 4-7.7 0-8.7-4.5-8.8-6.9 0-.1-.2-.6.1-2.1.3-1.6.6-2.2.7-2.3 1.2-2.6 2.8-5.6 8.2-5.6 5.6 0 5.6 3.7 5.6 5.7h-11.6zM77.7 15.2h-7.5l-3.7 22c-.3 2-.4 3.9 1.4 5.5 1.9 1.7 4.9 1.8 6.2 1.8 3.7 0 5.9-1 7.8-1.8l-.7-1.4c-.9.2-1.8.4-3 .4-.6 0-2.8 0-3.8-2-.4-.7-.6-1.7-.3-3.5L75.8 26h6.1l.8-4.7h-6.1l1.1-6.1zM28.7 0C12.8 0 0 12.9 0 28.7c0 15.9 12.9 28.7 28.7 28.7 15.9 0 28.7-12.8 28.7-28.7C57.5 12.9 44.6 0 28.7 0zm0 51.7c-12.7 0-23-10.3-23-23s10.3-23 23-23 23 10.3 23 23-10.2 23-23 23zm2.8-37H24l-3.7 22c-.3 2-.4 3.9 1.4 5.5 1.9 1.7 4.9 1.8 6.2 1.8 3.7 0 5.9-1 7.8-1.8l-.7-1.4c-.9.2-1.8.4-3 .4-.6 0-2.8 0-3.8-2-.4-.7-.6-1.7-.3-3.5l1.7-10.2h6.1l.8-4.7h-6.1l1.1-6.1z"/></svg>