<svg xmlns="http://www.w3.org/2000/svg" width="234.2" height="35.2" viewBox="0 0 234.2 35.2"><path d="M0 1.7c8.3 0 15.6 2.9 22 8.3-.7.9-1.4 1.8-2.1 2.6-3.7 4.3-8.2 7.8-12.9 11-2.3 1.5-4.6 3-7 4.4V1.7zM64.1 0v3.3h-9.8v31.2h-4.7V3.3h-9.9V0h24.4zM34.8 0v23.5c-.5-1.3-1-2.5-1.5-3.7C28.8 10.3 21.6 3.7 11.7.2l-.5-.2h23.6zm110.1 29.9l1.8-5.8c1.4-4.5 2.8-9 4.2-13.6.1-.3.2-.5.6-.4h3.4c1.8 6.6 3.7 13.2 5.5 20l.2-.5 5.2-18.9c.1-.5.3-.7.8-.6h3c-.2.9-.5 1.7-.7 2.5l-6.3 21.3c-.2.5-.4.7-.9.6h-3.8c-1.8-6.2-3.6-12.4-5.4-18.7-.4 1.1-.7 2-1 3L146.7 34c-.1.5-.3.6-.8.6h-3.4c-.3 0-.5-.1-.5-.4l-6.9-23.7c0-.1-.1-.2-.1-.4h4.4l5.2 19.8h.3zM6.7 34.7c5-8.2 10.2-16.1 18-21.9 4.6 3.8 9 15.6 8.4 21.9H6.7zm168.7-16.9h-3.9c-.4-2.8.8-5.5 3.4-6.9 2.2-1.2 4.7-1.4 7.1-1.3 1 .1 2.1.2 3 .5 2.7.8 4.1 2.5 4.3 5.3.1.8.1 1.7.1 2.5V31c0 .6.1 1.3.2 1.9.1.3.4.6.6.9.1.2.2.4.4.6h-4c-.8 0-1.2-.5-1.3-1.4 0-.3 0-.7-.1-1.1-.4.4-.8.7-1.1 1-3.1 2.3-6.5 2.7-10 1.3-2.2-.9-3.3-2.7-3.6-5-.3-2.4.1-4.6 2-6.3 1.2-1.1 2.8-1.6 4.3-1.9 2.6-.5 5.2-.8 7.9-1.1.4-.1.6-.2.6-.6-.1-1.2 0-2.5-.2-3.7-.3-1.9-1.3-2.8-3.1-3.1-1.1-.2-2.2-.2-3.4.1-2 .5-3.2 2-3.4 4.2.2.2.2.6.2 1zm10.2 4.2c-.8.1-1.3.1-1.9.2-1.9.4-3.8.7-5.7 1.2-1.7.5-2.7 1.9-2.9 3.7-.3 2.4.9 4.4 3.2 4.8.8.2 1.6.1 2.4 0 2.4-.2 4.3-1.7 4.6-4 .2-1.8.2-3.8.3-5.9zm44.4 5h4.1c.1 1.2-.2 2.3-.8 3.3-1 2-2.7 3.2-4.8 3.9-2.8.9-5.7 1-8.5.1-2.6-.8-4.5-2.5-5.4-5.1-1.8-4.9-1.6-9.8.6-14.5 1.4-3.2 4.1-4.7 7.5-5.1 1.7-.2 3.4-.1 5 .3 2.6.7 4.3 2.3 5.4 4.7 1 2.4 1.1 4.9 1.1 7.5h-16.1l-.1.2c0 2.1.1 4.3.9 6.3 1.6 3.9 6.9 4.9 9.7 2 .8-.8 1.1-1.8 1.3-2.9.1-.2.1-.4.1-.7zm-11.9-7.4H230v-1.2c0-.5-.1-.9-.2-1.4-.8-4.2-4.9-6.1-8.5-3.9-2.3 1.5-2.9 3.9-3.2 6.5zM93 10.1h4.1v24.4H93v-2.6l-2.9 1.9C88 35 85.7 35.3 83.3 35c-3.2-.5-5.3-2.8-5.6-6.1-.1-.9-.1-1.8-.1-2.6v-16h4.2v15.4c0 1.2.2 2.5.5 3.7.5 1.9 1.9 2.9 3.8 3 1.5.1 3-.2 4.3-.9 1.6-.9 2.5-2.2 2.6-4V10.098zm7.1 16.8h4.2c0 .5-.1 1 0 1.5.3 2.1 1.6 3.5 3.7 3.7 1.1.1 2.3.1 3.4-.1 1.7-.3 2.6-1.4 2.8-3 .2-1.7-.4-3.2-2-3.9-1.4-.6-2.8-1-4.3-1.5-1.1-.4-2.3-.7-3.5-1.2-2-.9-3.4-2.4-3.7-4.6-.5-3.9 1.6-6.8 5.4-7.8 2.3-.6 4.7-.6 7 .2 3.2 1 4.9 3.6 4.6 6.9h-3.9c0-.5 0-.9-.1-1.4-.3-1.9-1.3-3-3.2-3.4-1.4-.3-2.7-.2-4 .4-1.2.6-1.9 1.5-2.1 2.8-.1 1.4.6 2.4 1.7 3.1.6.3 1.2.6 1.8.8 1.4.4 2.8.8 4.2 1.3 1.7.5 3.2 1.2 4.5 2.5 2.4 2.5 2.5 8.8-2.4 10.9-3.4 1.4-6.9 1.4-10.3.1-2.8-1.1-3.9-3.4-3.9-6.2.1-.5.1-.7.1-1.1zm91.6-16.8h4.2c.4 0 .4.3.5.5l3.9 12.8c.6 2.1 1.3 4.2 1.9 6.2 0 .1.1.2.2.4.5-1.6 1-3 1.6-4.5l5.1-15c.1-.4.3-.5.7-.5h3.3l-.2.7c-2.8 7.8-5.6 15.5-8.5 23.2-.1.4-.3.5-.8.5h-3.4c-.3 0-.5-.1-.6-.4-2.6-7.9-5.2-15.8-7.8-23.6-.1-.1-.1-.2-.1-.3zm-68.3-5.4c1.5-.2 2.9-.5 4.3-.7v6.1h4.5v2.5h-4.6v14.9c0 .5 0 1 .1 1.5.3 2.1 1.5 3 3.6 2.8.7-.1 1.5-.3 2.3-.5v2.6c0 .1-.1.2-.2.3-2.2.7-4.4 1.1-6.6.4-2.1-.6-3.2-2-3.3-4.2-.1-2.7-.1-5.3-.1-8v-9.8h-3.5v-2.5h3.6c-.1-1.8-.1-3.6-.1-5.4zM65.3 34.5h-4.2V10.1h4.2v3c.4-.5.7-.8 1-1.2 1.6-1.7 3.6-2.7 6-2.2l.3.1c1.4.4 1.5.6 1.5 2v2.4s0 .1-.1.1c-1-.7-2-1.2-3.1-1.2-.9 0-1.9 0-2.7.2-1.8.5-2.6 1.9-2.9 3.7v17.5z"/></svg>