<svg xmlns="http://www.w3.org/2000/svg" width="204.9" height="56.1" viewBox="0 0 204.9 56.1"><path d="M156.1 15.5l2.5.5c1.9.5 4.2 1.6 5.5 2.8l-2.9 4.2c-1.1-.6-2.1-1.2-3.2-1.7-1.4-.6-3-1-4.5-.7l-1 .3c-.8.3-1.3.9-1.3 1.8-.1.9.3 1.7 1.2 2 1.1.5 2.2.8 3.3 1.2 1.7.6 3.4 1 5 1.7 1.8.7 3.2 1.9 3.9 3.7 1.2 3.3.4 8.1-4.4 10-2.5 1-5.1 1-7.7.5-2.8-.5-5.3-1.7-7.5-3.5-.1-.1-.2-.2-.3-.2 0 0 0-.1-.1-.1 1.1-1.3 2.2-2.6 3.3-4l1.2.9c2.1 1.5 4.4 2.4 7.1 2.2.7-.1 1.5-.2 2.1-.6 1.5-.8 1.5-2.8 0-3.6-1.1-.6-2.4-.9-3.6-1.4l-4.9-1.6c-2.6-1-4-2.9-4.2-5.8-.2-3 .9-5.4 3.5-7.1 1.2-.8 2.5-1.2 3.9-1.4.1 0 .2-.1.4-.1h2.7zm-87.1.4h21.3v5.2h-7.8v20.5h-5.7V21.1H69v-5.2zm40.3 16.6c2.1 3 4.1 6 6.2 9.1h-6.3c-.3 0-.5-.1-.6-.4-1.7-2.5-3.4-5-5-7.5-.2-.3-.4-.4-.7-.4h-4v8.2h-5.7V15.8H106c2.4 0 4.6.7 6.4 2.4 1.5 1.4 2.2 3.2 2.3 5.3.2 2.4-.3 4.6-1.9 6.5-.9 1-1.9 1.7-3.1 2.2-.1.1-.2.2-.4.3.1-.1.1 0 0 0zM99 21.1v7.3h.9c1.9 0 3.9 0 5.8-.1 2-.1 3.4-1.6 3.4-3.4 0-2.2-1.1-3.6-3.3-3.8-2.3-.1-4.5 0-6.8 0zm19.7-5.2h5.7v14.7c0 .9.1 1.8.4 2.6.6 2.1 2.2 3.4 4.4 3.6 1.1.1 2.2 0 3.3-.4 2.1-.9 2.8-2.7 3-4.7V16h5.7v14.9c0 1.8-.3 3.5-.9 5.1-1.1 2.7-3.1 4.6-5.9 5.5-2.9.9-5.8.9-8.7.1-3.6-1.1-5.7-3.6-6.5-7.2-.2-1.1-.4-2.3-.4-3.4V16.4c-.1-.3-.1-.4-.1-.5zm82 19.7c1.1 1 2.1 1.9 3.2 2.8-1.2 1.5-2.6 2.5-4.4 3.1-2.9.9-5.7.8-8.4-.4-2.5-1.1-4.2-3-5-5.6-1-3-.8-5.9.6-8.7 1.9-3.8 5.7-5.7 10-5.2 4.4.5 7.1 3.6 7.9 7.8.3 1.4.4 2.8.2 4.3h-13.7c.1 1.7 1.6 3.3 3.5 3.7 2.1.4 3.9-.1 5.6-1.5.2 0 .3-.2.5-.3zm-1.3-5.4c-.1-2.4-1.9-4.2-4.1-4.1-2.7 0-4 2.4-4.1 4.1h8.2zm-25.7-9.1h-7.8v-5.2h21.4v5.2h-7.8v20.5h-5.7c-.1-6.8-.1-13.6-.1-20.5zM0 50.5c0 3.1 2.5 5.6 5.6 5.6h44.9c3.1 0 5.6-2.5 5.6-5.6V5.6c0-3.1-2.5-5.6-5.6-5.6H5.6C2.5 0 0 2.5 0 5.6v44.9zm26.9-7.4l-.8-.1c-3.2-.4-5.9-1.7-8.2-3.9-2.1-2-3.5-4.5-4.2-7.4-.3-1.5-.4-3-.3-4.6.3-3.4 1.6-6.3 3.9-8.7 2.2-2.3 4.8-3.8 8-4.4 4.4-.8 8.3.2 11.8 2.9 3 2.3 4.8 5.3 5.4 9 .1.8.2 1.6.2 2.4v.1h-4.2c-.1-3.4-1.4-6.1-4.1-8.2-1.8-1.4-3.8-2.1-6-2.2-4.7-.2-8.9 2.8-10.4 7.2-1.4 4.4.2 9.2 4 11.9 3.9 2.7 9.6 2.5 13.4-1.2l3 3c-.7.7-1.6 1.4-2.5 2-2 1.3-4.3 2-6.7 2.2h-2.303zm7.4-14.7H21.9c0-2 .8-3.7 2.4-4.9 2-1.6 4.8-1.7 6.9-.4 2.3 1.3 3.1 3.7 3.1 5.3zm13.5 0h-1.5c-.4 0-.5-.1-.5-.5 0-1.6-.3-3.1-.7-4.6-.9-2.9-2.4-5.3-4.5-7.4-2.4-2.4-5.2-3.9-8.5-4.7-4.3-1-8.4-.5-12.2 1.6-5.3 2.8-8.3 7.3-9.3 13.2-.1.7-.1 1.3-.1 2 0 .4-.1.5-.5.5H6.9c-.4 0-.6-.1-.6-.6 0-3.2.8-6.3 2.2-9.2C11.4 13 16 9.2 22.1 7.4c2.3-.7 4.6-1 6.9-.8 5.2.3 9.9 2.2 13.7 5.8 3.7 3.4 5.9 7.6 6.8 12.5.2 1 .2 2.1.3 3.1 0 .3-.1.5-.4.5-.5-.1-1.1-.1-1.6-.1z"/></svg>