<svg xmlns="http://www.w3.org/2000/svg" width="248.2" height="69.7" viewBox="0 0 248.2 69.7"><path d="M68.1 24.5c-5.4-3-12.1-1.6-15.6 2.8-3.4 4.3-3.5 10.8.2 15.2 3.5 4.1 10 5.5 15.4 2.4-3.6 12.9-16.7 25.2-34.3 24.7C16 69.1 2.3 55.5.3 39.4-2.2 19.6 11.5 4 27.8.7c18.6-3.8 35.3 7.5 40.3 23.8zM13.5 30c.6-.6 1.1-1.3 1.7-1.8 1.1-1.1 2.5-1.7 4.1-1.6 1.6.1 2.9 1.3 3.1 2.8.2 1.4-.2 2.8-1.1 3.8-1 1.1-2.2 2.2-3.3 3.2-2.4 2.1-4.9 4.2-7.3 6.2-.2.2-.3.4-.3.7v2.3c0 .4.1.6.5.6h15.6c.4 0 .5-.1.5-.5v-2.6c0-.4-.1-.5-.5-.5H16.2c1-.9 2-1.6 2.9-2.4L24 36c2.2-2 3.2-4.5 2.7-7.5-.4-2-1.4-3.4-3.1-4.4-2-1.1-4.1-1.2-6.3-.9-2.8.5-4.7 2.3-6.3 4.5-.1.1 0 .3.1.4.6.5 1.5 1.2 2.4 1.9zm35.9 13.2c-.2-.1-.3-.2-.4-.3-.7-.6-1.3-1.3-1.9-1.9-.3-.3-.5-.3-.8-.1-1.5 1.3-3.3 1.9-5.3 1.8-2.3-.1-4.2-1-5.6-2.9-1.4-1.9-1.9-4-1.7-6.3.2-2.1 1.1-3.9 2.7-5.3 2.3-2 5.6-2.2 8.4-.8.7.4 1.3.8 2 1.3l2.7-2.8-.2-.2-.2-.2c-2.2-1.8-4.7-2.7-7.5-2.8-2-.1-3.9.2-5.7 1.1-4.4 2.1-6.5 5.8-6.7 10.6-.1 2 .4 3.9 1.3 5.6 2.1 4 5.5 6.1 10 6.3 1.2.1 2.4-.1 3.5-.3 2-.2 3.7-1.3 5.4-2.8zm18.7-13.5c-1.8-2.4-4.2-3.4-7.1-3-1.8.2-3.3.9-4.5 2.2-1.8 1.9-2.4 4.3-2.1 6.9.4 3.5 3 6.4 6.5 6.9 2.1.3 4-.1 5.6-1.3 2.2-1.6 3.1-3.9 3.2-5.9-.1-2.6-.5-4.3-1.6-5.8zm133.4-1.8c5.8 0 10 4.2 10 9.8 0 5.4-4.5 9.7-10.1 9.6-5.6 0-10-4.3-10-9.8-.1-5.4 4.3-9.6 10.1-9.6zm-4.8 9.6c0 2.9 2 5.1 4.7 5.1s4.7-2.2 4.7-5c0-2.9-2-5.1-4.7-5.1-2.7.1-4.7 2.1-4.7 5zm-71.8-9.2h-5.2v18.6h5.2v-7h6.6v7h5.1V28.3h-5.2v6.9h-6.5v-6.9zm29.2 0h-14.8v18.6h15v-4.4h-9.9v-2.9h8.9v-4.1h-8.9v-2.8h9.7v-4.4zm20.7 18.6h5.1c0-1.1.1-2.2 0-3.2-.2-1.7.9-2.6 1.9-3.6 1.4 2.1 2.8 4.2 4.2 6.2.2.3.5.6.7.6 1.9.1 3.8 0 6 0-2.5-3.7-4.9-7.2-7.3-10.7l7.1-8H187c-.4 0-.8.2-1.1.5-1.2 1.3-2.3 2.7-3.5 4.1-.8.9-1.6 1.8-2.5 2.9v-7.5h-5.1v18.7zm50.4-17.4c0 3.4 0 6.7-.1 10.1-.1 1.8-1.4 2.9-3.1 3-1.6.1-3-.9-3.4-2.5-.1-.6-.2-1.2-.2-1.8v-10h-5.3c0 3.9-.1 7.7 0 11.5.2 3.7 2.1 6.2 5.3 7 1.6.4 3.4.4 5 .3 4.2-.3 6.9-3.2 7-7.4.1-2.8 0-5.7 0-8.5v-3h-5.3c.1.5.1.9.1 1.3zm-63 11.8c-1.7-1.8-1.8-5.3-.2-7.1.7-.9 1.7-1.4 2.8-1.5 1.9-.2 3.4.7 4.6 2.2 1.4-1.1 2.6-2 3.9-3-2.6-3.9-7.7-4.7-11.5-3.3-4.2 1.5-6.7 5.5-6.3 10.1.3 4.1 3.3 7.5 7.3 8.5 4.1 1 8.6-.7 10.5-4.1l-3.8-2.7c-3.1 2.6-5.4 2.9-7.3.9zm-55.8-12.7c-4.2 1.5-6.5 5.8-5.9 10.6.5 4.2 4 7.5 8.7 8.1 3.6.5 8-1.6 9.1-4.3l-3.8-2.7c-2.7 2.6-5.3 3-7.2 1-1.9-1.9-2-5.4-.1-7.4 1.8-2 4.4-1.7 7.3.8 1.2-1 2.5-1.9 3.8-2.9-2.8-3.9-7.7-4.8-11.9-3.2zM92.5 42c1.6-1.2 3.3-2.3 4.7-3.7 3.3-3.3 1.9-8.6-2.5-10-3.9-1.2-7.7.1-10.2 3.7 1.2 1 2.3 1.9 3.2 2.7 1.3-.8 2.3-1.6 3.4-2.1.8-.4 1.8-.1 2.2.7.3.6.3 1.5.1 2.2-.2.6-.8 1.2-1.3 1.6-2.3 1.9-4.7 3.6-7.1 5.5-.3.2-.6.5-.6.8-.1 1.1 0 2.3 0 3.5h14.8v-4.2h-7.5c.3-.3.6-.5.8-.7zm144.9 4.9h5.2V32.8h5.6v-4.5h-16.4v4.5h5.6v14.1z"/></svg>