<svg xmlns="http://www.w3.org/2000/svg" width="174.2" height="73.7" viewBox="0 0 174.2 73.7"><path d="M68.2 46h.9c.9 0 1.4-.3 1.7-.9l2.4-3.6h6.5l-1.3 2.4h7.8l-1 3.6H76c-1.1 1.6-2.4 2.3-3.9 2.3h-4.8l.9-3.8m-1 5.3h17l-1.1 4h-6.8l-1 3.8h6.6l-1.1 4h-6.6l-1.5 5.6c-.4.9.1 1.4 1.5 1.3h5.4l-1 3.7H68.1c-2 0-2.6-1.1-2-3.4l2-7.2h-4.2l1.1-4h4.2l1-3.8h-4.1l1.1-4zm27.1-9.8l-.3 2.3s3.2-2.4 6.1-2.4h10.7l-4.1 14.9c-.3 1.7-1.8 2.5-4.4 2.5H90.1l-2.9 10.4c-.2.6.1.8.7.8h2.4l-.9 3.2h-6.1c-2.3 0-3.3-.7-2.9-2.1l8.1-29.8h5.8v.2zm9.1 4.2h-9.6l-1.1 4s1.6-1.2 4.3-1.2h5.7l.7-2.8zm-3.5 9.4c.7.1 1.1-.2 1.2-.8l.6-2.1h-9.6l-.8 3 8.6-.1zm-6.5 4.8h5.5l-.1 2.4h1.5c.7 0 1.1-.2 1.1-.7l.4-1.6h4.6l-.6 2.3c-.5 1.9-1.9 2.9-4.1 3h-3v4.1c-.1.7.5 1 1.8 1h2.8l-.9 3.2h-6.7c-1.9.1-2.8-.8-2.8-2.7l.5-11M26.3 21.7c-.8 3.7-2.5 6.5-5.2 8.5s-6.1 3-10.4 3c-4 0-6.9-1-8.8-3C.6 28.8 0 26.9 0 24.7c0-.9.1-1.9.3-3L4.8 0h6.8L7.2 21.5c-.1.6-.2 1.1-.2 1.6 0 1.1.3 2 .8 2.7.8 1 2.1 1.6 3.9 1.6 2.1 0 3.8-.5 5.2-1.5 1.3-1 2.2-2.5 2.6-4.4L24 0h6.8l-4.5 21.7m28.5-8.5h5.3l-4.2 19.4h-5.3l4.2-19.4m1.7-7.1h5.4l-1 4.7h-5.4l1-4.7m8.4 25c-1.4-1.3-2.1-3.1-2.1-5.4 0-.4 0-.8.1-1.3s.1-1 .2-1.4c.6-3.1 2-5.6 4-7.5 2.1-1.9 4.6-2.8 7.5-2.8 2.4 0 4.3.7 5.7 2 1.4 1.3 2.1 3.2 2.1 5.5 0 .4 0 .9-.1 1.3-.1.5-.1 1-.2 1.4-.6 3.1-2 5.6-4 7.4-2.1 1.8-4.6 2.7-7.5 2.7-2.4.1-4.3-.6-5.7-1.9M75 27.2c.9-1 1.6-2.6 2-4.6.1-.3.1-.7.1-1v-.9c0-1.2-.3-2.1-.9-2.8s-1.5-1-2.6-1c-1.5 0-2.7.5-3.6 1.6-1 1-1.6 2.6-2 4.7-.1.3-.1.6-.1 1v.9c0 1.2.3 2.1.9 2.8.6.6 1.5 1 2.6 1 1.5-.1 2.7-.6 3.6-1.7m41.9 19l1.3-4.5h6.5l-.3 1.7s3.3-1.7 5.7-1.7h8l-1.3 4.5h-1.3l-6.1 21.3h1.3l-1.2 4.2h-1.3l-.5 1.8h-6.3l.5-1.8h-12.4l1.2-4.2h1.2l6.1-21.3h-1.1m7.1 0l-1.7 5.8s2.8-1.1 5.3-1.4c.5-2 1.2-4.4 1.2-4.4H124zm-2.5 8.5l-1.7 6s3.1-1.5 5.3-1.7c.6-2.3 1.2-4.4 1.2-4.4l-4.8.1zm1.3 12.8l1.2-4.4h-4.8l-1.2 4.4h4.8zm15.7-26.1h6.1l.3 2.3c0 .6.3.8 1 .8h1.1l-1.1 3.8h-4.5c-1.7.1-2.6-.6-2.7-2l-.2-4.9zm-1.8 8.2h19.8l-1.2 4.1H149l-1.1 3.8h6.3l-1.2 4.1h-7l-1.6 2.4h3.4l.8 4.8c.1.5.5.7 1.2.7h1.1l-1.1 4H146c-2 .1-3-.6-3-2l-.9-4.4-3.1 4.7c-.7 1.3-1.9 1.9-3.4 1.8h-5.8l1.1-4h1.8c.7 0 1.4-.3 1.9-1l4.9-7.1h-6.3l1.2-4.1h6.8l1.1-3.8h-6.8l1.2-4M32.5 13.2h4.8l-.5 2.8.7-.8c1.6-1.7 3.4-2.5 5.7-2.5 2 0 3.5.6 4.4 1.8.9 1.2 1.1 2.8.7 4.9l-2.6 13.2h-4.9l2.4-12c.2-1.2.2-2.2-.2-2.8-.4-.6-1.1-.9-2.1-.9-1.3 0-2.3.4-3.2 1.2-.9.8-1.5 1.9-1.7 3.3l-2.2 11.1h-4.9l3.6-19.3m55.1 0h4.8l-.5 2.8.7-.8c1.6-1.7 3.5-2.5 5.7-2.5 2 0 3.5.6 4.4 1.8s1.2 2.8.7 4.9l-2.6 13.2h-4.9l2.4-12c.2-1.2.2-2.2-.2-2.8-.4-.6-1.1-.9-2.1-.9-1.3 0-2.3.4-3.2 1.2-.9.8-1.5 1.9-1.7 3.3l-2.2 11.1H84l3.6-19.3m23.8-12.1h14c2.7 0 4.8.6 6.2 1.8 1.4 1.2 2.1 2.9 2.1 5.2v.1c0 .4 0 .9-.1 1.4-.1.5-.2 1-.3 1.6-.6 3-2 5.4-4.2 7.2-2.2 1.8-4.8 2.7-7.9 2.7h-7.5l-2.3 11.4h-6.5l6.5-31.4m3.5 14.6h6.2c1.6 0 2.9-.4 3.8-1.1.9-.8 1.5-1.9 1.9-3.5.1-.3.1-.5.1-.8v-.7c0-1.1-.4-1.9-1.2-2.4s-2-.8-3.8-.8h-5.3l-1.7 9.3m47.8 20.6c-2 4.4-4 6.9-5.1 8.1-1.1 1.2-3.4 3.9-8.9 3.7l.5-3.3c4.6-1.4 7.1-7.8 8.5-10.7L156 13.2h6.6l.3 13.1 5.6-13.1h5.7l-11.5 23.1m-15.9-21.6l-2.3 1.6c-2.4-1.8-4.5-3-8.7-1.1-5.7 2.6-10.4 22.7 5.2 16.1l.9 1.1 6.1.2 4-18.3-5.2.4m-3.4 10c-1 2.9-3.2 4.8-4.9 4.3s-2.3-3.3-1.3-6.2c1-2.9 3.2-4.8 4.9-4.3 1.6.5 2.3 3.3 1.3 6.2"/></svg>