<svg xmlns="http://www.w3.org/2000/svg" width="153.8" height="47" viewBox="0 0 153.8 47"><path d="M153.7 46.2l-4.2-19-4.3-19.4c-.5-2.3-1-4.6-1.5-6.8-.1-.2-.2-.3-.4-.3H141c-2.7 0-5.4 0-8 .1-2.5.1-4.4 1.3-5.4 3.7l-1 2.3-17.2 38.8c-.1.3-.2.5-.4.8h12.9c.2 0 .3-.1.4-.3.8-2.1 1.6-4.2 2.4-6.2.1-.3.2-.3.5-.3h15.5l.1.3 1.4 6.2c.1.3.2.3.4.3h11.2c-.1-.1-.1-.2-.1-.2zm-25.4-16l6.6-17 3.7 17h-10.3zM0 1.6C.1.7.1.7 1 .7h19.1c.9 0 1.7.1 2.5.4 1.9.5 3 1.9 3.4 3.9l3.4 16.3 2.1 10.3c0 .1 0 .2.1.3l.6-1.5L43.6 1.2c.1-.3.3-.4.6-.4h12.7c-.1.2-.1.3-.1.4-6.3 14.6-12.6 29.3-18.9 44l-.5 1.1c-.1.2-.2.2-.4.2H24.3c-.3 0-.3-.2-.4-.3l-4-14.3c-2.2-7.8-4.4-15.6-6.5-23.4-.1-.3-.2-.6-.3-.8-.2-.6-.6-1-1.1-1.3-2.1-1.1-4.2-2-6.4-2.8-1.8-.8-3.7-1.4-5.6-2zm110.1 10.2c-1.7-.9-3.4-1.4-5.2-1.8-2.6-.5-5.3-.7-7.9-.2-1.2.2-2.4.6-3.3 1.5-1.4 1.2-1.4 2.9-.1 4.2 1 1 2.1 1.6 3.3 2.2l4.8 2.4c2 1.1 3.9 2.3 5.5 4 2.2 2.4 3.1 5.3 2.8 8.5-.3 3.4-1.7 6.3-4.1 8.6-1.9 1.9-4.2 3.2-6.8 4.1-2.8 1-5.7 1.5-8.7 1.6-4.7.2-9.4-.3-13.9-1.6l-1.8-.6c-.2-.1-.2-.1-.2-.3l1.7-9.9s0-.1.1-.1l.3.1c2.2 1 4.3 1.9 6.7 2.4 1.8.4 3.6.5 5.4.6 1.4 0 2.8 0 4.2-.4 1.2-.3 2.3-.8 3.1-1.7 1.3-1.3 1.3-3.2.1-4.6-.8-.9-1.8-1.5-2.8-2l-4.2-2.1c-2-1-3.9-2.1-5.6-3.6-1.8-1.6-3.2-3.6-3.7-6-.5-2.5-.1-5 1-7.3 1.4-3 3.7-5.1 6.5-6.7 2.5-1.4 5.2-2.2 8-2.7 1.9-.3 3.8-.5 5.7-.4 3.6 0 7.1.6 10.5 1.8l.3.1c-.6 3.2-1.2 6.5-1.7 9.9zM61.8.4h12.5c-.1.6-.2 1.2-.3 1.7l-1.5 9-1.7 10.2-1.5 9-1.6 9.4c-.4 2.1-.7 4.2-1.1 6.2 0 .2-.1.3-.3.3H54.1c2.6-15.4 5.1-30.6 7.7-45.8z"/></svg>