<svg xmlns="http://www.w3.org/2000/svg" width="166.5" height="89.1" viewBox="0 0 166.5 89.1"><path d="M90.4 52.4l-.8-.4-14.1-7.8c-.4-.2-.9-.4-1.4-.4H41c-4 0-7.3-2.6-8.1-6.4-.2-.7-.2-1.4-.2-2.1V8.5c0-5 3.5-8.5 8.5-8.5h71c5.1 0 8.6 3.5 8.6 8.6v26.7c0 5-3.5 8.6-8.5 8.6H86.9c1.2 2.8 2.3 5.5 3.5 8.5zM46.2 27.9c-.3-1.2-.5-2.2-.7-3.2-1-5.3-1.9-10.6-2.9-16-.2-1.2-.7-2.1-1.9-2.4-2.6-.6-4.5 1.1-4.1 3.7.5 3.5 1.1 7 1.8 10.5.9 5 1.9 10 3.5 14.8.4 1.2.9 2.4 1.6 3.5s1.7 1.2 2.8.5c.5-.3 1-.7 1.3-1.2.7-.8 1.3-1.7 1.8-2.6l3-5.7 3.3-6.5.1.1.1.3c1.4 4.4 3 8.6 5.8 12.3.8 1 1.7 2.1 2.7 2.9 1.9 1.5 4 .7 4.5-1.7.1-.4.1-.8.1-1.2l-.1-1.8c0-4.5.6-9 1.3-13.4.7-4.1 1.5-8.1 3.4-11.9.8-1.6-.1-3.3-1.7-4-1.6-.6-3.1-.1-3.9 1.5-1.4 2.6-2.3 5.4-2.9 8.3-.7 3.6-1.3 7.3-1.9 10.9 0-.1-.1-.3-.2-.5-.8-2.8-1.7-5.7-2.4-8.5-.4-1.4-.5-2.8-1-4.2-.7-1.8-2.8-2.2-4.2-.9-.5.5-.9 1-1.2 1.6l-5.5 10.4c-1 1.5-1.7 2.8-2.5 4.4zm70.2-8.1c-.1-.6-.1-1.6-.3-2.7-.1-.8-.4-1.6-.7-2.4-2.6-6.9-10.9-7.7-14.9-3.3-4.7 5.2-6.1 11.4-4 18.2 2.3 7.4 11.4 8.2 15.7 2.9 2.7-3.6 4.1-7.7 4.2-12.7zm-22.6 1.3c0-2.8-.3-4.6-.9-6.3-2.5-7.1-11.3-8.2-15.7-2.7-3.4 4.2-4.6 9-4.1 14.3.3 2.7 1.2 5.2 3.3 7.1 2.9 2.8 8.9 3.7 12.8-.8 3.1-3.5 4.5-7.7 4.6-11.6zM66 64h-8.2c-.2 0-.4.3-.5.5-.6 2.3-1.1 4.5-1.6 6.8-.4 2-.8 4-1.2 6.1-.9-4.5-1.9-9-2.8-13.4h-8.4c-1 8.2-2.1 16.3-3.1 24.4h6.3L48.2 72c.2.2.2.3.3.5l3.9 15.3c.1.5.3.7.8.7h3.2c.6 0 .7-.2.8-.7l3.7-15.2c0-.2.1-.4.2-.5.4 3 .7 6 1 8.9l.7 6.9c0 .5.2.6.7.6h6C68.2 80.3 67.1 72.1 66 64zm18.5 13.2c-.9-4.5-1.8-8.8-2.7-13.1-.1-.1-.2-.1-.2-.1h-7.8c-.2 0-.4.3-.5.5L73 67l-2 15.4c-.3 2-.5 4-.8 6.2h6c.1 0 .3-.3.4-.5l1.2-11.9.4-4.1c.2.2.2.4.3.6l3.8 15c.2.7.4.9 1.1.8 1-.1 2-.1 3 0 .5 0 .7-.2.8-.7l1.9-7.9L91 72h.1c.6 5.5 1.2 10.9 1.7 16.4h6.5c0-.3 0-.6-.1-.9l-1.7-12.3L96 64.4c0-.2-.3-.5-.4-.5h-8.2l-2.9 13.3zm-44.7-.6c-.3 1.6-.5 3.6-1 5.4-1.4 4.9-5.3 7.4-10.4 7.1-5.3-.3-8.5-2.9-9.7-8.1-.9-3.8-.9-7.6.4-11.4 1.4-3.9 4.8-6.2 9-6.3 1.8 0 3.5.1 5.2.8 3.5 1.4 5.2 4.2 5.9 7.8.3 1.4.4 2.8.6 4.7zm-7.1.1l-.1-1.3c-.2-1.4-.4-2.8-.7-4.2-.3-1.2-1.1-2.1-2.5-2.3-1.8-.3-3.1.6-3.7 2.7-.8 3.2-.7 6.4 0 9.6.3 1.1 1 2 2.2 2.3 1.9.5 3.6-.5 4.1-2.5.4-1.4.5-2.9.7-4.3zm90.5 11.8h-6.6V64.1c.2 0 .3-.1.4-.1 2.9 0 5.8 0 8.7.1 2 .1 4 .6 5.7 1.8 4.1 2.8 3.8 8.8-.5 11.3-.2.1-.3.2-.6.3 1.7 3.6 3.5 7.3 5.2 11h-6.3c-.5 0-.7-.2-.9-.6l-4.7-9.8c-.1-.2-.2-.4-.4-.6v11zm0-13.8c1.1-.3 2.1-.4 3-.7 1-.4 1.4-1.2 1.4-2.3-.1-2.1-2.1-3.4-4.4-2.8v5.8zm30 13.7h13.3v-5.2h-6.7v-4.5h5.8v-5.1h-5.8v-4.5h6.7v-5.2h-13.3v24.5zm-45.3-5.1v-4.5h5.8v-5.1h-5.8v-4.5h6.7V64h-13.3v24.5h13.3v-5.2h-6.7zm41-.1c-2.9.4-5.5-1-6.5-3.6-.6-1.4-.7-2.9-.6-4.5.3-3.4 2.8-6.7 7.4-5.9.7.1 1.4.2 2.1.4v-5.7c-5.1-1.3-10.9-.3-14.4 4.6-3.2 4.4-3 11.5.4 15.9 3.7 4.8 10.1 5.5 14 4.1v-5.7c-.9.1-1.6.3-2.4.4zm-134.6 0c-2.9.4-5.5-1.1-6.6-3.7-.5-1.3-.7-2.8-.6-4.2.3-3.5 2.8-6.9 7.4-6.1.7.1 1.4.2 2.1.4v-5.8c-5.5-1.4-11.3-.1-14.6 5-3 4.6-2.5 11.9 1.1 16.1 3.9 4.6 10.5 4.8 13.6 3.5v-5.7c-.8.2-1.6.4-2.4.5zm94.6-67.3c-.8-1.2-2-1.5-3.2-.7-.6.3-1.1.8-1.5 1.3-1.5 1.8-2.3 3.9-2.5 6.2-.2 2 .1 3.9 1.2 5.6.8 1.3 2 1.6 3.3.8 1.2-.7 2-1.6 2.6-2.8.9-1.8 1.3-3.6 1.4-6.1 0-1.2-.3-2.8-1.3-4.3zm-22.4.2c-.8-1.4-2.2-1.7-3.5-.8-.5.3-.9.7-1.3 1.2-1.8 2.2-2.7 4.8-2.6 7.7 0 1.5.4 2.9 1.2 4.2.8 1.3 2 1.6 3.3.8.7-.5 1.5-1.1 2-1.7 1.5-1.9 2-4.2 2.1-6.1 0-2.3-.4-3.9-1.2-5.3z"/></svg>