<svg xmlns="http://www.w3.org/2000/svg" width="197.3" height="49.6" viewBox="0 0 197.3 49.6"><path d="M9.3 36.3C6.2 24.4 3.1 12.5 0 .4h6.4l6.8 27.1c2.5-9 4.9-18 7.4-27.1h6.6l7.6 27.2c2.2-9 4.5-18.1 6.7-27.2h6c-.6 2.4-1.2 4.6-1.8 6.9l-7.2 27.8c-.2 1-.6 1.3-1.6 1.2l-5-.1c-.4 0-1.1-.4-1.2-.8l-6.8-25.2c-.1-.4-.2-.9-.4-1.3-.5 2.2-1 4.3-1.6 6.5-1.8 6.6-3.6 13.2-5.3 19.8-.2.9-.6 1.2-1.5 1.1H9.3zm114-.1V0h-5.7v9.3c-1.6 0-3.2-.1-4.7 0-5.3.3-9.4 2.6-11.6 7.6-1.9 4.3-1.9 8.9-.6 13.4 2.2 7.6 10.8 7.9 14.9 4.5.9-.7 1.6-1.6 2.3-2.4v3.8h5.4zm-6.7-9c-.4 1.5-1.6 3-2.9 3.9-2.4 1.9-5.8.9-6.8-1.9-1.5-4-1.4-8 .4-11.9 1-2.1 2.9-3.1 5.2-3.3 1.2-.1 2.5.2 3.7.2 1.2 0 1.3.6 1.3 1.6-.1 1.2 0 2.3 0 3.5h.3c-.3 2.7-.5 5.4-1.2 7.9zm10.8 9h5.9v-13c3.4.2 6.6-.1 9.6-1.5 4.7-2.2 7.4-6.9 6.8-12.2-.5-4.8-3.7-8.3-9.1-9-4.3-.5-8.7-.1-13.2-.1v35.8zm5.9-31c2.4-.1 4.7-.4 6.9.6 2.2.9 3.2 2.7 3.4 4.9.3 2.5-.5 4.7-2.7 6.2-2.3 1.5-4.8 1.8-7.6 1.2V5.2zm39 5.8c3 8 6 16 8.9 24 .2.5.4 1.2.3 1.7-.5 1.6-1.1 3.2-1.9 4.6-1.3 2.3-3.2 3.6-6 3.3-.8-.1-1.6-.2-2.6-.2-.2 1.6-.4 3.3-.7 5.2h4.1c3.5.1 6.4-1.3 8.4-4.2 1.3-1.8 2.4-3.8 3.2-5.9 3.3-8.4 6.4-16.9 9.6-25.3.5-1.5 1.1-2.9 1.7-4.5-1.9 0-3.5.1-5.1 0-.9-.1-1.3.4-1.6 1.2l-5.5 16.2c-.1.3-.2.5-.3.7-2-5.7-3.9-11.3-5.9-16.9-.2-.5-.7-1.1-1.1-1.1-1.8-.1-3.7-.1-5.8-.1.1.7.2 1 .3 1.3zM69.1 14.5c-2.4-4.1-6.2-5.3-10.7-5.2-5.1.1-8.9 2.3-11.1 6.9-2.4 4.8-2.2 9.8-.2 14.7.8 1.9 2.1 3.3 3.8 4.3 4.4 2.6 10.9 2.1 14.9-1.1 3.8-3 5.2-7.2 5.1-12.3 0-2.2-.4-4.9-1.8-7.3zm-4.9 12.7c-.9 3.1-3.3 4.7-6.5 4.6-2.9-.1-4.9-1.9-5.6-5.1-.6-2.4-.6-4.9 0-7.3 1-3.7 3.8-5.6 7.7-5 2.4.4 4.1 2.1 4.8 5.1.3 1.1.3 2.3.5 3.6-.3 1.3-.5 2.8-.9 4.1zm99-6.9c-3.2.2-6.3.7-9.1 2.3-3.2 1.8-4.8 5.2-4 8.6 1 4.3 5 6.6 9.6 5.4 2.5-.6 4.5-2 6.2-4.4v3.9h5.4V17c0-3.9-1.9-6.4-5.6-7.3-4.6-1.1-9.1-.5-13.6 1-.3.1-.6.5-.6.8.3 1.4.7 2.8 1 4.1 1.4-.5 2.7-1 4-1.2 1.4-.3 2.8-.5 4.1-.5 3.4 0 4.8 1.6 4.9 4.9v1.5h-2.3zm-3.1 11.9c-2 .4-3.6-.4-4.3-2.2-.6-1.7.1-3.4 1.8-4.3 2.4-1.3 5-1.4 7.7-1.5.5 3.7-1.8 7.2-5.2 8zm-69.3 4h5.6V0h-5.6v36.2zM79.2 14.4c.1-1.8.2-3.1.3-4.5H74v26.4h5.8v-1.6c.1-4.4 0-8.8.3-13.1.3-4.8 2.5-6.5 7.1-6.6.1 0 .2-.1.3-.2.1-1.7.2-3.5.2-5.3-4-.7-6.5 1.4-8.5 4.9z"/></svg>